<?xml version="1.0" encoding="utf-8"?>
<!-- Generator: Adobe Illustrator 27.1.1, SVG Export Plug-In . SVG Version: 6.00 Build 0)  -->
<svg version="1.1" id="Layer_1" xmlns="http://www.w3.org/2000/svg" xmlns:xlink="http://www.w3.org/1999/xlink" x="0px" y="0px"
	 viewBox="0 0 75 75" style="enable-background:new 0 0 75 75;" xml:space="preserve">
<style type="text/css">
	.st0{fill:#AAB9C4;}
	.st1{fill:#FFFFFF;}
	.st2{fill:#FF9600;}
</style>
<g>
	<g>
		<g>
			<g>
				<path class="st0" d="M63.5,11.5v52h-52v-52H63.5 M64,11H11v53h53V11L64,11z"/>
			</g>
			<g>
				<path class="st0" d="M37.5,0.7l36.8,36.8L37.5,74.3L0.7,37.5L37.5,0.7 M37.5,0L0,37.5L37.5,75L75,37.5L37.5,0L37.5,0z"/>
			</g>
			<g>
				<path class="st0" d="M37.5,0.7l36.8,36.8L37.5,74.3L0.7,37.5L37.5,0.7 M37.5,0L0,37.5L37.5,75L75,37.5L37.5,0L37.5,0z"/>
			</g>
			<g>
				<path class="st0" d="M23.8,3.4l47.9,20.4L51.2,71.6L3.4,51.2L23.8,3.4 M23.5,2.7L2.7,51.5l48.8,20.8l20.8-48.8L23.5,2.7
					L23.5,2.7z"/>
			</g>
			<g>
				<path class="st0" d="M51.9,3.7l19.4,48.3L23.1,71.3L3.7,23.1L51.9,3.7 M52.2,3L3,22.8L22.8,72L72,52.2L52.2,3L52.2,3z"/>
			</g>
		</g>
	</g>
	<g>
		<circle class="st1" cx="37.5" cy="37.5" r="28.5"/>
	</g>
	<g>
		<path class="st2" d="M44.2,32.9h-7.7l-2.6-2.6h-6.4c-1.1,0-1.9,0.9-1.9,1.9v14.1c0,1.1,0.9,1.9,1.9,1.9h16.7
			c1.1,0,1.9-0.9,1.9-1.9V34.9C46.1,33.8,45.3,32.9,44.2,32.9z"/>
		<path class="st2" d="M48.1,28.2h-6.3l-2.1-2.1h-5.2c-0.9,0-1.6,0.7-1.6,1.6v0.5h4.2l2.3,2.3h6.9c1,0,1.7,0.8,1.7,1.7v8.6h0.1
			c0.9,0,1.6-0.7,1.6-1.6v-9.4C49.7,28.9,49,28.2,48.1,28.2z"/>
		<path class="st2" d="M51.8,24.2h-5.1l-1.7-1.7h-4.3c-0.7,0-1.3,0.6-1.3,1.3v0.4h3.4l1.9,1.9h5.6c0.8,0,1.4,0.6,1.4,1.4v7h0.1
			c0.7,0,1.3-0.6,1.3-1.3v-7.7C53,24.7,52.5,24.2,51.8,24.2z"/>
	</g>
</g>
</svg>
