<?xml version="1.0" encoding="utf-8"?>
<!-- Generator: Adobe Illustrator 27.1.1, SVG Export Plug-In . SVG Version: 6.00 Build 0)  -->
<svg version="1.1" id="Layer_1" xmlns="http://www.w3.org/2000/svg" xmlns:xlink="http://www.w3.org/1999/xlink" x="0px" y="0px"
	 viewBox="0 0 512 512" style="enable-background:new 0 0 512 512;" xml:space="preserve">
<style type="text/css">
	.st0{fill:#126998;}
	.st1{fill:#F4CB00;}
	.st2{fill:#9EA6AF;}
</style>
<g>
	<path class="st0" d="M321.6,132.1H281c-8.4,0-15.2,6.8-15.2,15.2v40.6c0,8.4,6.8,15.2,15.2,15.2h40.6c8.4,0,15.2-6.8,15.2-15.2
		v-40.6C336.8,138.9,330,132.1,321.6,132.1z M230.3,223.4h-40.6c-8.4,0-15.2,6.8-15.2,15.2v40.6c0,8.4,6.8,15.2,15.2,15.2h40.6
		c8.4,0,15.2-6.8,15.2-15.2v-40.6C245.5,230.2,238.7,223.4,230.3,223.4z"/>
	<path class="st1" d="M230.3,132.1h-40.6c-8.4,0-15.2,6.8-15.2,15.2v40.6c0,8.4,6.8,15.2,15.2,15.2h40.6c8.4,0,15.2-6.8,15.2-15.2
		v-40.6C245.5,138.9,238.7,132.1,230.3,132.1z"/>
	<path class="st1" d="M321.6,223.4H281c-8.4,0-15.2,6.8-15.2,15.2v40.6c0,8.4,6.8,15.2,15.2,15.2h40.6c8.4,0,15.2-6.8,15.2-15.2
		v-40.6C336.8,230.2,330,223.4,321.6,223.4z"/>
</g>
<g>
	<path class="st2" d="M266,383.1c-0.9-1.7-2-3-3.3-4c-1.3-1-2.8-1.5-4.4-1.5c-1.5,0-2.8,0.4-4,1.3c-1.2,0.9-2.4,2-3.6,3.3
		c-1.2,1.3-2.3,2.8-3.3,4.4c-1.1,1.6-2.3,3.1-3.5,4.6c-1.5,1.8-3.1,3.2-4.8,4.3c-1.7,1.1-3.7,1.6-5.9,1.6h-1.1
		c-3.2,0-5.4-0.7-6.7-2.2c-1.3-1.5-1.9-3.5-1.9-6v-11.1c0-3.4,0-6.5-0.1-9.4c-0.1-2.9-0.2-5.5-0.3-7.9c-0.1-2.4-0.3-4.8-0.5-7.1
		c-0.1-1.3-0.3-2.8-0.7-4.4c-0.3-1.6-0.7-2.7-1.1-3.4l-4.5,5c0.2,0.6,0.5,1.5,0.7,2.6c0.2,1.2,0.5,2.4,0.6,3.7
		c0.3,1.8,0.5,3.7,0.6,5.7c0.1,2,0.3,4.3,0.4,6.8c0.1,2.6,0.2,5.5,0.3,8.9c0.1,3.3,0.1,7.3,0.1,11.9c0,4.1,1,7.4,3,9.9
		c2,2.5,5.2,3.7,9.8,3.7h1.6c2.9-0.1,5.4-0.8,7.5-2.3c2.1-1.5,3.8-3.3,5.2-5.6c0.2,1.7,1,3.1,2.4,4.2c1.3,1.1,2.9,2,4.6,2.7
		c1.7,0.7,3.5,1.1,5.4,1.4c1.9,0.3,3.4,0.4,4.7,0.4c0.5,0,1.1-0.3,1.8-0.8c0.7-0.5,1.4-1.2,2-2c0.6-0.8,1.2-1.8,1.6-2.8
		c0.4-1,0.6-2.1,0.6-3.1c0-2.6-0.2-5.1-0.7-7.3C267.6,386.8,266.9,384.8,266,383.1z M260.5,398.3c-1.7-0.2-3.4-0.6-5.1-1
		c-1.7-0.5-3.1-1.2-4.4-2c-1.2-0.9-1.8-2-1.8-3.3c0-0.4,0.2-1,0.8-1.9c0.5-0.9,1.1-1.8,1.9-2.7c0.8-0.9,1.6-1.7,2.5-2.5
		c0.9-0.7,1.8-1.1,2.6-1.1c1.5,0,2.7,0.6,3.7,1.6c1,1.1,1.8,2.4,2.4,4c0.6,1.6,1,3.2,1.3,4.9c0.2,1.7,0.4,3.2,0.4,4.5
		C263.6,398.6,262.3,398.5,260.5,398.3z"/>
	<path class="st2" d="M363.6,384.1l-2.3,6c-1.7,0-3.3,0.2-4.8,0.7c-1.5,0.5-3,1.1-4.6,1.9c-1.6,0.8-3.3,1.8-5.1,3
		c-1.8,1.2-3.8,2.5-6.1,4c-2.1,1.3-4.3,2.4-6.6,3.3c-2.4,0.8-4.7,1.3-7,1.3h-10c-2.2,0-4.4-0.3-6.5-0.9c-2.2-0.6-3.9-1.9-5.2-3.9
		c-0.3,1-1.1,1.9-2.4,2.6c-1.2,0.7-2.6,1.3-4.2,1.8c-1.6,0.5-3.3,0.8-5.2,1c-1.9,0.2-3.6,0.3-5.2,0.3c-2.4,0-4.3-0.2-5.8-0.5
		c-1.5-0.3-2.7-0.9-3.5-1.6c-0.9-0.7-1.4-1.5-1.7-2.5c-0.3-1-0.5-2.1-0.5-3.3c0-1.3,0.1-2.7,0.3-4.1c0.2-1.4,0.4-2.7,0.7-3.9
		l3.2,0.9c-0.1,0.7-0.2,1.3-0.2,2c0,0.7,0,1.3,0,1.8c0,0.5,0,1,0.1,1.5c0.1,0.5,0.4,1,1,1.4c0.6,0.4,1.4,0.8,2.6,1
		c1.2,0.3,2.8,0.4,4.8,0.4c2.2,0,4.6-0.2,7.2-0.7c2.6-0.5,5-1.1,7.3-2v-0.1c-0.9-3.6-2-7.6-3.4-11.8c-1.3-4.3-2.8-8.2-4.4-11.9
		l4.1-4.1c0.8,1.8,1.6,3.8,2.3,6c0.7,2.2,1.4,4.4,2,6.5c0.6,2.1,1.2,4.1,1.7,6c0.5,1.9,0.9,3.5,1.3,4.7c0.7,2.4,1.7,4,3.1,5
		c1.4,0.9,3.6,1.4,6.6,1.4h10.9c2.3,0,4.4-0.3,6.3-1c2-0.6,3.9-1.5,6-2.7c2.1-1.2,4.2-2.4,6.1-3.6c1.9-1.2,4-2.3,6.1-3.3
		c-4.4-1.3-8.5-2.6-12-3.8c-3.6-1.2-6.5-1.8-8.8-1.8c-0.3,0-0.7,0-1,0.1c-0.4,0.1-0.7,0.2-1.2,0.4c-0.3,1-0.6,2.2-0.8,3.6
		c-0.2,1.5-0.4,2.7-0.4,3.8l-5.2,1.6c0.2-1.9,0.6-3.7,1-5.5c0.4-1.7,0.8-3.1,1.3-4.2c0.3-0.7,0.8-1.4,1.3-2c0.6-0.7,1.2-1.3,2-1.8
		c0.7-0.6,1.5-1,2.2-1.4c0.8-0.4,1.5-0.5,2.2-0.5c1.3,0,2.9,0.2,4.6,0.7c1.7,0.5,3.8,1.1,6.2,1.9c2.4,0.8,5.2,1.8,8.4,2.8
		C355.5,381.6,359.3,382.8,363.6,384.1z"/>
	<path class="st2" d="M332.8,364.4c-1.2-0.8-2.3-1.4-3.4-2l3.3-5.9c1.3,0.5,2.5,1.1,3.6,1.8c1.2,0.7,2.1,1.5,2.9,2.2l-3.6,5.8
		C335,365.8,334,365.1,332.8,364.4z"/>
	<path class="st2" d="M169.5,376.7c-1.2-0.8-2.4-1.4-3.4-1.9l3.3-6c1.3,0.5,2.5,1.1,3.7,1.8c1.2,0.7,2.1,1.4,2.8,2.2l-3.4,5.7
		C171.8,378.1,170.8,377.5,169.5,376.7z"/>
	<path class="st2" d="M207.8,387.8c0.2,1.4,0.3,2.6,0.3,3.6c0,0.8-0.2,1.7-0.5,2.7c-0.3,1-0.7,1.9-1.1,2.8c-0.4,0.9-0.9,1.7-1.3,2.3
		c-0.5,0.7-0.9,1.1-1.2,1.4c-1,0.7-2.7,1.4-4.8,2c-2.2,0.7-4.7,1.3-7.7,1.8c-2.9,0.5-6.1,0.9-9.6,1.2c-3.5,0.3-7.1,0.5-10.7,0.5
		c-2.4,0-4.7-0.1-6.9-0.3c-2.2-0.2-4.3-0.5-6.1-0.9c-1.8-0.4-3.5-0.9-4.8-1.6c-1.4-0.6-2.4-1.4-3-2.3c-0.9-1.2-1.5-2.6-1.9-4.2
		c-0.4-1.7-0.6-3.3-0.6-4.8c0-4.9,1.2-9.9,3.5-15l2.8,1.3c-0.5,1.6-0.9,3.4-1.3,5.3c-0.4,1.9-0.5,3.8-0.5,5.6c0,1.2,0.1,2.3,0.3,3.3
		c0.2,1.1,0.6,1.9,1.1,2.6c0.5,0.9,1.5,1.5,3,2.1c1.5,0.5,3.1,0.9,5,1.2c1.9,0.3,3.9,0.5,5.9,0.6c2.1,0.1,3.9,0.2,5.7,0.2
		c2.8,0,5.7-0.1,8.6-0.3c3-0.2,5.8-0.5,8.5-0.9c2.7-0.4,5.3-0.8,7.6-1.4c2.4-0.6,4.4-1.2,6.1-2c-0.2-1.5-0.5-3.1-0.8-4.7
		c-0.4-1.6-0.8-3.1-1.3-4.6c-0.5-1.5-1-2.8-1.5-4c-0.5-1.2-1-2.3-1.5-3.1l4.5-4.2c0.7,1.5,1.4,3,2,4.6c0.6,1.6,1.1,3.2,1.6,4.7
		S207.6,386.4,207.8,387.8z"/>
	<path class="st2" d="M180.7,376.2c-1.2-0.8-2.4-1.4-3.4-1.9l3.3-5.9c1.3,0.5,2.5,1.1,3.7,1.8c1.2,0.7,2.1,1.4,2.8,2.2l-3.5,5.7
		C182.9,377.6,181.9,377,180.7,376.2z"/>
</g>
</svg>
