<?xml version="1.0" encoding="utf-8"?>
<!-- Generator: Adobe Illustrator 27.1.1, SVG Export Plug-In . SVG Version: 6.00 Build 0)  -->
<svg version="1.1" id="Layer_1" focusable="false" xmlns="http://www.w3.org/2000/svg" xmlns:xlink="http://www.w3.org/1999/xlink"
	 x="0px" y="0px" viewBox="0 0 512 512" style="enable-background:new 0 0 512 512;" xml:space="preserve">
<path d="M325.3,154.7l-48-24c-6.7-4-14.7-5.3-21.3-5.3c-8,0-14.7,1.3-21.3,5.3l-48,24c-30.7,17.3-62.6,36-62.6,69.3v102.6
	c0,32,25.3,57.3,56,58.6l48,1.3c9.3,0,18.7,0,28,0c9.3,0,18.7,0,28,0l48-1.3c32-1.3,56-26.7,56-58.6V224
	C389.2,192,355.9,173.4,325.3,154.7z M297.3,324c0,6.7-5.3,12-12,12H228c-6.7,0-12-5.3-12-12v-2.7c0-6.7,5.3-12,12-12h57.3
	c6.7,0,12,5.3,12,12V324z"/>
</svg>
