<?xml version="1.0" encoding="utf-8"?>
<!-- Generator: Adobe Illustrator 27.1.1, SVG Export Plug-In . SVG Version: 6.00 Build 0)  -->
<svg version="1.1" id="Layer_1" xmlns="http://www.w3.org/2000/svg" xmlns:xlink="http://www.w3.org/1999/xlink" x="0px" y="0px"
	 viewBox="0 0 50 50" style="enable-background:new 0 0 50 50;" xml:space="preserve">
<style type="text/css">
	.st0{fill:#2F3C4B;}
</style>
<path class="st0" d="M30.4,17l-3.7-1.9c-0.5-0.3-1.1-0.4-1.7-0.4c-0.6,0-1.1,0.1-1.7,0.4L19.6,17c-2.4,1.3-4.9,2.8-4.9,5.4v8
	c0,2.5,2,4.5,4.4,4.6l3.7,0.1c0.7,0,1.5,0,2.2,0s1.5,0,2.2,0l3.7-0.1c2.5-0.1,4.4-2.1,4.4-4.6v-8C35.4,19.9,32.8,18.5,30.4,17z
	 M28.2,30.2c0,0.5-0.4,0.9-0.9,0.9h-4.5c-0.5,0-0.9-0.4-0.9-0.9V30c0-0.5,0.4-0.9,0.9-0.9h4.5c0.5,0,0.9,0.4,0.9,0.9V30.2z"/>
</svg>
