<?xml version="1.0" encoding="utf-8"?>
<!-- Generator: Adobe Illustrator 27.1.1, SVG Export Plug-In . SVG Version: 6.00 Build 0)  -->
<svg version="1.1" id="Layer_1" xmlns="http://www.w3.org/2000/svg" xmlns:xlink="http://www.w3.org/1999/xlink" x="0px" y="0px"
	 viewBox="0 0 50 50" style="enable-background:new 0 0 50 50;" xml:space="preserve">
<style type="text/css">
	.st0{opacity:3.000000e-02;fill:#010101;enable-background:new    ;}
	.st1{opacity:0.12;fill:#010101;enable-background:new    ;}
</style>
<path class="st0" d="M17.1,11.6H33c3,0,5.4,2.4,5.4,5.4v15.9c0,3-2.4,5.4-5.4,5.4H17.1c-3,0-5.4-2.4-5.4-5.4V17
	C11.7,14,14.1,11.6,17.1,11.6z"/>
<path class="st1" d="M29.6,19.6h-9.3c-0.8,0-1.5,0.7-1.5,1.6v7.8c0,0.9,0.7,1.6,1.5,1.6h9.3c0.9,0,1.6-0.7,1.6-1.6v-7.8
	C31.2,20.3,30.5,19.6,29.6,19.6z M21.5,21.1c0.6,0,1.2,0.5,1.2,1.2s-0.5,1.2-1.2,1.2s-1.2-0.5-1.2-1.2S20.9,21.1,21.5,21.1z
	 M29.6,28.7c-0.1,0.1-0.2,0.2-0.3,0.2h-8.5c-0.1,0-0.3-0.1-0.3-0.2c-0.1-0.1-0.1-0.3,0-0.4l1.7-2.3c0.1-0.1,0.2-0.2,0.3-0.2
	c0.1,0,0.2,0.1,0.3,0.2l0.8,1.1l2.3-3.4c0.1-0.1,0.2-0.2,0.3-0.2s0.3,0.1,0.3,0.2l3.1,4.7C29.7,28.4,29.7,28.5,29.6,28.7z"/>
</svg>
