<?xml version="1.0" encoding="utf-8"?>
<!-- Generator: Adobe Illustrator 27.1.1, SVG Export Plug-In . SVG Version: 6.00 Build 0)  -->
<svg version="1.1" id="Layer_1" xmlns="http://www.w3.org/2000/svg" xmlns:xlink="http://www.w3.org/1999/xlink" x="0px" y="0px"
	 viewBox="0 0 60 60" style="enable-background:new 0 0 60 60;" xml:space="preserve">
<style type="text/css">
	.st0{opacity:0.3;fill:url(#SVGID_1_);enable-background:new    ;}
	.st1{fill:url(#SVGID_00000111875339856898140660000001685175420654545071_);}
	.st2{fill:#FFFFFF;}
</style>
<radialGradient id="SVGID_1_" cx="30" cy="28.4" r="28.4398" gradientTransform="matrix(1 0 0 -1 0 60)" gradientUnits="userSpaceOnUse">
	<stop  offset="0" style="stop-color:#E17839"/>
	<stop  offset="1" style="stop-color:#E27939;stop-opacity:0"/>
</radialGradient>
<circle class="st0" cx="30" cy="31.6" r="28.4"/>
<linearGradient id="SVGID_00000010306362333895442900000007226260648474035090_" gradientUnits="userSpaceOnUse" x1="16.07" y1="20.97" x2="43.8968" y2="48.7967" gradientTransform="matrix(1 0 0 -1 0 60)">
	<stop  offset="1.065558e-08" style="stop-color:#F1BB23"/>
	<stop  offset="1" style="stop-color:#E1763A"/>
</linearGradient>
<circle style="fill:url(#SVGID_00000010306362333895442900000007226260648474035090_);" cx="30" cy="25.1" r="19.7"/>
<path class="st2" d="M32.1,16c-3.4,0-6.2,2.8-6.2,6.2c0,0.5,0.1,1,0.2,1.5l-5.5,5.5c-0.2,0.2-0.3,0.5-0.3,0.8v3.5
	c0,0.3,0.3,0.6,0.6,0.6h3.4c0.3,0,0.6-0.3,0.6-0.6v-1.7h1.7c0.3,0,0.6-0.3,0.6-0.6v-1.7h2c0.2,0,0.3-0.1,0.4-0.2l1.2-1.2
	c0.5,0.1,1,0.2,1.5,0.2c3.4,0,6.2-2.8,6.2-6.2S35.6,16,32.1,16z M33.5,22.3c-0.8,0-1.4-0.6-1.4-1.4s0.6-1.4,1.4-1.4
	c0.8,0,1.4,0.6,1.4,1.4C34.9,21.6,34.3,22.3,33.5,22.3z"/>
</svg>
