<?xml version="1.0" encoding="utf-8"?>
<!-- Generator: Adobe Illustrator 27.1.1, SVG Export Plug-In . SVG Version: 6.00 Build 0)  -->
<svg version="1.1" id="Layer_1" xmlns="http://www.w3.org/2000/svg" xmlns:xlink="http://www.w3.org/1999/xlink" x="0px" y="0px"
	 viewBox="0 0 60 60" style="enable-background:new 0 0 60 60;" xml:space="preserve">
<style type="text/css">
	.st0{opacity:0.6;fill:url(#SVGID_1_);enable-background:new    ;}
	.st1{fill:url(#SVGID_00000044139742723920300880000012467011258200653450_);}
	.st2{fill:#FFFFFF;}
</style>
<radialGradient id="SVGID_1_" cx="30" cy="31.6" r="28.4398" gradientUnits="userSpaceOnUse">
	<stop  offset="0" style="stop-color:#E17839"/>
	<stop  offset="0.111" style="stop-color:#E27C3F;stop-opacity:0.889"/>
	<stop  offset="0.2567" style="stop-color:#E4874F;stop-opacity:0.7433"/>
	<stop  offset="0.4218" style="stop-color:#E89A6A;stop-opacity:0.5782"/>
	<stop  offset="0.601" style="stop-color:#EEB490;stop-opacity:0.399"/>
	<stop  offset="0.7917" style="stop-color:#F6D5C1;stop-opacity:0.2083"/>
	<stop  offset="0.9894" style="stop-color:#FEFDFC;stop-opacity:1.063001e-02"/>
	<stop  offset="1" style="stop-color:#FFFFFF;stop-opacity:0"/>
</radialGradient>
<circle class="st0" cx="30" cy="31.6" r="28.4"/>
<linearGradient id="SVGID_00000129920207517257972130000005827970129427587467_" gradientUnits="userSpaceOnUse" x1="16.07" y1="39.03" x2="43.8968" y2="11.2033">
	<stop  offset="1.065558e-08" style="stop-color:#F1BB23"/>
	<stop  offset="1" style="stop-color:#E1763A"/>
</linearGradient>
<circle style="fill:url(#SVGID_00000129920207517257972130000005827970129427587467_);" cx="30" cy="25.1" r="19.7"/>
<path class="st2" d="M32.1,16c-3.4,0-6.2,2.8-6.2,6.2c0,0.5,0.1,1,0.2,1.5l-5.5,5.5c-0.2,0.2-0.3,0.5-0.3,0.8v3.5
	c0,0.3,0.3,0.6,0.6,0.6h3.4c0.3,0,0.6-0.3,0.6-0.6v-1.7h1.7c0.3,0,0.6-0.3,0.6-0.6v-1.7h2c0.2,0,0.3-0.1,0.4-0.2l1.2-1.2
	c0.5,0.1,1,0.2,1.5,0.2c3.4,0,6.2-2.8,6.2-6.2S35.6,16,32.1,16z M33.5,22.3c-0.8,0-1.4-0.6-1.4-1.4s0.6-1.4,1.4-1.4
	c0.8,0,1.4,0.6,1.4,1.4C34.9,21.6,34.3,22.3,33.5,22.3z"/>
</svg>
