<?xml version="1.0" encoding="utf-8"?>
<!-- Generator: Adobe Illustrator 27.1.1, SVG Export Plug-In . SVG Version: 6.00 Build 0)  -->
<svg version="1.1" id="Layer_1" xmlns="http://www.w3.org/2000/svg" xmlns:xlink="http://www.w3.org/1999/xlink" x="0px" y="0px"
	 viewBox="0 0 60 60" style="enable-background:new 0 0 60 60;" xml:space="preserve">
<style type="text/css">
	.st0{opacity:0.6;fill:url(#SVGID_1_);enable-background:new    ;}
	.st1{fill:url(#SVGID_00000156563564205333271900000016549767659958817697_);}
	.st2{fill:#FFFFFF;}
</style>
<radialGradient id="SVGID_1_" cx="30" cy="31.6" r="28.4398" gradientUnits="userSpaceOnUse">
	<stop  offset="0" style="stop-color:#4CBEA3"/>
	<stop  offset="0.1182" style="stop-color:#52C0A6;stop-opacity:0.8818"/>
	<stop  offset="0.2733" style="stop-color:#62C6AE;stop-opacity:0.7267"/>
	<stop  offset="0.449" style="stop-color:#7DD0BC;stop-opacity:0.551"/>
	<stop  offset="0.6397" style="stop-color:#A3DED0;stop-opacity:0.3603"/>
	<stop  offset="0.8404" style="stop-color:#D3EFE9;stop-opacity:0.1596"/>
	<stop  offset="1" style="stop-color:#FFFFFF;stop-opacity:0"/>
</radialGradient>
<circle class="st0" cx="30" cy="31.6" r="28.4"/>
<linearGradient id="SVGID_00000128461038895972536150000007615562569005275015_" gradientUnits="userSpaceOnUse" x1="16.07" y1="39.03" x2="43.8968" y2="11.2033">
	<stop  offset="2.295156e-02" style="stop-color:#7FC264"/>
	<stop  offset="1" style="stop-color:#4ABEA5"/>
</linearGradient>
<circle style="fill:url(#SVGID_00000128461038895972536150000007615562569005275015_);" cx="30" cy="25.1" r="19.7"/>
<path class="st2" d="M26.5,28.2h7v-7h-7V28.2z M37,21.8h1.7c0.3,0,0.6-0.3,0.6-0.6c0-0.3-0.3-0.6-0.6-0.6H37V20c0-1.3-1-2.3-2.3-2.3
	h-0.6V16c0-0.3-0.3-0.6-0.6-0.6s-0.6,0.3-0.6,0.6v1.7h-2.3V16c0-0.3-0.3-0.6-0.6-0.6s-0.6,0.3-0.6,0.6v1.7h-2.3V16
	c0-0.3-0.3-0.6-0.6-0.6c-0.3,0-0.6,0.3-0.6,0.6v1.7h-0.6c-1.3,0-2.3,1-2.3,2.3v0.6h-1.7c-0.3,0-0.6,0.3-0.6,0.6
	c0,0.3,0.3,0.6,0.6,0.6H23v2.3h-1.7c-0.3,0-0.6,0.3-0.6,0.6c0,0.3,0.3,0.6,0.6,0.6H23v2.3h-1.7c-0.3,0-0.6,0.3-0.6,0.6
	s0.3,0.6,0.6,0.6H23v0.6c0,1.3,1,2.3,2.3,2.3h0.6v1.7c0,0.3,0.3,0.6,0.6,0.6c0.3,0,0.6-0.3,0.6-0.6v-1.7h2.3v1.7
	c0,0.3,0.3,0.6,0.6,0.6c0.3,0,0.6-0.3,0.6-0.6v-1.7h2.3v1.7c0,0.3,0.3,0.6,0.6,0.6s0.6-0.3,0.6-0.6v-1.7h0.6c1.3,0,2.3-1,2.3-2.3
	v-0.6h1.7c0.3,0,0.6-0.3,0.6-0.6c0-0.3-0.3-0.6-0.6-0.6H37v-2.3h1.7c0.3,0,0.6-0.3,0.6-0.6s-0.3-0.6-0.6-0.6H37V21.8z M34.7,28.7
	c0,0.3-0.3,0.6-0.6,0.6H26c-0.3,0-0.6-0.3-0.6-0.6v-8.1c0-0.3,0.3-0.6,0.6-0.6h8.1c0.3,0,0.6,0.3,0.6,0.6V28.7z"/>
</svg>
