<?xml version="1.0" encoding="utf-8"?>
<!-- Generator: Adobe Illustrator 27.1.1, SVG Export Plug-In . SVG Version: 6.00 Build 0)  -->
<svg version="1.1" id="Layer_1" xmlns="http://www.w3.org/2000/svg" xmlns:xlink="http://www.w3.org/1999/xlink" x="0px" y="0px"
	 viewBox="0 0 60 60" style="enable-background:new 0 0 60 60;" xml:space="preserve">
<style type="text/css">
	.st0{opacity:0.6;fill:url(#SVGID_1_);enable-background:new    ;}
	.st1{fill:url(#SVGID_00000000925111838515152350000000719742353021119914_);}
	.st2{fill:#FFFFFF;}
</style>
<radialGradient id="SVGID_1_" cx="30" cy="31.6" r="28.4398" gradientUnits="userSpaceOnUse">
	<stop  offset="0" style="stop-color:#46B971"/>
	<stop  offset="0.1158" style="stop-color:#4CBB75;stop-opacity:0.8842"/>
	<stop  offset="0.2678" style="stop-color:#5CC182;stop-opacity:0.7322"/>
	<stop  offset="0.4399" style="stop-color:#77CC97;stop-opacity:0.5601"/>
	<stop  offset="0.6268" style="stop-color:#9DDAB4;stop-opacity:0.3732"/>
	<stop  offset="0.8233" style="stop-color:#CDECD9;stop-opacity:0.1767"/>
	<stop  offset="1" style="stop-color:#FFFFFF;stop-opacity:0"/>
</radialGradient>
<circle class="st0" cx="30" cy="31.6" r="28.4"/>
<linearGradient id="SVGID_00000046304681285867862730000017663657815537912714_" gradientUnits="userSpaceOnUse" x1="16.07" y1="39.03" x2="43.8968" y2="11.2033">
	<stop  offset="0" style="stop-color:#8AC640"/>
	<stop  offset="1" style="stop-color:#44B973"/>
</linearGradient>
<circle style="fill:url(#SVGID_00000046304681285867862730000017663657815537912714_);" cx="30" cy="25.1" r="19.7"/>
<g>
	<path class="st2" d="M31.6,18.6c-0.2-0.1-0.5,0-0.6,0.3l-1,2.3c-0.7,0-1.2,0.5-1.2,1.2s0.5,1.2,1.2,1.2s1.2-0.5,1.2-1.2
		c0-0.3-0.1-0.6-0.3-0.8l1-2.4C32,18.9,31.9,18.7,31.6,18.6z M35.8,17.6h-1.7c-1-1.2-2.4-1.9-4.1-1.9c-1.6,0-3.1,0.7-4.1,1.9h-1.7
		c-1.1,0-1.9,0.9-1.9,1.9v9.6c0,1.1,0.9,1.9,1.9,1.9h1.4c0-0.1,0-0.2,0-0.4l-1-0.6c-0.1-0.1-0.2-0.2-0.1-0.3
		c0.2-0.8,0.7-1.5,1.2-2.2c0.1-0.1,0.2-0.1,0.3-0.1l1,0.6c0.4-0.3,0.9-0.6,1.4-0.8v-1.1c0-0.1,0.1-0.2,0.2-0.3
		c0.8-0.2,1.7-0.2,2.5,0c0.1,0,0.2,0.1,0.2,0.3v1.1c0.5,0.2,1,0.5,1.4,0.8l1-0.6c0.1-0.1,0.3,0,0.3,0.1c0.6,0.6,1,1.3,1.2,2.2
		c0,0.1,0,0.3-0.1,0.3l-1,0.6c0,0.1,0,0.2,0.1,0.4h1.4c1.1,0,1.9-0.9,1.9-1.9v-9.6C37.7,18.4,36.8,17.6,35.8,17.6z M30,24.8
		c-2.1,0-3.8-1.7-3.8-3.8s1.7-3.8,3.8-3.8s3.8,1.7,3.8,3.8C33.8,23,32.1,24.8,30,24.8z M31.6,18.6c-0.2-0.1-0.5,0-0.6,0.3l-1,2.3
		c-0.7,0-1.2,0.5-1.2,1.2s0.5,1.2,1.2,1.2s1.2-0.5,1.2-1.2c0-0.3-0.1-0.6-0.3-0.8l1-2.4C32,18.9,31.9,18.7,31.6,18.6z M31.6,18.6
		c-0.2-0.1-0.5,0-0.6,0.3l-1,2.3c-0.7,0-1.2,0.5-1.2,1.2s0.5,1.2,1.2,1.2s1.2-0.5,1.2-1.2c0-0.3-0.1-0.6-0.3-0.8l1-2.4
		C32,18.9,31.9,18.7,31.6,18.6z"/>
	<path class="st2" d="M33.4,32.4L32.8,32c0.1-0.3,0.1-0.7,0-1l0.6-0.4c0.1,0,0.1-0.1,0.1-0.2c-0.2-0.5-0.4-1-0.8-1.4
		c-0.1-0.1-0.1-0.1-0.2,0l-0.6,0.4c-0.3-0.2-0.6-0.4-0.9-0.5v-0.7c0-0.1-0.1-0.2-0.1-0.2c-0.5-0.1-1.1-0.1-1.6,0
		c-0.1,0-0.1,0.1-0.1,0.2v0.7c-0.3,0.1-0.6,0.3-0.9,0.5L27.7,29c-0.1,0-0.2,0-0.2,0c-0.4,0.4-0.6,0.9-0.8,1.4c0,0.1,0,0.2,0.1,0.2
		l0.6,0.4c-0.1,0.3-0.1,0.7,0,1l-0.6,0.4c-0.1,0-0.1,0.1-0.1,0.2c0.2,0.5,0.4,1,0.8,1.4c0.1,0.1,0.1,0.1,0.2,0l0.6-0.4
		c0.3,0.2,0.6,0.4,0.9,0.5v0.7c0,0.1,0.1,0.2,0.1,0.2c0.5,0.1,1.1,0.1,1.6,0c0.1,0,0.1-0.1,0.1-0.2v-0.7c0.3-0.1,0.6-0.3,0.9-0.5
		l0.6,0.4c0.1,0,0.2,0,0.2,0c0.4-0.4,0.6-0.9,0.8-1.4C33.5,32.5,33.4,32.5,33.4,32.4z M30,32.7c-0.6,0-1.2-0.5-1.2-1.2
		c0-0.6,0.5-1.2,1.2-1.2c0.6,0,1.2,0.5,1.2,1.2S30.6,32.7,30,32.7z"/>
</g>
</svg>
