<?xml version="1.0" encoding="utf-8"?>
<!-- Generator: Adobe Illustrator 27.1.1, SVG Export Plug-In . SVG Version: 6.00 Build 0)  -->
<svg version="1.1" id="Layer_1" xmlns="http://www.w3.org/2000/svg" xmlns:xlink="http://www.w3.org/1999/xlink" x="0px" y="0px"
	 viewBox="0 0 60 60" style="enable-background:new 0 0 60 60;" xml:space="preserve">
<style type="text/css">
	.st0{opacity:0.3;fill:url(#SVGID_1_);enable-background:new    ;}
	.st1{fill:url(#SVGID_00000166642722739507980440000003927929920805045642_);}
	.st2{fill:#FFFFFF;}
</style>
<radialGradient id="SVGID_1_" cx="30" cy="28.4" r="28.4398" gradientTransform="matrix(1 0 0 -1 0 60)" gradientUnits="userSpaceOnUse">
	<stop  offset="0" style="stop-color:#854D9E"/>
	<stop  offset="0.9998" style="stop-color:#864D9E;stop-opacity:0"/>
</radialGradient>
<circle class="st0" cx="30" cy="31.6" r="28.4"/>
<linearGradient id="SVGID_00000145763477934734052810000001528526627038350990_" gradientUnits="userSpaceOnUse" x1="16.07" y1="20.97" x2="43.8968" y2="48.7967" gradientTransform="matrix(1 0 0 -1 0 60)">
	<stop  offset="0" style="stop-color:#BF499B"/>
	<stop  offset="1" style="stop-color:#844D9E"/>
</linearGradient>
<circle style="fill:url(#SVGID_00000145763477934734052810000001528526627038350990_);" cx="30" cy="25.1" r="19.7"/>
<path class="st2" d="M36.5,28l-0.4-1.1c-0.1-0.4-0.6-0.7-1-0.7H24.9c-0.5,0-0.9,0.3-1,0.7L23.5,28c-0.2,0.7,0.3,1.4,1,1.4h4.4v2.3
	c-1,0.2-1.7,0.7-2.1,1.3c-0.2,0.4,0.1,0.8,0.5,0.8h5.4c0.4,0,0.7-0.5,0.5-0.8c-0.4-0.6-1.2-1.1-2.1-1.3v-2.3h4.4
	C36.2,29.5,36.8,28.8,36.5,28z M36.6,20.7c-0.6,0-1.1,0.5-1.1,1.1V24c0,0.6,0.5,1.1,1.1,1.1s1.1-0.5,1.1-1.1v-2.2
	C37.7,21.2,37.2,20.7,36.6,20.7z M32.2,16.3h-4.4c-1.2,0-2.2,1-2.2,2.2v6.6h8.7v-6.6C34.4,17.3,33.4,16.3,32.2,16.3z M32.7,21.6
	c-0.1,0.4-0.3,0.8-0.6,1.1c0,0-0.1,0.1-0.2,0l-0.5-0.3c-0.2,0.2-0.4,0.3-0.7,0.4v0.6c0,0.1,0,0.1-0.1,0.1c-0.4,0.1-0.8,0.1-1.3,0
	c-0.1,0-0.1-0.1-0.1-0.1v-0.6c-0.3-0.1-0.5-0.2-0.7-0.4L28,22.7c-0.1,0-0.1,0-0.2,0c-0.3-0.3-0.5-0.7-0.6-1.1c0-0.1,0-0.1,0.1-0.2
	l0.5-0.3c0-0.3,0-0.5,0-0.8L27.3,20c-0.1,0-0.1-0.1-0.1-0.2c0.1-0.4,0.3-0.8,0.6-1.1c0,0,0.1-0.1,0.2,0l0.5,0.3
	c0.2-0.2,0.4-0.3,0.7-0.4V18c0-0.1,0-0.1,0.1-0.1c0.4-0.1,0.8-0.1,1.3,0c0.1,0,0.1,0.1,0.1,0.1v0.6c0.3,0.1,0.5,0.2,0.7,0.4l0.5-0.3
	c0.1,0,0.1,0,0.2,0c0.3,0.3,0.5,0.7,0.6,1.1c0,0.1,0,0.1-0.1,0.2l-0.5,0.3c0,0.3,0,0.5,0,0.8l0.5,0.3C32.7,21.4,32.7,21.5,32.7,21.6
	z M30,19.8c-0.5,0-0.9,0.4-0.9,0.9s0.4,0.9,0.9,0.9s0.9-0.4,0.9-0.9C30.9,20.2,30.5,19.8,30,19.8z M23.4,20.7
	c-0.6,0-1.1,0.5-1.1,1.1V24c0,0.6,0.5,1.1,1.1,1.1s1.1-0.5,1.1-1.1v-2.2C24.5,21.2,24,20.7,23.4,20.7z"/>
</svg>
