<?xml version="1.0" encoding="utf-8"?>
<!-- Generator: Adobe Illustrator 27.1.1, SVG Export Plug-In . SVG Version: 6.00 Build 0)  -->
<svg version="1.1" id="Layer_1" xmlns="http://www.w3.org/2000/svg" xmlns:xlink="http://www.w3.org/1999/xlink" x="0px" y="0px"
	 viewBox="0 0 60 60" style="enable-background:new 0 0 60 60;" xml:space="preserve">
<style type="text/css">
	.st0{opacity:0.25;fill:url(#SVGID_1_);enable-background:new    ;}
	.st1{fill:url(#SVGID_00000036961713544576273170000009321545907141302199_);}
	.st2{fill:#FFFFFF;}
</style>
<radialGradient id="SVGID_1_" cx="30" cy="28.4" r="28.4398" gradientTransform="matrix(1 0 0 -1 0 60)" gradientUnits="userSpaceOnUse">
	<stop  offset="0" style="stop-color:#4EA5DB"/>
	<stop  offset="1" style="stop-color:#4EA5DB;stop-opacity:0"/>
</radialGradient>
<circle class="st0" cx="30" cy="31.6" r="28.4"/>
<linearGradient id="SVGID_00000004527254496504210690000000277427127944643243_" gradientUnits="userSpaceOnUse" x1="16.07" y1="20.97" x2="43.8968" y2="48.7967" gradientTransform="matrix(1 0 0 -1 0 60)">
	<stop  offset="0" style="stop-color:#8EC8ED"/>
	<stop  offset="1" style="stop-color:#4CA4DB"/>
</linearGradient>
<circle style="fill:url(#SVGID_00000004527254496504210690000000277427127944643243_);" cx="30" cy="25.1" r="19.7"/>
<g>
	<circle class="st2" cx="32.7" cy="15.6" r="2.8"/>
	<path class="st2" d="M28.7,22.5L28.7,22.5c-0.4-0.2-0.5-0.7-0.3-1.1l1.3-2.3c0.2-0.4,0.7-0.5,1.1-0.3l0,0c0.4,0.2,0.5,0.7,0.3,1.1
		l-1.3,2.3C29.6,22.6,29.1,22.7,28.7,22.5z"/>
	<path class="st2" d="M27.7,28c0,0.5-0.4,0.9-0.9,0.9s-0.9-0.4-0.9-0.9s0.4-0.9,0.9-0.9C27.3,27.1,27.7,27.5,27.7,28z"/>
	<path class="st2" d="M36.2,23.3H23.8c-1.6,0-2.9,1.3-2.9,2.9v3.5c0,1.6,1.3,2.9,2.9,2.9h12.3c1.6,0,2.9-1.3,2.9-2.9v-3.5
		C39.1,24.6,37.8,23.3,36.2,23.3z M28.9,28.4l0.5,0.3c0.1,0,0.1,0.1,0.1,0.2c-0.1,0.4-0.3,0.8-0.6,1.1c0,0-0.1,0.1-0.2,0l-0.5-0.3
		c-0.2,0.2-0.4,0.3-0.7,0.4v0.6c0,0.1,0,0.1-0.1,0.1c-0.4,0.1-0.8,0.1-1.2,0c-0.1,0-0.1-0.1-0.1-0.1V30c-0.3-0.1-0.5-0.2-0.7-0.4
		l-0.5,0.3c-0.1,0-0.1,0-0.2,0c-0.3-0.3-0.5-0.7-0.6-1.1c0-0.1,0-0.1,0.1-0.2l0.5-0.3c0-0.3,0-0.5,0-0.8l-0.5-0.3
		c-0.1,0-0.1-0.1-0.1-0.2c0.1-0.4,0.3-0.8,0.6-1.1c0,0,0.1-0.1,0.2,0l0.5,0.3c0.2-0.2,0.4-0.3,0.7-0.4v-0.6c0-0.1,0-0.1,0.1-0.1
		c0.4-0.1,0.8-0.1,1.2,0c0.1,0,0.1,0.1,0.1,0.1V26c0.3,0.1,0.5,0.2,0.7,0.4l0.5-0.3c0.1,0,0.1,0,0.2,0c0.3,0.3,0.5,0.7,0.6,1.1
		c0,0.1,0,0.1-0.1,0.2l-0.5,0.3C28.9,27.9,28.9,28.1,28.9,28.4z M35.5,28.3l0.4,0.2c0.1,0,0.1,0.1,0.1,0.1c-0.1,0.4-0.3,0.7-0.6,1
		c0,0-0.1,0.1-0.1,0l-0.4-0.2c-0.2,0.2-0.4,0.3-0.6,0.4v0.5c0,0.1,0,0.1-0.1,0.1c-0.3,0.1-0.7,0.1-1.1,0c-0.1,0-0.1-0.1-0.1-0.1
		v-0.5c-0.2-0.1-0.4-0.2-0.6-0.4L32,29.6h-0.1c-0.2-0.3-0.4-0.6-0.6-1c0-0.1,0-0.1,0.1-0.1l0.4-0.3c0-0.2,0-0.5,0-0.7l-0.4-0.2
		l-0.1-0.1c0.1-0.4,0.3-0.7,0.6-1c0,0,0.1-0.1,0.1,0l0.4,0.2c0.2-0.2,0.4-0.3,0.6-0.4v-0.5c0-0.1,0-0.1,0.1-0.1
		c0.4-0.1,0.7-0.1,1.1,0c0.1,0,0.1,0.1,0.1,0.1V26c0.2,0.1,0.4,0.2,0.6,0.4l0.4-0.2c0.1,0,0.1,0,0.1,0c0.3,0.3,0.4,0.6,0.6,1
		c0,0.1,0,0.1-0.1,0.1l-0.4,0.3C35.5,27.9,35.5,28.1,35.5,28.3z M33.6,27.2c-0.4,0-0.8,0.4-0.8,0.8s0.4,0.8,0.8,0.8s0.8-0.4,0.8-0.8
		C34.4,27.5,34,27.2,33.6,27.2z"/>
</g>
</svg>
