<?xml version="1.0" encoding="utf-8"?>
<!-- Generator: Adobe Illustrator 27.1.1, SVG Export Plug-In . SVG Version: 6.00 Build 0)  -->
<svg version="1.1" id="Layer_1" xmlns="http://www.w3.org/2000/svg" xmlns:xlink="http://www.w3.org/1999/xlink" x="0px" y="0px"
	 viewBox="0 0 60 60" style="enable-background:new 0 0 60 60;" xml:space="preserve">
<style type="text/css">
	.st0{opacity:0.3;fill:url(#SVGID_1_);enable-background:new    ;}
	.st1{fill:url(#SVGID_00000072273156397177004530000004580488770431040944_);}
	.st2{fill:#FFFFFF;}
</style>
<radialGradient id="SVGID_1_" cx="30" cy="28.4" r="28.4398" gradientTransform="matrix(1 0 0 -1 0 60)" gradientUnits="userSpaceOnUse">
	<stop  offset="0" style="stop-color:#3D74BA"/>
	<stop  offset="0.9994" style="stop-color:#3D73B9;stop-opacity:0"/>
</radialGradient>
<circle class="st0" cx="30" cy="31.6" r="28.4"/>
<linearGradient id="SVGID_00000109751877460916068160000009862378602193393576_" gradientUnits="userSpaceOnUse" x1="16.07" y1="20.97" x2="43.8968" y2="48.7967" gradientTransform="matrix(1 0 0 -1 0 60)">
	<stop  offset="0" style="stop-color:#3EB8EA"/>
	<stop  offset="1" style="stop-color:#3D71B8"/>
</linearGradient>
<circle style="fill:url(#SVGID_00000109751877460916068160000009862378602193393576_);" cx="30" cy="25.1" r="19.7"/>
<g>
	<g>
		<path class="st2" d="M31.6,17.7c-0.2-0.1-0.5,0-0.6,0.3l-1,2.3c-0.6,0-1.2,0.5-1.2,1.2s0.5,1.2,1.2,1.2s1.2-0.5,1.2-1.2
			c0-0.3-0.1-0.6-0.3-0.8l1-2.4C32,18.1,31.9,17.8,31.6,17.7z M31.6,17.7c-0.2-0.1-0.5,0-0.6,0.3l-1,2.3c-0.6,0-1.2,0.5-1.2,1.2
			s0.5,1.2,1.2,1.2s1.2-0.5,1.2-1.2c0-0.3-0.1-0.6-0.3-0.8l1-2.4C32,18.1,31.9,17.8,31.6,17.7z M31.6,17.7c-0.2-0.1-0.5,0-0.6,0.3
			l-1,2.3c-0.6,0-1.2,0.5-1.2,1.2s0.5,1.2,1.2,1.2s1.2-0.5,1.2-1.2c0-0.3-0.1-0.6-0.3-0.8l1-2.4C32,18.1,31.9,17.8,31.6,17.7z
			 M31.6,17.7c-0.2-0.1-0.5,0-0.6,0.3l-1,2.3c-0.6,0-1.2,0.5-1.2,1.2s0.5,1.2,1.2,1.2s1.2-0.5,1.2-1.2c0-0.3-0.1-0.6-0.3-0.8l1-2.4
			C32,18.1,31.9,17.8,31.6,17.7z M31.6,17.7c-0.2-0.1-0.5,0-0.6,0.3l-1,2.3c-0.6,0-1.2,0.5-1.2,1.2s0.5,1.2,1.2,1.2s1.2-0.5,1.2-1.2
			c0-0.3-0.1-0.6-0.3-0.8l1-2.4C32,18.1,31.9,17.8,31.6,17.7z"/>
		<path class="st2" d="M35.8,16.7h-1.7c-1-1.2-2.4-1.9-4.1-1.9s-3.1,0.8-4.1,1.9h-1.7c-1.1,0-1.9,0.9-1.9,1.9v9.6
			c0,1.1,0.9,1.9,1.9,1.9h11.5c1.1,0,1.9-0.9,1.9-1.9v-9.6C37.7,17.6,36.8,16.7,35.8,16.7z M30,16.3c2.1,0,3.8,1.7,3.8,3.8
			S32.1,24,30,24s-3.8-1.7-3.8-3.9C26.2,18,27.9,16.3,30,16.3z M34.6,28.6c0,0.2-0.2,0.4-0.4,0.4h-2.9c-0.5,0-0.7-0.6-0.4-0.9
			l0.9-0.9c-0.5-0.5-1.2-0.8-2-0.8c-1.3,0-2.5,0.8-2.9,2.1c-0.1,0.3-0.5,0.5-0.8,0.4s-0.5-0.5-0.4-0.8c0.6-1.8,2.2-3,4.1-3
			c1.1,0,2.1,0.4,2.9,1.1l1-1c0.3-0.3,0.9-0.1,0.9,0.4C34.6,25.6,34.6,28.6,34.6,28.6z"/>
	</g>
	<path class="st2" d="M33.5,31.6c-0.3-0.1-0.7,0.1-0.8,0.4c-0.4,1.3-1.6,2.1-2.9,2.1c-0.8,0-1.4-0.3-2-0.8l0.9-0.9
		c0.3-0.3,0.1-0.9-0.4-0.9h-2.9c-0.2,0-0.4,0.2-0.4,0.4v2.9c0,0.5,0.6,0.7,0.9,0.4l1-1c0.8,0.7,1.8,1.1,2.9,1.1c1.9,0,3.5-1.2,4.1-3
		C34,32.1,33.8,31.7,33.5,31.6z"/>
</g>
</svg>
