<?xml version="1.0" encoding="utf-8"?>
<!-- Generator: Adobe Illustrator 27.1.1, SVG Export Plug-In . SVG Version: 6.00 Build 0)  -->
<svg version="1.1" id="Layer_1" xmlns="http://www.w3.org/2000/svg" xmlns:xlink="http://www.w3.org/1999/xlink" x="0px" y="0px"
	 viewBox="0 0 60 60" style="enable-background:new 0 0 60 60;" xml:space="preserve">
<style type="text/css">
	.st0{opacity:0.25;fill:url(#SVGID_1_);enable-background:new    ;}
	.st1{fill:url(#SVGID_00000099651247942600712520000015224182553005936308_);}
	.st2{fill:#FFFFFF;}
</style>
<radialGradient id="SVGID_1_" cx="30" cy="28.4" r="28.4398" gradientTransform="matrix(1 0 0 -1 0 60)" gradientUnits="userSpaceOnUse">
	<stop  offset="0" style="stop-color:#12478E"/>
	<stop  offset="1" style="stop-color:#12478E;stop-opacity:0"/>
</radialGradient>
<circle class="st0" cx="30" cy="31.6" r="28.4"/>
<linearGradient id="SVGID_00000046306037749477629070000005628044773723334827_" gradientUnits="userSpaceOnUse" x1="16.07" y1="20.97" x2="43.8968" y2="48.7967" gradientTransform="matrix(1 0 0 -1 0 60)">
	<stop  offset="0" style="stop-color:#54569E"/>
	<stop  offset="1" style="stop-color:#10478E"/>
</linearGradient>
<circle style="fill:url(#SVGID_00000046306037749477629070000005628044773723334827_);" cx="30" cy="25.1" r="19.7"/>
<path class="st2" d="M38.2,28.7l-1.8-1.1l1.4-0.4c0.4-0.1,0.7-0.6,0.6-1c-0.1-0.4-0.6-0.7-1-0.6l-3,0.8l-1.1-0.6l0.5-0.5
	c0.2-0.2,0.3-0.4,0.2-0.7c-0.1-0.2-0.3-0.4-0.6-0.4h-0.7l1.7-1l3,0.8c0.1,0,0.1,0,0.2,0c0.4,0,0.7-0.2,0.8-0.6s-0.1-0.9-0.6-1
	L36.4,22l1.8-1.1c0.4-0.2,0.5-0.7,0.3-1.1s-0.7-0.5-1.1-0.3l-1.8,1.1l0.4-1.4c0.1-0.4-0.1-0.9-0.6-1c-0.4-0.1-0.9,0.1-1,0.6l-0.8,3
	L31.5,23l1.2-2.9c0.1-0.3,0-0.6-0.2-0.7c-0.2-0.2-0.5-0.1-0.8,0L31,20l1.9-1.9c0.3-0.3,0.3-0.8,0-1.2c-0.3-0.3-0.8-0.3-1.2,0
	L30.8,18v-2.1c0-0.5-0.3-0.8-0.8-0.8c-0.4,0-0.8,0.4-0.8,0.8V18l-1.1-1.1c-0.3-0.3-0.8-0.3-1.2,0c-0.3,0.3-0.3,0.8,0,1.2l2.2,2.2
	v1.4L28,22.8l-1.6-0.9l-0.8-3c-0.1-0.4-0.6-0.7-1-0.6c-0.4,0.2-0.7,0.6-0.6,1l0.4,1.4l-1.8-1.1c-0.4-0.2-0.9-0.1-1.1,0.3
	s-0.1,0.9,0.3,1.1l1.8,1.1l-1.4,0.4c-0.4,0.1-0.7,0.6-0.6,1s0.4,0.6,0.8,0.6c0.1,0,0.1,0,0.2,0l3-0.8l1.1,0.6l-0.5,0.5
	c-0.2,0.2-0.3,0.4-0.2,0.7c0.1,0.2,0.3,0.4,0.6,0.4h0.7l-1.7,1l-3-0.9c-0.4-0.1-0.9,0.2-1,0.6s0.1,0.9,0.6,1l1.4,0.4l-1.8,1.1
	c-0.4,0.2-0.5,0.7-0.3,1.1c0.2,0.3,0.4,0.4,0.7,0.4c0.1,0,0.3,0,0.4-0.1l1.8-1.1L24,30.4c-0.1,0.4,0.1,0.9,0.6,1c0.1,0,0.1,0,0.2,0
	c0.4,0,0.7-0.2,0.8-0.6l0.8-3l2.2-1.2l-1.2,2.9c-0.1,0.3,0,0.6,0.2,0.7c0.1,0.1,0.2,0.1,0.4,0.1c0.1,0,0.3-0.1,0.4-0.2l0.1-0.1
	L27,31.6c-0.3,0.3-0.3,0.8,0,1.2c0.3,0.3,0.8,0.3,1.2,0l1.1-1.1v2.1c0,0.5,0.4,0.8,0.8,0.8c0.5,0,0.8-0.4,0.8-0.8v-2.1l1.1,1.1
	c0,0.2,0.2,0.2,0.4,0.2s0.4-0.1,0.6-0.2c0.3-0.3,0.3-0.8,0-1.2l-2.2-2.2V28l1.2-1l1.6,0.9l0.8,3c0.1,0.4,0.4,0.6,0.8,0.6
	c0.1,0,0.1,0,0.2,0c0.4-0.1,0.7-0.6,0.6-1L35.5,29l1.8,1.1c0.1,0.1,0.3,0.1,0.4,0.1c0.3,0,0.6-0.1,0.7-0.4
	C38.7,29.4,38.6,28.9,38.2,28.7z M31.9,25.1l-2.8,3.2c-0.1,0.1-0.2,0.1-0.3,0.1c-0.1,0-0.2,0-0.3-0.1c-0.2-0.1-0.2-0.4,0-0.6
	l2.2-2.5h-2.3c-0.2,0-0.3-0.1-0.4-0.2s0-0.3,0.1-0.4l2.8-3.2c0.1-0.2,0.4-0.2,0.6,0c0.2,0.1,0.2,0.4,0,0.6l-2.2,2.5h2.3
	c0.2,0,0.3,0.1,0.4,0.2C32,24.8,32,25,31.9,25.1z"/>
</svg>
