<?xml version="1.0" encoding="utf-8"?>
<!-- Generator: Adobe Illustrator 27.1.1, SVG Export Plug-In . SVG Version: 6.00 Build 0)  -->
<svg version="1.1" id="Layer_1" xmlns="http://www.w3.org/2000/svg" xmlns:xlink="http://www.w3.org/1999/xlink" x="0px" y="0px"
	 viewBox="0 0 60 60" style="enable-background:new 0 0 60 60;" xml:space="preserve">
<style type="text/css">
	.st0{opacity:0.6;fill:url(#SVGID_1_);enable-background:new    ;}
	.st1{fill:url(#SVGID_00000063600425281252455590000000579513134138478993_);}
	.st2{fill:#FFFFFF;}
</style>
<radialGradient id="SVGID_1_" cx="30" cy="31.6" r="28.4398" gradientUnits="userSpaceOnUse">
	<stop  offset="0" style="stop-color:#9B4397"/>
	<stop  offset="0.1147" style="stop-color:#9E499A;stop-opacity:0.8853"/>
	<stop  offset="0.2651" style="stop-color:#A759A3;stop-opacity:0.7349"/>
	<stop  offset="0.4355" style="stop-color:#B574B2;stop-opacity:0.5645"/>
	<stop  offset="0.6206" style="stop-color:#C99AC7;stop-opacity:0.3794"/>
	<stop  offset="0.8152" style="stop-color:#E3CAE2;stop-opacity:0.1848"/>
	<stop  offset="1" style="stop-color:#FFFFFF;stop-opacity:0"/>
</radialGradient>
<circle class="st0" cx="30" cy="31.6" r="28.4"/>
<linearGradient id="SVGID_00000020380412663727808570000011567966592149807242_" gradientUnits="userSpaceOnUse" x1="16.07" y1="39.03" x2="43.8968" y2="11.2033">
	<stop  offset="0" style="stop-color:#EE2980"/>
	<stop  offset="1" style="stop-color:#964598"/>
</linearGradient>
<circle style="fill:url(#SVGID_00000020380412663727808570000011567966592149807242_);" cx="30" cy="25.1" r="19.7"/>
<g>
	<path class="st2" d="M31.4,25.1c0,0.6-0.5,1.1-1.1,1.1s-1.1-0.5-1.1-1.1s0.5-1.1,1.1-1.1S31.4,24.5,31.4,25.1z"/>
	<path class="st2" d="M36.8,22.2l-2.5-2c-0.3-0.2-0.7-0.4-1.1-0.4h-2.7v-1.1h2.3c0.5,0,0.8-0.4,0.8-0.8c0-0.5-0.4-0.8-0.8-0.8h-6.2
		c-0.5,0-0.8,0.4-0.8,0.8c0,0.5,0.4,0.8,0.8,0.8h2.3v1.1h-5.3c-0.9,0-1.7,0.8-1.7,1.7v1.4h-1.1v-2.8c0-0.5-0.4-0.8-0.8-0.8
		s-1,0.3-1,0.8v7.3c0,0.5,0.4,0.8,0.8,0.8s0.8-0.4,0.8-0.8v-2.8h1.1v2c0,0.9,0.8,1.7,1.7,1.7H25l1.8,1.8c0.3,0.3,0.7,0.5,1.2,0.5
		h7.4c0.9,0,1.7-0.8,1.7-1.7v-6.2C37,22.4,36.9,22.3,36.8,22.2z M32.8,27.4c-0.1,0.1-0.1,0.1-0.2,0L32,27.1
		c-0.3,0.2-0.5,0.4-0.8,0.5v0.7c0,0.1-0.1,0.1-0.1,0.2c-0.5,0.1-1,0.1-1.5,0c-0.1,0-0.1-0.1-0.1-0.2v-0.7c-0.3-0.1-0.6-0.3-0.8-0.5
		L28,27.4c-0.1,0-0.2,0-0.2,0c-0.3-0.4-0.6-0.8-0.8-1.3c0-0.1,0-0.2,0.1-0.2l0.6-0.3c-0.1-0.3-0.1-0.7,0-1l-0.6-0.3
		c-0.1,0-0.1-0.1-0.1-0.2c0.2-0.5,0.4-0.9,0.8-1.3c0.1-0.1,0.1-0.1,0.2,0l0.6,0.3c0.2-0.2,0.5-0.4,0.8-0.5v-0.7
		c0-0.1,0.1-0.1,0.1-0.2c0.5-0.1,1-0.1,1.5,0c0.1,0,0.1,0.1,0.1,0.2v0.7c0.3,0.1,0.6,0.3,0.8,0.5l0.6-0.3c0.1,0,0.2,0,0.2,0
		c0.3,0.4,0.6,0.8,0.8,1.3c0,0.1,0,0.2-0.1,0.2l-0.6,0.3c0.1,0.3,0.1,0.6,0,1l0.6,0.3c0.1,0,0.1,0.1,0.1,0.2
		C33.4,26.6,33.1,27,32.8,27.4z"/>
	<path class="st2" d="M41.5,22.6v6.8c0,0.6-0.5,1.1-1.1,1.1h-1.1c-0.6,0-1.1-0.5-1.1-1.1v-6.8c0-0.6,0.5-1.1,1.1-1.1h1.1
		C41,21.5,41.5,22,41.5,22.6z"/>
</g>
</svg>
