<?xml version="1.0" encoding="utf-8"?>
<!-- Generator: Adobe Illustrator 27.1.1, SVG Export Plug-In . SVG Version: 6.00 Build 0)  -->
<svg version="1.1" id="Layer_1" xmlns="http://www.w3.org/2000/svg" xmlns:xlink="http://www.w3.org/1999/xlink" x="0px" y="0px"
	 viewBox="0 0 60 60" style="enable-background:new 0 0 60 60;" xml:space="preserve">
<style type="text/css">
	.st0{opacity:0.3;fill:url(#SVGID_1_);enable-background:new    ;}
	.st1{fill:url(#SVGID_00000140717924568854466100000014705177624446915234_);}
	.st2{fill:#FFFFFF;}
</style>
<radialGradient id="SVGID_1_" cx="30" cy="28.4" r="28.4398" gradientTransform="matrix(1 0 0 -1 0 60)" gradientUnits="userSpaceOnUse">
	<stop  offset="0" style="stop-color:#ED4F82"/>
	<stop  offset="1" style="stop-color:#ED4E82;stop-opacity:0"/>
</radialGradient>
<circle class="st0" cx="30" cy="31.6" r="28.4"/>
<linearGradient id="SVGID_00000180359283610907636780000018047206198633832883_" gradientUnits="userSpaceOnUse" x1="16.07" y1="20.97" x2="43.8968" y2="48.7967" gradientTransform="matrix(1 0 0 -1 0 60)">
	<stop  offset="1.065558e-08" style="stop-color:#F28482"/>
	<stop  offset="1" style="stop-color:#ED4D82"/>
</linearGradient>
<circle style="fill:url(#SVGID_00000180359283610907636780000018047206198633832883_);" cx="30" cy="25.1" r="19.7"/>
<path class="st2" d="M34,31.3H22.6c-0.3,0-0.6,0.3-0.6,0.6V33c0,0.3,0.3,0.6,0.6,0.6H34c0.3,0,0.6-0.3,0.6-0.6v-1.1
	C34.5,31.5,34.3,31.3,34,31.3z M39.5,19.2l-2.9-2.9c-0.2-0.2-0.6-0.2-0.8,0l-0.4,0.4c-0.2,0.2-0.2,0.6,0,0.8l1.3,1.3V21
	c0,1,0.7,1.8,1.7,2v5.7c0,0.5-0.4,0.9-0.9,0.9s-0.9-0.4-0.9-0.9v-1.1c0-1.7-1.4-3.1-3.1-3.1h-0.3v-6.8c0-1.2-1-2.3-2.3-2.3h-5.7
	c-1.2,0-2.3,1-2.3,2.3v12.5h10.2v-4h0.3c0.8,0,1.4,0.6,1.4,1.4v1c0,1.3,1,2.6,2.3,2.7c1.5,0.2,2.8-1,2.8-2.5v-7.9
	C40.2,20.2,40,19.6,39.5,19.2z M31.1,22.2h-5.7v-4.5H31L31.1,22.2L31.1,22.2z"/>
</svg>
