<?xml version="1.0" encoding="utf-8"?>
<!-- Generator: Adobe Illustrator 27.1.1, SVG Export Plug-In . SVG Version: 6.00 Build 0)  -->
<svg version="1.1" id="Layer_1" xmlns="http://www.w3.org/2000/svg" xmlns:xlink="http://www.w3.org/1999/xlink" x="0px" y="0px"
	 viewBox="0 0 60 60" style="enable-background:new 0 0 60 60;" xml:space="preserve">
<style type="text/css">
	.st0{opacity:0.6;fill:url(#SVGID_1_);}
	.st1{fill:url(#SVGID_00000138539842396483976470000002897768510459674549_);}
	.st2{fill:url(#SVGID_00000132072403389984422820000001877662876562983867_);}
	.st3{fill:url(#SVGID_00000149375760664075442680000009718705653355356293_);}
	.st4{fill:url(#SVGID_00000155118101559200066630000009564071214978657177_);}
	.st5{fill:url(#SVGID_00000160899730425387385440000007780164572366710693_);}
	.st6{fill:url(#SVGID_00000029045710604052543980000015379250204915937164_);}
	.st7{fill:#FFFFFF;}
</style>
<radialGradient id="SVGID_1_" cx="30" cy="31.5735" r="28.4265" gradientUnits="userSpaceOnUse">
	<stop  offset="0" style="stop-color:#874D9E"/>
	<stop  offset="0.1963" style="stop-color:#A077B4"/>
	<stop  offset="0.3979" style="stop-color:#BB9FCC"/>
	<stop  offset="0.5862" style="stop-color:#D5C5E1"/>
	<stop  offset="0.7553" style="stop-color:#E9E2F0"/>
	<stop  offset="0.8989" style="stop-color:#F7F5FA"/>
	<stop  offset="1" style="stop-color:#FFFFFF"/>
</radialGradient>
<circle class="st0" cx="30" cy="31.6" r="28.4"/>
<linearGradient id="SVGID_00000130632255184269698360000004875227499225953723_" gradientUnits="userSpaceOnUse" x1="16.0866" y1="39.0102" x2="43.9134" y2="11.1835">
	<stop  offset="0" style="stop-color:#BF499B"/>
	<stop  offset="1" style="stop-color:#844D9E"/>
</linearGradient>
<circle style="fill:url(#SVGID_00000130632255184269698360000004875227499225953723_);" cx="30" cy="25.1" r="19.7"/>
<linearGradient id="SVGID_00000155830303166821789790000001707537649699753649_" gradientUnits="userSpaceOnUse" x1="-121.5354" y1="-45.782" x2="-93.7087" y2="-73.6087">
	<stop  offset="1.065558e-08" style="stop-color:#F28482"/>
	<stop  offset="1" style="stop-color:#ED4D82"/>
</linearGradient>
<circle style="fill:url(#SVGID_00000155830303166821789790000001707537649699753649_);" cx="-107.6" cy="-59.7" r="19.7"/>
<linearGradient id="SVGID_00000072967373035356404630000010895127918008494523_" gradientUnits="userSpaceOnUse" x1="-121.5354" y1="2.2353" x2="-93.7087" y2="-25.5915">
	<stop  offset="0" style="stop-color:#8AC640"/>
	<stop  offset="1" style="stop-color:#44B973"/>
</linearGradient>
<circle style="fill:url(#SVGID_00000072967373035356404630000010895127918008494523_);" cx="-107.6" cy="-11.7" r="19.7"/>
<linearGradient id="SVGID_00000013176218870280612160000012025902510365461656_" gradientUnits="userSpaceOnUse" x1="-121.5354" y1="50.2525" x2="-93.7087" y2="22.4258">
	<stop  offset="0" style="stop-color:#BF499B"/>
	<stop  offset="1" style="stop-color:#844D9E"/>
</linearGradient>
<circle style="fill:url(#SVGID_00000013176218870280612160000012025902510365461656_);" cx="-107.6" cy="36.3" r="19.7"/>
<linearGradient id="SVGID_00000091011164691132593480000001559339546221438604_" gradientUnits="userSpaceOnUse" x1="-121.5354" y1="98.2698" x2="-93.7087" y2="70.4431">
	<stop  offset="0" style="stop-color:#8EC8ED"/>
	<stop  offset="1" style="stop-color:#4CA4DB"/>
</linearGradient>
<circle style="fill:url(#SVGID_00000091011164691132593480000001559339546221438604_);" cx="-107.6" cy="84.4" r="19.7"/>
<linearGradient id="SVGID_00000111178320236130304070000010359046380905907102_" gradientUnits="userSpaceOnUse" x1="-121.5354" y1="146.287" x2="-93.7087" y2="118.4603">
	<stop  offset="0" style="stop-color:#3EB8EA"/>
	<stop  offset="1" style="stop-color:#3D71B8"/>
</linearGradient>
<circle style="fill:url(#SVGID_00000111178320236130304070000010359046380905907102_);" cx="-107.6" cy="132.4" r="19.7"/>
<g>
	<path class="st7" d="M24.4,16.6c0,0.2,0,0.3-0.1,0.5c-0.3,2.7,1.5,5.2,4.2,5.7c0.5,0.1,0.9,0.1,1.4,0.1c0.9,0,1.9,0,2.8,0.3
		c4.4,1.4,6,7,3,10.5c0,0-0.1,0.1-0.1,0.2c0-0.1,0-0.2,0-0.3c0.4-2.6-1.3-5.2-3.8-5.8c-0.5-0.1-0.9-0.1-1.4-0.2
		c-0.7,0-1.4,0-2.1-0.1c-2.7-0.4-5-2.7-5.4-5.4c-0.3-2,0.2-3.7,1.4-5.3C24.3,16.7,24.4,16.7,24.4,16.6z"/>
	<path class="st7" d="M28.3,21.7c-0.7-0.3-1.2-0.7-1.7-1.2c-0.9-1-1.4-2.2-1.3-3.5c0-0.9,0.4-1.7,1.2-2.2c0.7-0.5,1.5-0.7,2.3-0.8
		c0.4,0,0.8-0.1,1.3-0.1c1.1,0,2.3,0,3.4,0c0.7,0,1.4,0.1,2,0.5c0.8,0.5,1.2,1.2,1.5,2c0.2,0.7,0.3,1.4,0.3,2.1c0,0,0,0.1,0,0.1
		c-0.1,0-0.2,0-0.2,0c-2.4,0-4.7,0-7.1,0c-0.8,0-1.4,0.3-1.8,1C27.8,20.3,27.8,21,28.3,21.7C28.3,21.7,28.3,21.7,28.3,21.7z"/>
	<path class="st7" d="M22.6,31.6c0.1,0,0.2,0,0.2,0c2.4,0,4.8,0,7.1,0c1.1,0,2-0.9,1.9-2c0-0.4-0.2-0.7-0.4-1c0.1,0,0.1,0,0.2,0
		c1.9,0.8,3,2.7,2.9,4.7c-0.1,1-0.6,1.8-1.5,2.3c-0.7,0.4-1.5,0.6-2.4,0.7c-1.5,0-3.1,0-4.6,0c-0.2,0-0.5,0-0.7-0.1
		c-1.1-0.2-1.9-0.9-2.3-1.9C22.8,33.5,22.6,32.6,22.6,31.6z"/>
</g>
</svg>
