<?xml version="1.0" encoding="utf-8"?>
<!-- Generator: Adobe Illustrator 27.1.1, SVG Export Plug-In . SVG Version: 6.00 Build 0)  -->
<svg version="1.1" id="Layer_1" xmlns="http://www.w3.org/2000/svg" xmlns:xlink="http://www.w3.org/1999/xlink" x="0px" y="0px"
	 viewBox="0 0 60 60" style="enable-background:new 0 0 60 60;" xml:space="preserve">
<style type="text/css">
	.st0{opacity:0.6;fill:url(#SVGID_1_);enable-background:new    ;}
	.st1{fill:url(#SVGID_00000051366297826821769300000011559162764031982761_);}
	.st2{fill:#FFFFFF;}
</style>
<radialGradient id="SVGID_1_" cx="30" cy="31.6" r="28.4398" gradientUnits="userSpaceOnUse">
	<stop  offset="0" style="stop-color:#864D9E"/>
	<stop  offset="0.1186" style="stop-color:#8A53A1;stop-opacity:0.8814"/>
	<stop  offset="0.2743" style="stop-color:#9563AA;stop-opacity:0.7257"/>
	<stop  offset="0.4505" style="stop-color:#A87EB9;stop-opacity:0.5495"/>
	<stop  offset="0.6419" style="stop-color:#C1A4CE;stop-opacity:0.3581"/>
	<stop  offset="0.8433" style="stop-color:#E2D4E8;stop-opacity:0.1567"/>
	<stop  offset="1" style="stop-color:#FFFFFF;stop-opacity:0"/>
</radialGradient>
<circle class="st0" cx="30" cy="31.6" r="28.4"/>
<linearGradient id="SVGID_00000142144920826321288720000002906055012001293758_" gradientUnits="userSpaceOnUse" x1="16.07" y1="39.03" x2="43.8968" y2="11.2033">
	<stop  offset="0" style="stop-color:#BF499B"/>
	<stop  offset="1" style="stop-color:#844D9E"/>
</linearGradient>
<circle style="fill:url(#SVGID_00000142144920826321288720000002906055012001293758_);" cx="30" cy="25.1" r="19.7"/>
<g>
	<path class="st2" d="M30,14c-5.2,0-9.5,4.2-9.5,9.5c0,1.7,0.5,3.4,1.3,4.8c0.2,0.3,0.5,0.5,0.9,0.5h14.6c0.4,0,0.7-0.2,0.9-0.5
		c0.8-1.4,1.3-3,1.3-4.8C39.5,18.3,35.2,14,30,14z M30,16.1c0.6,0,1.1,0.5,1.1,1.1s-0.5,1.1-1.1,1.1s-1.1-0.5-1.1-1.1
		S29.4,16.1,30,16.1z M23.7,25.6c-0.6,0-1.1-0.5-1.1-1.1s0.5-1.1,1.1-1.1s1.1,0.5,1.1,1.1C24.7,25.1,24.3,25.6,23.7,25.6z
		 M31.8,26.7h-3.6c-0.2-0.3-0.3-0.7-0.3-1.1s0.1-0.8,0.3-1.1l-3.6-4.8c-0.3-0.3-0.2-0.8,0.2-1.1c0.3-0.3,0.8-0.2,1.1,0.2l3.6,4.8
		c0.2,0,0.4-0.1,0.5-0.1c1.2,0,2.1,0.9,2.1,2.1C32.1,26,32,26.4,31.8,26.7z M33.7,19.3c0-0.6,0.5-1.1,1.1-1.1s1.1,0.5,1.1,1.1
		s-0.5,1.1-1.1,1.1C34.2,20.3,33.7,19.9,33.7,19.3z M36.3,25.6c-0.6,0-1.1-0.5-1.1-1.1s0.5-1.1,1.1-1.1s1.1,0.5,1.1,1.1
		C37.4,25.1,36.9,25.6,36.3,25.6z"/>
	<path class="st2" d="M37.8,33.4c0,0.2-0.1,0.3-0.3,0.3h-1v1.6c0,0.2-0.2,0.4-0.4,0.4h-1.5c-0.2,0-0.4-0.2-0.4-0.4v-3.5h-1v1.6
		c0,0.1,0,0.2-0.1,0.2c-0.1,0.1-0.2,0.1-0.3,0.1H32v1.6c0,0.2-0.2,0.4-0.4,0.4h-1.5c-0.2,0-0.4-0.2-0.4-0.4v-3.5h-1v1.6
		c0,0.2-0.2,0.4-0.4,0.4h-1.1v1.6c0,0.2-0.2,0.4-0.4,0.4h-1.5c-0.2,0-0.4-0.2-0.4-0.4v-3.5h-1v1.6c0,0.2-0.2,0.4-0.4,0.4h-1.3
		c-0.2,0-0.3-0.1-0.3-0.3s0.1-0.3,0.3-0.3h1v-1.6c0-0.2,0.2-0.4,0.4-0.4h1.5c0.2,0,0.4,0.2,0.4,0.4v3.5h1v-1.6
		c0-0.2,0.2-0.4,0.4-0.4H28v-1.6c0-0.2,0.2-0.4,0.4-0.4H30c0.2,0,0.4,0.2,0.4,0.4v3.5h1v-1.6c0-0.1,0-0.1,0-0.2l0,0
		c0.1-0.1,0.2-0.2,0.3-0.2h0.9v-1.6c0-0.2,0.2-0.4,0.4-0.4h1.5c0.2,0,0.4,0.2,0.4,0.4V35h1v-1.6c0-0.2,0.2-0.4,0.4-0.4h1.3
		C37.7,33.1,37.8,33.3,37.8,33.4z"/>
</g>
</svg>
