<?xml version="1.0" encoding="utf-8"?>
<!-- Generator: Adobe Illustrator 27.1.1, SVG Export Plug-In . SVG Version: 6.00 Build 0)  -->
<svg version="1.1" id="Layer_1" xmlns="http://www.w3.org/2000/svg" xmlns:xlink="http://www.w3.org/1999/xlink" x="0px" y="0px"
	 viewBox="0 0 60 60" style="enable-background:new 0 0 60 60;" xml:space="preserve">
<style type="text/css">
	.st0{opacity:0.6;fill:url(#SVGID_1_);}
	.st1{fill:url(#SVGID_00000089559162750506949040000014236754464405904547_);}
	.st2{fill:url(#SVGID_00000075873712823624273510000010837332307390463672_);}
	.st3{fill:url(#SVGID_00000093868997908513936390000001114627802797527996_);}
	.st4{fill:url(#SVGID_00000041979131116155818960000009005779309123125898_);}
	.st5{fill:url(#SVGID_00000132076125102254918900000009487739156977704356_);}
	.st6{fill:url(#SVGID_00000133511425247798409260000001013627026657328824_);}
	.st7{fill:#FFFFFF;}
</style>
<radialGradient id="SVGID_1_" cx="30" cy="31.5735" r="28.4265" gradientUnits="userSpaceOnUse">
	<stop  offset="0" style="stop-color:#4CA5DC"/>
	<stop  offset="5.608290e-02" style="stop-color:#5DAADE"/>
	<stop  offset="0.2932" style="stop-color:#97C3E8"/>
	<stop  offset="0.5142" style="stop-color:#C2DAF1"/>
	<stop  offset="0.7126" style="stop-color:#E1EBF8"/>
	<stop  offset="0.8812" style="stop-color:#F5F8FD"/>
	<stop  offset="1" style="stop-color:#FFFFFF"/>
</radialGradient>
<circle class="st0" cx="30" cy="31.6" r="28.4"/>
<linearGradient id="SVGID_00000153671792099035820620000009782163530056189576_" gradientUnits="userSpaceOnUse" x1="16.0866" y1="39.0102" x2="43.9134" y2="11.1835">
	<stop  offset="0" style="stop-color:#8EC8ED"/>
	<stop  offset="1" style="stop-color:#4CA4DB"/>
</linearGradient>
<circle style="fill:url(#SVGID_00000153671792099035820620000009782163530056189576_);" cx="30" cy="25.1" r="19.7"/>
<linearGradient id="SVGID_00000003069102454562489100000010381192430285453993_" gradientUnits="userSpaceOnUse" x1="-121.5354" y1="-45.782" x2="-93.7087" y2="-73.6087">
	<stop  offset="1.065558e-08" style="stop-color:#F28482"/>
	<stop  offset="1" style="stop-color:#ED4D82"/>
</linearGradient>
<circle style="fill:url(#SVGID_00000003069102454562489100000010381192430285453993_);" cx="-107.6" cy="-59.7" r="19.7"/>
<linearGradient id="SVGID_00000071551398514306426530000012868586724791615919_" gradientUnits="userSpaceOnUse" x1="-121.5354" y1="2.2353" x2="-93.7087" y2="-25.5915">
	<stop  offset="0" style="stop-color:#8AC640"/>
	<stop  offset="1" style="stop-color:#44B973"/>
</linearGradient>
<circle style="fill:url(#SVGID_00000071551398514306426530000012868586724791615919_);" cx="-107.6" cy="-11.7" r="19.7"/>
<linearGradient id="SVGID_00000123433341090397860450000014185438280478630316_" gradientUnits="userSpaceOnUse" x1="-121.5354" y1="50.2525" x2="-93.7087" y2="22.4258">
	<stop  offset="0" style="stop-color:#BF499B"/>
	<stop  offset="1" style="stop-color:#844D9E"/>
</linearGradient>
<circle style="fill:url(#SVGID_00000123433341090397860450000014185438280478630316_);" cx="-107.6" cy="36.3" r="19.7"/>
<linearGradient id="SVGID_00000114786375249443303380000001092261011899721388_" gradientUnits="userSpaceOnUse" x1="-121.5354" y1="98.2698" x2="-93.7087" y2="70.4431">
	<stop  offset="0" style="stop-color:#8EC8ED"/>
	<stop  offset="1" style="stop-color:#4CA4DB"/>
</linearGradient>
<circle style="fill:url(#SVGID_00000114786375249443303380000001092261011899721388_);" cx="-107.6" cy="84.4" r="19.7"/>
<linearGradient id="SVGID_00000040535662635128922220000015115856181419694778_" gradientUnits="userSpaceOnUse" x1="-121.5354" y1="146.287" x2="-93.7087" y2="118.4603">
	<stop  offset="0" style="stop-color:#3EB8EA"/>
	<stop  offset="1" style="stop-color:#3D71B8"/>
</linearGradient>
<circle style="fill:url(#SVGID_00000040535662635128922220000015115856181419694778_);" cx="-107.6" cy="132.4" r="19.7"/>
<g>
	<path class="st7" d="M24.4,16.6c0,0.2,0,0.3-0.1,0.5c-0.3,2.7,1.5,5.2,4.2,5.7c0.5,0.1,0.9,0.1,1.4,0.1c0.9,0,1.9,0,2.8,0.3
		c4.4,1.4,6,7,3,10.5c0,0-0.1,0.1-0.1,0.2c0-0.1,0-0.2,0-0.3c0.4-2.6-1.3-5.2-3.8-5.8c-0.5-0.1-0.9-0.1-1.4-0.2
		c-0.7,0-1.4,0-2.1-0.1c-2.7-0.4-5-2.7-5.4-5.4c-0.3-2,0.2-3.7,1.4-5.3C24.3,16.7,24.4,16.7,24.4,16.6z"/>
	<path class="st7" d="M28.3,21.7c-0.7-0.3-1.2-0.7-1.7-1.2c-0.9-1-1.4-2.2-1.3-3.5c0-0.9,0.4-1.7,1.2-2.2c0.7-0.5,1.5-0.7,2.3-0.8
		c0.4,0,0.8-0.1,1.3-0.1c1.1,0,2.3,0,3.4,0c0.7,0,1.4,0.1,2,0.5c0.8,0.5,1.2,1.2,1.5,2c0.2,0.7,0.3,1.4,0.3,2.1c0,0,0,0.1,0,0.1
		c-0.1,0-0.2,0-0.2,0c-2.4,0-4.7,0-7.1,0c-0.8,0-1.4,0.3-1.8,1C27.8,20.3,27.8,21,28.3,21.7C28.3,21.7,28.3,21.7,28.3,21.7z"/>
	<path class="st7" d="M22.6,31.6c0.1,0,0.2,0,0.2,0c2.4,0,4.8,0,7.1,0c1.1,0,2-0.9,1.9-2c0-0.4-0.2-0.7-0.4-1c0.1,0,0.1,0,0.2,0
		c1.9,0.8,3,2.7,2.9,4.7c-0.1,1-0.6,1.8-1.5,2.3c-0.7,0.4-1.5,0.6-2.4,0.7c-1.5,0-3.1,0-4.6,0c-0.2,0-0.5,0-0.7-0.1
		c-1.1-0.2-1.9-0.9-2.3-1.9C22.8,33.5,22.6,32.6,22.6,31.6z"/>
</g>
</svg>
