<?xml version="1.0" encoding="utf-8"?>
<!-- Generator: Adobe Illustrator 27.1.1, SVG Export Plug-In . SVG Version: 6.00 Build 0)  -->
<svg version="1.1" id="Layer_1" xmlns="http://www.w3.org/2000/svg" xmlns:xlink="http://www.w3.org/1999/xlink" x="0px" y="0px"
	 viewBox="0 0 60 60" style="enable-background:new 0 0 60 60;" xml:space="preserve">
<style type="text/css">
	.st0{opacity:0.6;fill:url(#SVGID_1_);enable-background:new    ;}
	.st1{fill:url(#SVGID_00000132073455675254937930000017476967579344594083_);}
	.st2{fill:#FFFFFF;}
</style>
<radialGradient id="SVGID_1_" cx="30" cy="31.6" r="28.4398" gradientUnits="userSpaceOnUse">
	<stop  offset="0" style="stop-color:#3D73BA"/>
	<stop  offset="0.1124" style="stop-color:#4377BC;stop-opacity:0.8876"/>
	<stop  offset="0.26" style="stop-color:#5383C2;stop-opacity:0.74"/>
	<stop  offset="0.4271" style="stop-color:#6E97CC;stop-opacity:0.5729"/>
	<stop  offset="0.6086" style="stop-color:#94B2D9;stop-opacity:0.3914"/>
	<stop  offset="0.8017" style="stop-color:#C5D5EA;stop-opacity:0.1983"/>
	<stop  offset="1" style="stop-color:#FFFFFF;stop-opacity:0"/>
</radialGradient>
<circle class="st0" cx="30" cy="31.6" r="28.4"/>
<linearGradient id="SVGID_00000140703175498691761100000002373997816174890639_" gradientUnits="userSpaceOnUse" x1="16.07" y1="39.03" x2="43.8968" y2="11.2033">
	<stop  offset="0" style="stop-color:#3EB8EA"/>
	<stop  offset="1" style="stop-color:#3D71B8"/>
</linearGradient>
<circle style="fill:url(#SVGID_00000140703175498691761100000002373997816174890639_);" cx="30" cy="25.1" r="19.7"/>
<path class="st2" d="M38,29.7c-0.1,0.2-0.3,0.3-0.5,0.3c-0.1,0-0.2,0-0.3-0.1l-2.3-1.3l0.5,1.8c0.1,0.3-0.1,0.6-0.4,0.7
	c-0.1,0-0.1,0-0.1,0c-0.3,0-0.5-0.2-0.6-0.4l-0.8-2.9l-2.9-1.7v3.4l2.1,2.1c0.2,0.2,0.2,0.6,0,0.8c-0.1,0.1-0.3,0.2-0.4,0.2
	c-0.2,0-0.3-0.1-0.4-0.2l-1.3-1.3v2.6c0,0.3-0.3,0.6-0.6,0.6s-0.6-0.3-0.6-0.6v-2.6l-1.3,1.3c-0.2,0.2-0.6,0.2-0.8,0
	c-0.2-0.2-0.2-0.6,0-0.8l2.1-2.1v-3.4l-2.9,1.7l-0.8,2.9c-0.1,0.3-0.3,0.4-0.6,0.4H25c-0.3-0.1-0.5-0.4-0.4-0.7l0.5-1.8l-2.3,1.3
	C22.7,30,22.6,30,22.5,30c-0.2,0-0.4-0.1-0.5-0.3c-0.2-0.3-0.1-0.6,0.2-0.8l2.3-1.3l-1.8-0.5c-0.3-0.1-0.5-0.4-0.4-0.7
	c0.1-0.3,0.4-0.5,0.7-0.4l2.9,0.8l2.9-1.7l-2.9-1.7L23,24.2c-0.1,0-0.1,0-0.1,0c-0.3,0-0.5-0.2-0.6-0.4c-0.1-0.3,0.1-0.6,0.4-0.7
	l1.8-0.5l-2.3-1.3c-0.3-0.2-0.4-0.5-0.2-0.8c0.2-0.3,0.5-0.4,0.8-0.2l2.3,1.3l-0.5-1.8c-0.1-0.3,0.1-0.6,0.4-0.7s0.6,0.1,0.7,0.4
	l0.8,2.9l2.9,1.7v-3.4l-2.1-2.1c-0.2-0.2-0.2-0.6,0-0.8s0.6-0.2,0.8,0l1.3,1.3v-2.6c0-0.3,0.3-0.6,0.6-0.6c0.3,0,0.6,0.3,0.6,0.6
	v2.6l1.3-1.3c0.2-0.2,0.6-0.2,0.8,0s0.2,0.6,0,0.8l-2.1,2.1v3.4l2.9-1.7l0.8-2.9c0.1-0.3,0.4-0.5,0.7-0.4s0.5,0.4,0.4,0.7l-0.5,1.8
	l2.3-1.3c0.3-0.2,0.6-0.1,0.8,0.2c0.2,0.3,0.1,0.6-0.2,0.8l-2.3,1.3l1.8,0.5c0.3,0.1,0.5,0.4,0.4,0.7c-0.1,0.3-0.3,0.4-0.6,0.4H37
	l-2.9-0.8l-3,1.7l2.9,1.7l3-0.8c0.3-0.1,0.6,0.1,0.7,0.4c0.1,0.3-0.1,0.6-0.4,0.7l-1.8,0.5l2.3,1.3C38.1,29.1,38.2,29.4,38,29.7z"/>
</svg>
