<?xml version="1.0" encoding="utf-8"?>
<!-- Generator: Adobe Illustrator 27.1.1, SVG Export Plug-In . SVG Version: 6.00 Build 0)  -->
<svg version="1.1" id="Layer_1" xmlns="http://www.w3.org/2000/svg" xmlns:xlink="http://www.w3.org/1999/xlink" x="0px" y="0px"
	 viewBox="0 0 60 60" style="enable-background:new 0 0 60 60;" xml:space="preserve">
<style type="text/css">
	.st0{opacity:0.6;fill:url(#SVGID_1_);}
	.st1{fill:url(#SVGID_00000166668670967719355840000003719425034840050078_);}
	.st2{fill:url(#SVGID_00000057144859393077387190000006006033348714245030_);}
	.st3{fill:url(#SVGID_00000054946971573360622400000012780920358755189385_);}
	.st4{fill:url(#SVGID_00000147194449847511840140000015417630720225359016_);}
	.st5{fill:url(#SVGID_00000111895627130143787940000005633533465248813445_);}
	.st6{fill:url(#SVGID_00000055684042014046611730000016945747690263539855_);}
	.st7{fill:#FFFFFF;}
</style>
<radialGradient id="SVGID_1_" cx="30" cy="31.5735" r="28.4265" gradientUnits="userSpaceOnUse">
	<stop  offset="0" style="stop-color:#ED4D82"/>
	<stop  offset="0.2056" style="stop-color:#F285A0"/>
	<stop  offset="0.4069" style="stop-color:#F6AEBD"/>
	<stop  offset="0.5924" style="stop-color:#FAD0D7"/>
	<stop  offset="0.7589" style="stop-color:#FDE8EA"/>
	<stop  offset="0.9004" style="stop-color:#FEF7F8"/>
	<stop  offset="1" style="stop-color:#FFFFFF"/>
</radialGradient>
<circle class="st0" cx="30" cy="31.6" r="28.4"/>
<linearGradient id="SVGID_00000033363139351548598680000018102462184110473138_" gradientUnits="userSpaceOnUse" x1="16.0866" y1="39.0102" x2="43.9134" y2="11.1835">
	<stop  offset="1.065558e-08" style="stop-color:#F28482"/>
	<stop  offset="1" style="stop-color:#ED4D82"/>
</linearGradient>
<circle style="fill:url(#SVGID_00000033363139351548598680000018102462184110473138_);" cx="30" cy="25.1" r="19.7"/>
<linearGradient id="SVGID_00000167374121140936375280000007480753157596730556_" gradientUnits="userSpaceOnUse" x1="-121.5354" y1="-45.782" x2="-93.7087" y2="-73.6087">
	<stop  offset="1.065558e-08" style="stop-color:#F28482"/>
	<stop  offset="1" style="stop-color:#ED4D82"/>
</linearGradient>
<circle style="fill:url(#SVGID_00000167374121140936375280000007480753157596730556_);" cx="-107.6" cy="-59.7" r="19.7"/>
<linearGradient id="SVGID_00000132807140345655456990000011002922514261869217_" gradientUnits="userSpaceOnUse" x1="-121.5354" y1="2.2353" x2="-93.7087" y2="-25.5915">
	<stop  offset="0" style="stop-color:#8AC640"/>
	<stop  offset="1" style="stop-color:#44B973"/>
</linearGradient>
<circle style="fill:url(#SVGID_00000132807140345655456990000011002922514261869217_);" cx="-107.6" cy="-11.7" r="19.7"/>
<linearGradient id="SVGID_00000156580022797699332710000008715720342208129465_" gradientUnits="userSpaceOnUse" x1="-121.5354" y1="50.2525" x2="-93.7087" y2="22.4258">
	<stop  offset="0" style="stop-color:#BF499B"/>
	<stop  offset="1" style="stop-color:#844D9E"/>
</linearGradient>
<circle style="fill:url(#SVGID_00000156580022797699332710000008715720342208129465_);" cx="-107.6" cy="36.3" r="19.7"/>
<linearGradient id="SVGID_00000064339177236225755490000008353806064563938478_" gradientUnits="userSpaceOnUse" x1="-121.5354" y1="98.2698" x2="-93.7087" y2="70.4431">
	<stop  offset="0" style="stop-color:#8EC8ED"/>
	<stop  offset="1" style="stop-color:#4CA4DB"/>
</linearGradient>
<circle style="fill:url(#SVGID_00000064339177236225755490000008353806064563938478_);" cx="-107.6" cy="84.4" r="19.7"/>
<linearGradient id="SVGID_00000097485607404372644160000003037599893330961597_" gradientUnits="userSpaceOnUse" x1="-121.5354" y1="146.287" x2="-93.7087" y2="118.4603">
	<stop  offset="0" style="stop-color:#3EB8EA"/>
	<stop  offset="1" style="stop-color:#3D71B8"/>
</linearGradient>
<circle style="fill:url(#SVGID_00000097485607404372644160000003037599893330961597_);" cx="-107.6" cy="132.4" r="19.7"/>
<g>
	<path class="st7" d="M151.5,20.6c0-1.4-1-2.3-2.3-2.3c-3.2,0-6.5,0-9.7,0c-0.1,0-0.1,0-0.2,0c0,4.6,0,9.3,0,13.9c0.1,0,0.1,0,0.2,0
		c3.2,0,6.5,0,9.7,0c1.3,0,2.3-1,2.3-2.3C151.5,26.8,151.5,23.7,151.5,20.6z M148.5,29.7c0,0.2-0.2,0.4-0.4,0.4h-1.3
		c-0.2,0-0.4-0.2-0.4-0.4v-1.6c0-0.2,0.2-0.4,0.4-0.4h1.3c0.2,0,0.4,0.2,0.4,0.4V29.7z M148.5,25.8c0,0.2-0.2,0.4-0.4,0.4h-1.3
		c-0.2,0-0.4-0.2-0.4-0.4v-1.6c0-0.2,0.2-0.4,0.4-0.4h1.3c0.2,0,0.4,0.2,0.4,0.4V25.8z M148.5,22c0,0.2-0.2,0.4-0.4,0.4h-1.3
		c-0.2,0-0.4-0.2-0.4-0.4v-1.6c0-0.2,0.2-0.4,0.4-0.4h1.3c0.2,0,0.4,0.2,0.4,0.4V22z"/>
	<path class="st7" d="M154.4,25.2c0-2,0-4,0-5.9c0-0.1,0-0.2,0.1-0.2c0.1,0,0.3,0,0.4,0c0,0,0,0.1,0,0.1c0,0,0,0.1,0,0.1
		c0,0.3,0,0.3,0.3,0.4c0.3,0.1,0.6,0,0.9-0.1c0,0,0.1-0.1,0.1-0.1c0-0.1,0-0.2,0-0.3c0-0.1,0-0.1,0.1-0.1c0.4,0,0.4,0,0.4,0.3
		c0,3.9,0,7.9,0,11.8c0,0.1,0,0.2-0.1,0.2c-0.1,0-0.3,0-0.4,0c0,0,0-0.1,0-0.1c0-0.1,0-0.1,0-0.2c0-0.3,0-0.3-0.3-0.4
		c-0.3-0.1-0.6-0.1-0.9,0.1c-0.1,0-0.1,0.1-0.1,0.2c0,0.1,0,0.2,0,0.3c0,0.1,0,0.1-0.1,0.1c0,0,0,0,0,0c-0.3,0-0.3,0-0.3-0.3
		C154.4,29.1,154.4,27.2,154.4,25.2z"/>
	<path class="st7" d="M146.2,16.9c-1.4,0-2.7,0-4.1,0c0-0.1,0-0.1,0-0.2c0-0.9,0-1.9,0-2.8c0-0.7,0.4-1.2,1.1-1.3
		c0.6-0.1,1.2,0.3,1.4,0.9c0.2,0.5,0.4,0.9,0.6,1.4c0.3,0.6,0.6,1.2,0.9,1.8C146.1,16.8,146.2,16.9,146.2,16.9z M142.8,13.9
		c0,0.3,0.3,0.6,0.6,0.6c0.3,0,0.6-0.3,0.6-0.6c0-0.3-0.3-0.6-0.6-0.6C143.1,13.3,142.8,13.6,142.8,13.9z"/>
	<path class="st7" d="M131,30.1c-0.5,0.1-0.9-0.2-0.9-0.8c0-2.3,0-4.5,0-6.8c0-0.5,0-0.9,0-1.4c0-0.5,0.4-0.8,0.9-0.8
		C131,23.6,131,26.8,131,30.1z"/>
	<path class="st7" d="M157.3,24.6c0.3,0,0.7,0,1,0c0.1,0,0.2,0.1,0.2,0.2c0,0.3,0,0.6,0,1c0,0.1-0.1,0.2-0.2,0.2c-0.3,0-0.7,0-1,0
		C157.3,25.4,157.3,25,157.3,24.6z"/>
	<path class="st7" d="M154,25.9c-0.6,0-1.1,0-1.7,0c0-0.4,0-0.9,0-1.3c0.6,0,1.1,0,1.7,0C154,25,154,25.4,154,25.9z"/>
	<path class="st7" d="M137.9,18.3c-1.5,0-3,0-4.5,0c-0.6,0-1,0.5-1,1c0,3.9,0,7.9,0,11.8c0,0.6,0.5,1,1.1,1c1.5,0,2.9,0,4.4,0
		c0.1,0,0.1,0,0.2,0C138,27.5,138,22.9,137.9,18.3C137.9,18.3,137.9,18.3,137.9,18.3z M136.2,29.7c0,0.2-0.2,0.4-0.4,0.4h-1.3
		c-0.2,0-0.4-0.2-0.4-0.4v-1.6c0-0.2,0.2-0.4,0.4-0.4h1.3c0.2,0,0.4,0.2,0.4,0.4V29.7z M136.2,25.8c0,0.2-0.2,0.4-0.4,0.4h-1.3
		c-0.2,0-0.4-0.2-0.4-0.4v-1.6c0-0.2,0.2-0.4,0.4-0.4h1.3c0.2,0,0.4,0.2,0.4,0.4V25.8z M136.2,22c0,0.2-0.2,0.4-0.4,0.4h-1.3
		c-0.2,0-0.4-0.2-0.4-0.4v-1.6c0-0.2,0.2-0.4,0.4-0.4h1.3c0.2,0,0.4,0.2,0.4,0.4V22z"/>
</g>
<path class="st7" d="M146,97.8c1.6,0.5,3.1,1.1,4.7,1.5c0.6,0.2,1.4,0.3,2.1,0.1c0.8-0.2,0.8-1,0.2-1.5c-0.6-0.5-1.3-0.7-2-1
	c-1.4-0.6-2.7-1.1-4-1.8c-1.4-0.8-2.7-2-3.2-3.5c-0.5-1.8,0-3.8,1.1-5.2c1.1-1.4,2.7-2,4.4-2.4c3.2-0.6,6.6,0.2,9.5,1.7
	c-0.8,1.6-1.7,3.2-2.5,4.8c0,0-0.1,0.1-0.1,0.1c0,0-0.1,0-0.1,0c-0.9-0.3-1.8-0.6-2.7-0.9c-0.8-0.2-1.9-0.6-2.7-0.4
	c-0.6,0.2-0.8,0.8-0.3,1.2c0.5,0.4,1.2,0.5,1.8,0.7c0.7,0.2,1.3,0.5,1.9,0.8c1.2,0.6,2.4,1.3,3.5,2.1c3.3,2.7,1.9,7.7-1.2,9.6
	c-1.6,1-3.5,1.2-5.4,1.1c-1.9-0.1-3.6-0.8-5.4-1.4c-0.2-0.1-0.5-0.2-0.7-0.2c-0.3-0.1-1.1-0.2-1.2-0.6c0-0.1,0-0.2,0.1-0.3
	C143.9,101.9,145.9,97.8,146,97.8z"/>
<g>
	<path class="st7" d="M24.4,16.6c0,0.2,0,0.3-0.1,0.5c-0.3,2.7,1.5,5.2,4.2,5.7c0.5,0.1,0.9,0.1,1.4,0.1c0.9,0,1.9,0,2.8,0.3
		c4.4,1.4,6,7,3,10.5c0,0-0.1,0.1-0.1,0.2c0-0.1,0-0.2,0-0.3c0.4-2.6-1.3-5.2-3.8-5.8c-0.5-0.1-0.9-0.1-1.4-0.2
		c-0.7,0-1.4,0-2.1-0.1c-2.7-0.4-5-2.7-5.4-5.4c-0.3-2,0.2-3.7,1.4-5.3C24.3,16.7,24.4,16.7,24.4,16.6z"/>
	<path class="st7" d="M28.3,21.7c-0.7-0.3-1.2-0.7-1.7-1.2c-0.9-1-1.4-2.2-1.3-3.5c0-0.9,0.4-1.7,1.2-2.2c0.7-0.5,1.5-0.7,2.3-0.8
		c0.4,0,0.8-0.1,1.3-0.1c1.1,0,2.3,0,3.4,0c0.7,0,1.4,0.1,2,0.5c0.8,0.5,1.2,1.2,1.5,2c0.2,0.7,0.3,1.4,0.3,2.1c0,0,0,0.1,0,0.1
		c-0.1,0-0.2,0-0.2,0c-2.4,0-4.7,0-7.1,0c-0.8,0-1.4,0.3-1.8,1C27.8,20.3,27.8,21,28.3,21.7C28.3,21.7,28.3,21.7,28.3,21.7z"/>
	<path class="st7" d="M22.6,31.6c0.1,0,0.2,0,0.2,0c2.4,0,4.8,0,7.1,0c1.1,0,2-0.9,1.9-2c0-0.4-0.2-0.7-0.4-1c0.1,0,0.1,0,0.2,0
		c1.9,0.8,3,2.7,2.9,4.7c-0.1,1-0.6,1.8-1.5,2.3c-0.7,0.4-1.5,0.6-2.4,0.7c-1.5,0-3.1,0-4.6,0c-0.2,0-0.5,0-0.7-0.1
		c-1.1-0.2-1.9-0.9-2.3-1.9C22.8,33.5,22.6,32.6,22.6,31.6z"/>
</g>
</svg>
