<?xml version="1.0" encoding="utf-8"?>
<!-- Generator: Adobe Illustrator 27.1.1, SVG Export Plug-In . SVG Version: 6.00 Build 0)  -->
<svg version="1.1" id="Layer_1" xmlns="http://www.w3.org/2000/svg" xmlns:xlink="http://www.w3.org/1999/xlink" x="0px" y="0px"
	 viewBox="0 0 60 60" style="enable-background:new 0 0 60 60;" xml:space="preserve">
<style type="text/css">
	.st0{opacity:0.6;fill:url(#SVGID_1_);enable-background:new    ;}
	.st1{fill:url(#SVGID_00000053527113612261736560000003080782397790040509_);}
	.st2{fill:#FFFFFF;}
</style>
<radialGradient id="SVGID_1_" cx="30" cy="31.6" r="28.4398" gradientUnits="userSpaceOnUse">
	<stop  offset="0" style="stop-color:#13488F"/>
	<stop  offset="9.955516e-02" style="stop-color:#194C92;stop-opacity:0.9004"/>
	<stop  offset="0.2303" style="stop-color:#29599A;stop-opacity:0.7697"/>
	<stop  offset="0.3783" style="stop-color:#456EA6;stop-opacity:0.6217"/>
	<stop  offset="0.5391" style="stop-color:#6A8CB9;stop-opacity:0.4609"/>
	<stop  offset="0.7102" style="stop-color:#9BB2D0;stop-opacity:0.2898"/>
	<stop  offset="0.8872" style="stop-color:#D6DFEB;stop-opacity:0.1128"/>
	<stop  offset="1" style="stop-color:#FFFFFF;stop-opacity:0"/>
</radialGradient>
<circle class="st0" cx="30" cy="31.6" r="28.4"/>
<linearGradient id="SVGID_00000133508812018786604950000000019369781238641301_" gradientUnits="userSpaceOnUse" x1="16.07" y1="39.03" x2="43.8968" y2="11.2033">
	<stop  offset="0" style="stop-color:#54569E"/>
	<stop  offset="1" style="stop-color:#10478E"/>
</linearGradient>
<circle style="fill:url(#SVGID_00000133508812018786604950000000019369781238641301_);" cx="30" cy="25.1" r="19.7"/>
<g>
	<path class="st2" d="M19.6,33.5h2.5c0.3,0,0.6-0.3,0.6-0.6v-5.7h1.6v2.6c0,0.3,0.3,0.6,0.6,0.6h2c0.3,0,0.5-0.2,0.5-0.5
		s-0.2-0.5-0.5-0.5h-1.6v-2.6c0-0.3-0.3-0.6-0.6-0.6h-2.5c-0.3,0-0.6,0.3-0.6,0.6v5.7H20v-2.6c0-0.3-0.3-0.6-0.6-0.6h-2
		c-0.3,0-0.5,0.2-0.5,0.5s0.2,0.5,0.5,0.5H19v2.6C19,33.3,19.2,33.5,19.6,33.5z"/>
	<path class="st2" d="M40.4,33.5h-2.5c-0.3,0-0.6-0.3-0.6-0.6v-5.7h-1.6v2.6c0,0.3-0.3,0.6-0.6,0.6h-2c-0.3,0-0.5-0.2-0.5-0.5
		s0.2-0.5,0.5-0.5h1.6v-2.6c0-0.3,0.3-0.6,0.6-0.6h2.5c0.3,0,0.6,0.3,0.6,0.6v5.7H40v-2.6c0-0.3,0.3-0.6,0.6-0.6h2
		c0.3,0,0.5,0.2,0.5,0.5s-0.2,0.5-0.5,0.5H41v2.6C41,33.3,40.8,33.5,40.4,33.5z"/>
	<path class="st2" d="M32.2,12.4c0-0.3-0.3-0.6-0.6-0.6S31,12.1,31,12.4V14h1.1v-1.6H32.2z M33.1,14.6h-6.2c-0.2,0-0.3,0.1-0.3,0.3
		v0.6c0,0.2,0.1,0.3,0.3,0.3h0.3v0.6c0,1.3,0.9,2.5,2.2,2.7v1.7h1.1V19c1.3-0.3,2.2-1.4,2.2-2.7v-0.6H33c0.2,0,0.3-0.1,0.3-0.3v-0.6
		C33.4,14.7,33.2,14.6,33.1,14.6z M28.9,12.4c0-0.3-0.3-0.6-0.6-0.6c-0.3,0-0.6,0.3-0.6,0.6V14h1.1v-1.6H28.9z"/>
	<path class="st2" d="M32.4,26.4c0.2,0.2,0.2,0.5,0,0.7c-0.1,0.1-0.2,0.2-0.4,0.2c-0.1,0-0.3-0.1-0.4-0.2L30,25.4l-1.7,1.7
		c-0.1,0.1-0.2,0.2-0.4,0.2c-0.1,0-0.3,0-0.4-0.2c-0.2-0.2-0.2-0.5,0-0.7l1.7-1.7L27.6,23c-0.2-0.2-0.2-0.5,0-0.7s0.5-0.2,0.7,0
		L30,24l1.7-1.7c0.2-0.2,0.5-0.2,0.7,0s0.2,0.5,0,0.7l-1.7,1.7L32.4,26.4z"/>
</g>
</svg>
