<?xml version="1.0" encoding="utf-8"?>
<!-- Generator: Adobe Illustrator 27.1.1, SVG Export Plug-In . SVG Version: 6.00 Build 0)  -->
<svg version="1.1" id="Layer_1" xmlns="http://www.w3.org/2000/svg" xmlns:xlink="http://www.w3.org/1999/xlink" x="0px" y="0px"
	 viewBox="0 0 60 60" style="enable-background:new 0 0 60 60;" xml:space="preserve">
<style type="text/css">
	.st0{opacity:0.3;fill:url(#SVGID_1_);enable-background:new    ;}
	.st1{fill:url(#SVGID_00000014601878703955077350000006898468544747927186_);}
	.st2{fill:#FFFFFF;}
</style>
<radialGradient id="SVGID_1_" cx="30" cy="28.4" r="28.4398" gradientTransform="matrix(1 0 0 -1 0 60)" gradientUnits="userSpaceOnUse">
	<stop  offset="0" style="stop-color:#E71F56"/>
	<stop  offset="1" style="stop-color:#E71F57;stop-opacity:0"/>
</radialGradient>
<circle class="st0" cx="30" cy="31.6" r="28.4"/>
<linearGradient id="SVGID_00000176033176172632271640000010123578497172455078_" gradientUnits="userSpaceOnUse" x1="16.07" y1="20.97" x2="43.8968" y2="48.7967" gradientTransform="matrix(1 0 0 -1 0 60)">
	<stop  offset="2.295156e-02" style="stop-color:#E94A33"/>
	<stop  offset="1" style="stop-color:#E71E57"/>
</linearGradient>
<circle style="fill:url(#SVGID_00000176033176172632271640000010123578497172455078_);" cx="30" cy="25.1" r="19.7"/>
<path class="st2" d="M27.3,32.4c0,0.2,0.1,0.4,0.2,0.6l0.6,0.9c0.2,0.3,0.6,0.5,0.9,0.5h2.1c0.3,0,0.7-0.2,0.9-0.5l0.6-0.9
	c0.1-0.2,0.2-0.4,0.2-0.6v-1.3h-5.5V32.4z M30,16.8c-3.5,0-6,2.8-6,6c0,1.5,0.5,2.9,1.5,4c0.6,0.6,1.5,2,1.8,3.1l0,0h5.5l0,0
	c0.3-1.1,1.2-2.5,1.8-3.1c1-1.1,1.5-2.5,1.5-4C36,19.5,33.3,16.8,30,16.8z M30,20.1c-1.5,0-2.7,1.2-2.7,2.7c0,0.3-0.2,0.5-0.5,0.5
	s-0.5-0.2-0.5-0.5c0-2.1,1.7-3.8,3.8-3.8c0.3,0,0.5,0.2,0.5,0.5C30.5,19.9,30.3,20.1,30,20.1z M22.9,23.4c0-0.5-0.4-0.8-0.8-0.8
	h-2.2c-0.5,0-0.8,0.4-0.8,0.8s0.4,0.8,0.8,0.8H22C22.5,24.2,22.9,23.8,22.9,23.4z M40.2,22.6H38c-0.5,0-0.8,0.4-0.8,0.8
	s0.4,0.8,0.8,0.8h2.2c0.5,0,0.8-0.4,0.8-0.8S40.6,22.6,40.2,22.6z M23.5,18.7l-1.9-1.1c-0.3-0.2-0.6-0.2-0.8,0
	c-0.3,0.2-0.4,0.4-0.4,0.7c0,0.3,0.2,0.6,0.4,0.7l1.9,1.1c0.3,0.2,0.6,0.2,0.8,0c0.3-0.2,0.4-0.4,0.4-0.7S23.8,18.8,23.5,18.7z
	 M39.2,27.8l-1.9-1.1c-0.3-0.2-0.6-0.2-0.8,0c-0.3,0.2-0.4,0.4-0.4,0.7c0,0.3,0.2,0.6,0.4,0.7l1.9,1.1c0.4,0.2,0.9,0.1,1.1-0.3
	C39.7,28.5,39.6,28,39.2,27.8z M22.7,26.7l-1.9,1.1c-0.3,0.1-0.4,0.4-0.4,0.7c0,0.3,0.2,0.6,0.4,0.7c0.3,0.1,0.6,0.1,0.8,0l1.9-1.1
	c0.4-0.2,0.5-0.7,0.3-1.1C23.6,26.6,23.1,26.4,22.7,26.7z M36.9,20.2c0.1,0,0.3,0,0.4-0.1l1.9-1.1c0.4-0.2,0.5-0.7,0.3-1.1
	s-0.7-0.5-1.1-0.3l-1.9,1.1c-0.3,0.2-0.5,0.6-0.4,0.9C36.2,20,36.5,20.2,36.9,20.2z"/>
</svg>
