<?xml version="1.0" encoding="utf-8"?>
<!-- Generator: Adobe Illustrator 27.1.1, SVG Export Plug-In . SVG Version: 6.00 Build 0)  -->
<svg version="1.1" id="Layer_1" xmlns="http://www.w3.org/2000/svg" xmlns:xlink="http://www.w3.org/1999/xlink" x="0px" y="0px"
	 viewBox="0 0 60 60" style="enable-background:new 0 0 60 60;" xml:space="preserve">
<style type="text/css">
	.st0{opacity:0.3;fill:url(#SVGID_1_);enable-background:new    ;}
	.st1{fill:url(#SVGID_00000065063780461660184710000006142302821951873170_);}
	.st2{fill:#FFFFFF;}
</style>
<radialGradient id="SVGID_1_" cx="30" cy="28.4" r="28.4398" gradientTransform="matrix(1 0 0 -1 0 60)" gradientUnits="userSpaceOnUse">
	<stop  offset="0" style="stop-color:#ED4E82"/>
	<stop  offset="0.9997" style="stop-color:#ED5182;stop-opacity:0"/>
</radialGradient>
<circle class="st0" cx="30" cy="31.6" r="28.4"/>
<linearGradient id="SVGID_00000168098539984425694520000006628361357593893024_" gradientUnits="userSpaceOnUse" x1="16.07" y1="20.97" x2="43.8968" y2="48.7967" gradientTransform="matrix(1 0 0 -1 0 60)">
	<stop  offset="1.065558e-08" style="stop-color:#F28482"/>
	<stop  offset="1" style="stop-color:#ED4D82"/>
</linearGradient>
<circle style="fill:url(#SVGID_00000168098539984425694520000006628361357593893024_);" cx="30" cy="25.1" r="19.7"/>
<g>
	<path class="st2" d="M37,21.6l-1.8-3.4c-0.1-0.4-0.5-0.7-1-0.7h-3.9v4.2L37,21.6C37,21.7,37,21.7,37,21.6z M29.2,21.7v-4.2h-3.9
		c-0.5,0-0.8,0.3-1,0.7l-1.8,3.4l0,0h6.7V21.7z M36.5,22.7h-14v7.8c0,0.9,0.7,1.6,1.6,1.6h8.1c-0.8-1-1.3-2.3-1.3-3.6
		C30.8,25.3,33.3,22.7,36.5,22.7z"/>
	<path class="st2" d="M40.7,29.6c0-0.1-0.1-0.2-0.1-0.2L39.8,29c0-0.2,0.1-0.4,0.1-0.6s0-0.4-0.1-0.6l0.8-0.4c0.1,0,0.1-0.1,0.1-0.2
		c0-0.2-0.7-1.7-1.1-1.7h-0.1L38.7,26c-0.3-0.3-0.6-0.5-1-0.6v-0.9c0-0.1-0.1-0.2-0.2-0.3C37.2,24,36.9,24,36.6,24s-0.6,0-0.9,0.1
		c-0.1,0-0.2,0.1-0.2,0.3v0.9c-0.4,0.1-0.7,0.3-1,0.6l-0.8-0.4h-0.1c-0.3,0-1.1,1.4-1.1,1.7c0,0.1,0.1,0.2,0.1,0.2l0.8,0.4
		c0,0.2-0.1,0.4-0.1,0.6s0,0.4,0.1,0.6l-0.8,0.4c-0.1,0-0.1,0.1-0.1,0.2c0,0.2,0.7,1.7,1.1,1.7h0.1l0.8-0.5c0.3,0.3,0.6,0.5,1,0.6
		v0.9c0,0.1,0.1,0.2,0.2,0.3c0.3,0.1,0.6,0.1,0.8,0.1s0.6,0,0.9-0.1c0.1,0,0.2-0.1,0.2-0.3v-0.9c0.4-0.1,0.7-0.3,1-0.6l0.8,0.5h0.1
		C40,31.2,40.7,29.8,40.7,29.6z M36.6,29.6c-0.7,0-1.3-0.6-1.3-1.3c0-0.7,0.6-1.3,1.3-1.3s1.3,0.6,1.3,1.3
		C38,29,37.4,29.6,36.6,29.6z"/>
</g>
</svg>
