<?xml version="1.0" encoding="utf-8"?>
<!-- Generator: Adobe Illustrator 27.1.1, SVG Export Plug-In . SVG Version: 6.00 Build 0)  -->
<svg version="1.1" id="Layer_1" xmlns="http://www.w3.org/2000/svg" xmlns:xlink="http://www.w3.org/1999/xlink" x="0px" y="0px"
	 viewBox="0 0 60 60" style="enable-background:new 0 0 60 60;" xml:space="preserve">
<style type="text/css">
	.st0{opacity:0.3;fill:url(#SVGID_1_);enable-background:new    ;}
	.st1{fill:url(#SVGID_00000143608169986449431070000003871262668605943699_);}
	.st2{fill:#FFFFFF;}
</style>
<radialGradient id="SVGID_1_" cx="30" cy="28.4" r="28.4398" gradientTransform="matrix(1 0 0 -1 0 60)" gradientUnits="userSpaceOnUse">
	<stop  offset="0" style="stop-color:#4CBEA3"/>
	<stop  offset="1" style="stop-color:#4CBEA3;stop-opacity:0"/>
</radialGradient>
<circle class="st0" cx="30" cy="31.6" r="28.4"/>
<linearGradient id="SVGID_00000014624385528154483530000004226921269125916807_" gradientUnits="userSpaceOnUse" x1="16.07" y1="20.97" x2="43.8968" y2="48.7967" gradientTransform="matrix(1 0 0 -1 0 60)">
	<stop  offset="2.295156e-02" style="stop-color:#7FC264"/>
	<stop  offset="1" style="stop-color:#4ABEA5"/>
</linearGradient>
<circle style="fill:url(#SVGID_00000014624385528154483530000004226921269125916807_);" cx="30" cy="25.1" r="19.7"/>
<g>
	<path class="st2" d="M36.8,19.6l-1-2.9c-0.4-1.1-1.4-1.9-2.7-1.9h-6.4c-1.2,0-2.3,0.8-2.7,1.9l-1,2.9c-0.7,0.3-1.2,0.9-1.2,1.7v5
		c0,0.6,0.5,1.1,1.1,1.1h0.6c0.6,0,1.1-0.5,1.1-1.1v-1.2h10.3v1.2c0,0.6,0.5,1.1,1.1,1.1h0.6c0.6,0,1.1-0.5,1.1-1.1v-5
		C38,20.5,37.5,19.8,36.8,19.6z M26.3,17.4c0.1-0.2,0.3-0.3,0.5-0.3h6.4c0.2,0,0.4,0.1,0.5,0.3l0.7,2h-8.7L26.3,17.4z M24.8,23.1
		c-0.5,0-0.9-0.4-0.9-0.9s0.4-0.9,0.9-0.9s0.9,0.4,0.9,0.9C25.7,22.7,25.3,23.1,24.8,23.1z M35.2,23.1c-0.5,0-0.9-0.4-0.9-0.9
		s0.4-0.9,0.9-0.9s0.9,0.4,0.9,0.9C36,22.7,35.6,23.1,35.2,23.1z"/>
	<path class="st2" d="M37,33c0,0.3-0.2,0.5-0.5,0.5h-2.6l-1.3,2.7c-0.1,0.2-0.3,0.3-0.5,0.3s-0.4-0.2-0.5-0.4l-1.5-5.9l-1.6,8
		c-0.1,0.2-0.3,0.4-0.5,0.4l0,0c-0.2,0-0.4-0.2-0.5-0.4l-1.3-4.7h-2.6c-0.3,0-0.5-0.2-0.5-0.5s0.2-0.5,0.5-0.5h3
		c0.2,0,0.4,0.2,0.5,0.4l0.8,3l1.7-8c0.1-0.2,0.3-0.4,0.5-0.4l0,0c0.2,0,0.4,0.2,0.5,0.4l1.7,6.7l0.8-1.7c0.1-0.2,0.3-0.3,0.5-0.3h3
		C36.8,32.5,37,32.7,37,33z"/>
</g>
</svg>
