<?xml version="1.0" encoding="utf-8"?>
<!-- Generator: Adobe Illustrator 27.1.1, SVG Export Plug-In . SVG Version: 6.00 Build 0)  -->
<svg version="1.1" id="Layer_1" xmlns="http://www.w3.org/2000/svg" xmlns:xlink="http://www.w3.org/1999/xlink" x="0px" y="0px"
	 viewBox="0 0 60 60" style="enable-background:new 0 0 60 60;" xml:space="preserve">
<style type="text/css">
	.st0{opacity:0.3;fill:url(#SVGID_1_);enable-background:new    ;}
	.st1{fill:url(#SVGID_00000058558464723812450480000004641580274809184695_);}
	.st2{fill:#FFFFFF;}
</style>
<radialGradient id="SVGID_1_" cx="30" cy="28.4" r="28.4398" gradientTransform="matrix(1 0 0 -1 0 60)" gradientUnits="userSpaceOnUse">
	<stop  offset="0" style="stop-color:#46B971"/>
	<stop  offset="1" style="stop-color:#45B972;stop-opacity:0"/>
</radialGradient>
<circle class="st0" cx="30" cy="31.6" r="28.4"/>
<linearGradient id="SVGID_00000101105787570858365980000017740573162623839401_" gradientUnits="userSpaceOnUse" x1="16.07" y1="20.97" x2="43.8968" y2="48.7967" gradientTransform="matrix(1 0 0 -1 0 60)">
	<stop  offset="0" style="stop-color:#8AC640"/>
	<stop  offset="1" style="stop-color:#44B973"/>
</linearGradient>
<circle style="fill:url(#SVGID_00000101105787570858365980000017740573162623839401_);" cx="30" cy="25.1" r="19.7"/>
<path class="st2" d="M34.9,18.8c0-2.7-2.2-4.9-4.8-4.9s-4.9,2.2-4.9,4.9v7.3c-0.9,1.1-1.4,2.4-1.4,3.9c0,3.5,2.8,6.2,6.3,6.2
	s6.3-2.8,6.3-6.2c0-1.4-0.5-2.8-1.4-3.9L34.9,18.8L34.9,18.8z M30,34.2c-2.3,0-4.2-1.9-4.2-4.2c0-1.2,0.5-2.1,0.9-2.6l0.5-0.6v-8
	c0-1.5,1.3-2.8,2.8-2.8s2.8,1.3,2.8,2.8v8l0.5,0.6c0.4,0.5,0.9,1.4,0.9,2.6C34.2,32.3,32.3,34.2,30,34.2z M30.7,28v-7.1
	c0-0.4-0.3-0.7-0.7-0.7s-0.7,0.3-0.7,0.7V28c-0.8,0.3-1.4,1.1-1.4,2c0,1.2,0.9,2.1,2.1,2.1s2.1-0.9,2.1-2.1
	C32.1,29.1,31.5,28.3,30.7,28z"/>
</svg>
