<?xml version="1.0" encoding="utf-8"?>
<!-- Generator: Adobe Illustrator 27.1.1, SVG Export Plug-In . SVG Version: 6.00 Build 0)  -->
<svg version="1.1" id="Layer_1" xmlns="http://www.w3.org/2000/svg" xmlns:xlink="http://www.w3.org/1999/xlink" x="0px" y="0px"
	 viewBox="0 0 50 50" style="enable-background:new 0 0 50 50;" xml:space="preserve">
<style type="text/css">
	.st0{opacity:0.65;fill:url(#SVGID_1_);enable-background:new    ;}
	.st1{opacity:0.65;fill:url(#SVGID_00000033332963231626589890000004684627080804582273_);enable-background:new    ;}
	.st2{opacity:0.65;fill:url(#SVGID_00000157290780750469383940000002642498452804942771_);enable-background:new    ;}
	.st3{opacity:5.000000e-02;fill:#333363;enable-background:new    ;}
	.st4{opacity:0.16;enable-background:new    ;}
	.st5{fill:#333363;}
	.st6{opacity:0.65;fill:url(#SVGID_00000170240258162913644260000005588568250999973274_);enable-background:new    ;}
</style>
<linearGradient id="SVGID_1_" gradientUnits="userSpaceOnUse" x1="41.05" y1="19.89" x2="41.07" y2="19.89" gradientTransform="matrix(1 0 0 -1 0 50)">
	<stop  offset="0" style="stop-color:#BA8D42"/>
	<stop  offset="0.5279" style="stop-color:#F7BB5D"/>
	<stop  offset="1" style="stop-color:#9F672F"/>
</linearGradient>
<path class="st0" d="M41.1,30.1L41.1,30.1C41.1,30.1,41.1,30.1,41.1,30.1C41.1,30.1,41.1,30.1,41.1,30.1z M41.1,30.1L41.1,30.1
	C41.1,30.1,41.1,30.1,41.1,30.1C41.1,30.1,41.1,30.1,41.1,30.1z M41.1,30.1L41.1,30.1C41.1,30.1,41.1,30.1,41.1,30.1
	C41.1,30.1,41.1,30.1,41.1,30.1z M41.1,30.1L41.1,30.1C41.1,30.1,41.1,30.1,41.1,30.1C41.1,30.1,41.1,30.1,41.1,30.1z M41.1,30.1
	L41.1,30.1C41.1,30.1,41.1,30.1,41.1,30.1C41.1,30.1,41.1,30.1,41.1,30.1z M41.1,30.1L41.1,30.1C41.1,30.1,41.1,30.1,41.1,30.1
	C41.1,30.1,41.1,30.1,41.1,30.1z M41.1,30.1L41.1,30.1C41.1,30.1,41.1,30.1,41.1,30.1C41.1,30.1,41.1,30.1,41.1,30.1z M41.1,30.1
	L41.1,30.1C41.1,30.1,41.1,30.1,41.1,30.1C41.1,30.1,41.1,30.1,41.1,30.1z M41.1,30.1L41.1,30.1C41.1,30.1,41.1,30.1,41.1,30.1
	C41.1,30.1,41.1,30.1,41.1,30.1z M41.1,30.1L41.1,30.1C41.1,30.1,41.1,30.1,41.1,30.1C41.1,30.1,41.1,30.1,41.1,30.1z M41.1,30.1
	L41.1,30.1C41.1,30.1,41.1,30.1,41.1,30.1C41.1,30.1,41.1,30.1,41.1,30.1z M41.1,30.1L41.1,30.1C41.1,30.1,41.1,30.1,41.1,30.1
	C41.1,30.1,41.1,30.1,41.1,30.1z">
<animateTransform  accumulate="none" additive="replace" attributeName="transform" attributeType="XML" calcMode="linear" dur="40s" fill="remove" from="0 25 25" repeatCount="indefinite" restart="always" to="-360 25 25" type="rotate">
		</animateTransform>
</path>
<linearGradient id="SVGID_00000124882664396469805490000015340827159760700319_" gradientUnits="userSpaceOnUse" x1="10.4266" y1="22.385" x2="10.4767" y2="22.385" gradientTransform="matrix(-1 0 0 -1 49.9567 50)">
	<stop  offset="0" style="stop-color:#BA8D42"/>
	<stop  offset="0.5279" style="stop-color:#F7BB5D"/>
	<stop  offset="1" style="stop-color:#9F672F"/>
</linearGradient>
<path style="opacity:0.65;fill:url(#SVGID_00000124882664396469805490000015340827159760700319_);enable-background:new    ;" d="
	M39.5,27.6C39.5,27.6,39.5,27.6,39.5,27.6C39.5,27.6,39.5,27.6,39.5,27.6L39.5,27.6z">
<animateTransform  accumulate="none" additive="replace" attributeName="transform" attributeType="XML" calcMode="linear" dur="40s" fill="remove" from="0 25 25" repeatCount="indefinite" restart="always" to="-360 25 25" type="rotate">
		</animateTransform>
</path>
<linearGradient id="SVGID_00000179625905089903562400000012196712045427983280_" gradientUnits="userSpaceOnUse" x1="5.191" y1="25" x2="44.7657" y2="25">
	<stop  offset="0" style="stop-color:#BA8D42"/>
	<stop  offset="0.5279" style="stop-color:#F7BB5D"/>
	<stop  offset="1" style="stop-color:#9F672F"/>
</linearGradient>
<path style="opacity:0.65;fill:url(#SVGID_00000179625905089903562400000012196712045427983280_);enable-background:new    ;" d="
	M44.6,27.5L44.6,27.5c0.1-0.6,0.1-1.1,0.1-1.7c0-0.2,0-0.3-0.1-0.4c0,0-0.1-0.1-0.1-0.1c0,0-0.1,0-0.2,0h-1.5l-0.2-0.2c0,0,0,0,0,0
	c0,0,0,0,0,0c0,0,0,0-0.1,0l0,0c0,0,0-0.1,0.1-0.1l0.2-0.2h1.5c0.3,0,0.4-0.2,0.4-0.5c0-0.6,0-1.1-0.1-1.7l0.1-0.2
	c0.1-0.2,0.1-0.6-0.1-0.7l-0.2-0.2c-0.1-0.6-0.3-1.1-0.4-1.7c-0.1-0.3-0.3-0.4-0.6-0.4L42,19.8c-0.1,0-0.1-0.1-0.2-0.1
	c-0.1,0-0.1,0-0.2,0c0,0,0.1-0.1,0.1-0.2l0.1-0.2l1.4-0.5c0.2-0.1,0.4-0.4,0.3-0.6l-0.3-0.8l-0.4-0.8l0.1-0.2
	c0.1-0.3-0.1-0.6-0.3-0.7c-0.1,0-0.2-0.1-0.2-0.1l-0.9-1.5c-0.2-0.2-0.5-0.3-0.7-0.2l-1.2,0.9h-0.2c-0.1,0-0.1,0-0.2,0
	c0,0,0.1-0.1,0.1-0.2v-0.2l1.2-0.9c0.2-0.2,0.2-0.5,0.1-0.7c-0.3-0.5-0.8-0.9-1.1-1.3v-0.2c0-0.3-0.3-0.5-0.5-0.5h-0.2
	c-0.4-0.4-0.8-0.8-1.3-1.1c-0.2-0.2-0.5-0.2-0.7,0l-0.9,1.2h-0.2c-0.1,0-0.1,0-0.2,0.1c0-0.1,0-0.1,0-0.2v-0.2l0.9-1.2
	c0.1-0.2,0.1-0.5-0.2-0.7l-1.5-0.9c0-0.1-0.1-0.2-0.1-0.2C34.3,7.2,34,7,33.7,7.1l-0.2,0.1l-0.8-0.4l-0.8-0.3
	c-0.3-0.1-0.6,0-0.6,0.3l-0.5,1.4l-0.2,0.1c-0.1,0-0.1,0.1-0.1,0.1c0-0.1,0-0.1-0.1-0.2c0-0.1-0.1-0.1-0.1-0.2l0.4-1.4
	C30.8,6.3,30.6,6,30.3,6c-0.6-0.1-1.1-0.3-1.7-0.4l-0.2-0.2c-0.2-0.2-0.5-0.3-0.7-0.1l-0.2,0.1c-0.6-0.1-1.1-0.1-1.7-0.1
	c-0.3,0-0.5,0.2-0.5,0.4v1.5l-0.2,0.2C25,7.4,25,7.5,25,7.5c0-0.1-0.1-0.1-0.1-0.1l-0.2-0.2V5.7c0-0.3-0.2-0.4-0.5-0.4
	c-0.6,0-1.1,0-1.7,0.1l-0.2-0.1c-0.2-0.1-0.6-0.1-0.7,0.1l-0.2,0.2c-0.6,0.1-1.1,0.3-1.7,0.4c-0.3,0.1-0.4,0.3-0.4,0.6L19.8,8
	c0,0.1-0.1,0.1-0.1,0.2c0,0.1,0,0.1,0,0.2l-0.1-0.1l-0.2-0.1l-0.5-1.4c-0.1-0.2-0.4-0.3-0.6-0.3l-0.8,0.3l-0.8,0.4l-0.2-0.1
	C16,7,15.7,7.2,15.6,7.4c0,0.1-0.1,0.1-0.1,0.2L14,8.5c-0.2,0.2-0.3,0.5-0.2,0.7l0.9,1.2v0.2c0,0.1,0,0.1,0,0.2c0,0-0.1,0-0.2-0.1
	h-0.2l-0.9-1.2c-0.2-0.2-0.5-0.2-0.7,0c-0.5,0.3-0.9,0.7-1.3,1.1h-0.3c-0.3,0-0.5,0.3-0.5,0.5v0.2c-0.4,0.4-0.8,0.8-1.1,1.3
	c-0.2,0.2-0.2,0.5,0,0.7l1.2,0.9v0.2c0,0.1,0,0.1,0.1,0.2c-0.1,0-0.1,0-0.2,0h-0.2l-1.2-0.9c-0.2-0.1-0.5-0.1-0.7,0.2l-0.9,1.5
	c-0.1,0-0.2,0.1-0.2,0.1C7.2,15.7,7,16,7.1,16.3l0.1,0.2l-0.4,0.8l-0.3,0.8c-0.1,0.3,0,0.6,0.3,0.6l1.4,0.5l0.1,0.2
	c0,0.1,0.1,0.1,0.1,0.2c-0.1,0-0.1,0-0.2,0c-0.1,0-0.1,0.1-0.2,0.1l-1.4-0.4C6.3,19.2,6,19.4,6,19.7c-0.1,0.6-0.3,1.1-0.4,1.7
	l-0.2,0.2c-0.2,0.2-0.3,0.5-0.1,0.7l0.1,0.2c-0.1,0.6-0.1,1.1-0.1,1.7c0,0.3,0.2,0.5,0.4,0.5h1.5L7.5,25c-0.1,0-0.1,0.1-0.1,0.1
	l-0.2,0.2H5.7c-0.3,0-0.4,0.2-0.4,0.5c0,0.6,0,1.1,0.1,1.7l-0.1,0.2c-0.1,0.2-0.1,0.6,0.1,0.7l0.2,0.2c0.1,0.6,0.3,1.1,0.4,1.7
	c0.1,0.3,0.3,0.4,0.6,0.4L8,30.2c0.1,0,0.1,0.1,0.2,0.1c0.1,0,0.1,0,0.2,0c0,0-0.1,0.1-0.1,0.2l-0.1,0.2l-1.4,0.5
	c-0.2,0.1-0.4,0.4-0.3,0.6l0.3,0.8l0.4,0.8l-0.1,0.2C7,34,7.2,34.3,7.4,34.4c0.1,0,0.2,0.1,0.2,0.1L8.5,36c0.2,0.2,0.5,0.3,0.7,0.2
	l1.2-0.9h0.2c0.1,0,0.1,0,0.2,0c0,0,0,0.1-0.1,0.2v0.2l-1.2,0.9c-0.2,0.2-0.2,0.5,0,0.7c0.3,0.5,0.8,0.9,1.1,1.3v0.3
	c0,0.3,0.3,0.5,0.5,0.5h0.3c0.4,0.4,0.8,0.8,1.3,1.1c0.2,0.2,0.5,0.2,0.7,0l0.9-1.2h0.2c0.1,0,0.1,0,0.2-0.1c0,0.1,0,0.1,0,0.2v0.2
	l-0.9,1.2c-0.1,0.2-0.1,0.5,0.2,0.7l1.5,0.9c0,0.1,0.1,0.2,0.1,0.2c0.1,0.2,0.4,0.4,0.7,0.3l0.2-0.1l0.8,0.4l0.8,0.3
	c0.3,0.1,0.6,0,0.6-0.3l0.5-1.4l0.2-0.1c0.1,0,0.1-0.1,0.1-0.1c0,0.1,0,0.1,0,0.2c0,0.1,0.1,0.1,0.1,0.2l-0.4,1.4
	c-0.1,0.2,0.1,0.5,0.4,0.6c0.6,0.1,1.1,0.3,1.7,0.4l0.2,0.2c0.2,0.2,0.5,0.3,0.7,0.1l0.2-0.1c0.6,0.1,1.1,0.1,1.7,0.1
	c0.3,0,0.5-0.2,0.5-0.4v-1.5l0.2-0.2l0.1-0.1c0,0.1,0.1,0.1,0.1,0.1l0.2,0.2v1.5c0,0.3,0.2,0.4,0.5,0.4c0.6,0,1.1,0,1.7-0.1l0.2,0.1
	c0.2,0.1,0.6,0.1,0.7-0.1l0.2-0.2c0.6-0.1,1.1-0.3,1.7-0.4c0.3-0.1,0.5-0.3,0.4-0.6L30.2,42c0-0.1,0.1-0.1,0.1-0.2
	c0-0.1,0-0.1,0.1-0.2l0.1,0.1l0.2,0.1l0.5,1.4c0.1,0.2,0.4,0.3,0.6,0.3l0.8-0.3l0.8-0.4l0.2,0.1c0.3,0.1,0.6-0.1,0.7-0.3
	c0-0.1,0.1-0.1,0.1-0.2l1.5-0.9c0.2-0.2,0.3-0.5,0.2-0.7l-0.9-1.2v-0.2c0-0.1,0-0.1,0-0.2c0.1,0,0.1,0,0.2,0.1h0.2l0.9,1.2
	c0.2,0.2,0.5,0.2,0.7,0c0.5-0.3,0.9-0.7,1.3-1.1h0.2c0.3,0,0.5-0.3,0.5-0.5v-0.3c0.4-0.4,0.8-0.8,1.1-1.3c0.2-0.2,0.2-0.5-0.1-0.7
	L39,35.7v-0.2c0-0.1,0-0.1-0.1-0.2h0.7l1.2,0.9c0,0,0.1,0,0.1,0c0.2,0,0.4-0.1,0.6-0.2l0.9-1.5c0,0,0.1-0.1,0.2-0.1
	c0.2-0.1,0.4-0.4,0.3-0.8l-0.1-0.2l0.4-0.8l0.3-0.8c0.1-0.2-0.1-0.5-0.3-0.6l-1.4-0.5l-0.1-0.2c0-0.1,0-0.1-0.1-0.2c0,0,0.1,0,0.1,0
	l1.4,0.4c0.1,0,0.2,0,0.3,0c0.3,0,0.5-0.1,0.6-0.4c0.1-0.6,0.3-1.1,0.4-1.7l0.2-0.2c0.2-0.1,0.2-0.5,0.1-0.7L44.6,27.5z M39.4,12.3
	c0.2,0.2,0.4,0.4,0.5,0.6l-0.6,0.5C39.4,13.1,39.4,12.7,39.4,12.3z M10.6,13.5L10.1,13c0.2-0.2,0.4-0.4,0.5-0.6V13.5z M10.6,37.7
	c-0.2-0.2-0.4-0.4-0.5-0.6l0.6-0.5C10.6,36.9,10.6,37.3,10.6,37.7z M39.4,36.5l0.5,0.5c-0.2,0.2-0.4,0.4-0.5,0.6V36.5z M44.1,24
	l-0.7,0.1c0.2-0.3,0.5-0.6,0.7-0.9V24z M43.5,20l0.2,0.8c-0.3-0.2-0.6-0.4-0.9-0.6L43.5,20z M44.1,22l-0.2,0.3
	c-0.2,0.3-0.4,0.7-0.7,1s-0.5,0.6-0.8,0.9l-0.2,0.2L42,24.1c-0.3-0.3-0.6-0.5-0.8-0.7c-0.3-0.2-0.6-0.4-0.9-0.6L40,22.6
	c0.6-0.7,1.1-1.5,1.6-2.3C42.4,20.8,43.3,21.3,44.1,22z M41.2,24.2h-0.7v-0.7C40.7,23.7,40.9,24,41.2,24.2z M39.9,21l0.7-0.2
	c-0.2,0.3-0.4,0.6-0.6,0.8L39.9,21z M42.6,17.4c0.1,0.3,0.2,0.5,0.3,0.8l-0.7,0.3C42.3,18.1,42.5,17.7,42.6,17.4z M41,14.5l0.4,0.7
	c-0.4-0.1-0.7-0.2-1.1-0.3L41,14.5z M39.1,16.8c0-0.5,0.2-1,0.3-1.5c0.5,0.1,1,0.2,1.4,0.4c0.5,0.1,1,0.3,1.5,0.5l-0.1,0.3
	c-0.2,0.8-0.5,1.5-0.8,2.2L41.3,19L41,18.9c-0.7-0.3-1.4-0.5-2.1-0.7l-0.3-0.1C38.8,17.7,38.9,17.2,39.1,16.8z M40.1,19.2l-0.7,0.3
	c-0.1-0.2-0.1-0.4-0.2-0.6C39.5,19,39.8,19.1,40.1,19.2z M38.3,17.1L38,16.6l0.6-0.4C38.5,16.5,38.4,16.8,38.3,17.1z M37,10.1
	c0.2,0.2,0.4,0.4,0.6,0.5h-1.1L37,10.1z M38.8,11.3v0.4c0,0.8,0,1.6-0.1,2.3v0.3h-0.3c-0.7-0.1-1.5-0.1-2.2-0.1h-0.3v-1.4
	c0-0.5,0-1-0.1-1.5H38.8z M37.6,14.8L37,15.3c-0.1-0.2-0.3-0.3-0.4-0.5H37.6z M35.5,9l-0.4,0.6c-0.1-0.3-0.2-0.7-0.3-1.1L35.5,9z
	 M31.8,7.1c0.3,0.1,0.5,0.2,0.8,0.3c-0.3,0.1-0.7,0.3-1,0.4L31.8,7.1z M32.3,8.2c0.5-0.2,1-0.3,1.5-0.4l0.1,0.3
	c0.3,0.7,0.5,1.5,0.7,2.3l0.1,0.3l-0.3,0.1c-0.8,0.2-1.4,0.4-2.1,0.6L32,11.5c-0.1-0.4-0.3-0.9-0.4-1.4c-0.2-0.5-0.4-0.9-0.6-1.3
	C31.4,8.5,31.9,8.3,32.3,8.2z M33.9,11.4L33.5,12l-0.6-0.3C33.2,11.6,33.5,11.5,33.9,11.4z M30.8,9.8c0.1,0.3,0.3,0.6,0.4,0.9
	c-0.2-0.1-0.4-0.2-0.6-0.2L30.8,9.8z M30,6.5l-0.2,0.7c-0.2-0.3-0.4-0.6-0.6-0.9L30,6.5z M26,5.9h0.8c-0.3,0.2-0.6,0.5-0.9,0.7
	L26,5.9z M26.8,6.7c0.4-0.3,0.8-0.6,1.3-0.9l0.2,0.3c0.5,0.6,0.9,1.3,1.3,1.9l0.2,0.3l-0.3,0.2c-0.7,0.4-1.3,0.8-1.8,1.2L27.4,10
	c-0.2-0.4-0.5-0.8-0.8-1.2c-0.3-0.4-0.6-0.7-0.9-1.1C26,7.4,26.4,7.1,26.8,6.7z M29.2,9.3L29,10.1l-0.7-0.2
	C28.7,9.7,28.9,9.5,29.2,9.3z M26.5,9.6h-0.7V8.8C26,9.1,26.2,9.3,26.5,9.6z M24,5.9v0.8c-0.3-0.2-0.6-0.5-0.9-0.7L24,5.9z M22,5.9
	L22.3,6c0.3,0.2,0.7,0.4,1,0.7s0.6,0.5,0.9,0.8l0.2,0.2L24.1,8c-0.3,0.3-0.5,0.6-0.7,0.8c-0.2,0.3-0.4,0.6-0.6,0.9L22.6,10
	c-0.7-0.6-1.5-1.1-2.4-1.6C20.7,7.5,21.3,6.6,22,5.9z M24.2,9.6h-0.7c0.2-0.3,0.4-0.5,0.6-0.8L24.2,9.6z M21.6,9.9L21,10.1l-0.2-0.7
	C21.1,9.5,21.3,9.7,21.6,9.9z M20.8,6.3c-0.2,0.3-0.4,0.6-0.6,0.9L20,6.5L20.8,6.3z M19.5,10.6c-0.2,0.1-0.4,0.1-0.6,0.2
	c0.1-0.3,0.2-0.6,0.4-0.9L19.5,10.6z M18.2,7.1l0.3,0.7c-0.3-0.1-0.7-0.3-1-0.4C17.6,7.3,17.9,7.2,18.2,7.1z M15.7,9.2
	c0.1-0.5,0.3-1,0.5-1.5l0.3,0.1C17.3,8,18,8.3,18.7,8.6L19,8.7L18.9,9c-0.3,0.7-0.5,1.4-0.7,2.1l-0.1,0.3c-0.4-0.2-0.9-0.3-1.3-0.5
	c-0.5-0.1-0.9-0.2-1.4-0.4C15.4,10.2,15.6,9.7,15.7,9.2z M17.1,11.7L16.5,12l-0.4-0.6C16.5,11.5,16.8,11.6,17.1,11.7z M14.5,9
	l0.7-0.4C15.1,9,15,9.3,14.9,9.7L14.5,9z M14.8,12.4l0.5,0.6c-0.2,0.1-0.3,0.3-0.5,0.4V12.4z M13,10.1l0.5,0.6h-1.1
	C12.6,10.5,12.7,10.2,13,10.1z M11.3,11.3h0.4c0.8,0,1.6,0,2.3,0.1h0.3v0.3c-0.1,0.7-0.1,1.5-0.1,2.2v0.3h-1.4c-0.5,0-1,0-1.5,0.1
	c-0.1-0.5-0.1-1-0.1-1.5C11.3,12.3,11.3,11.8,11.3,11.3z M13.4,14.8c-0.1,0.2-0.3,0.3-0.4,0.5l-0.6-0.5H13.4z M9,14.5l0.6,0.4
	c-0.3,0.1-0.7,0.2-1.1,0.3L9,14.5z M7.1,18.2c0.1-0.3,0.2-0.5,0.3-0.8c0.1,0.3,0.3,0.7,0.4,1L7.1,18.2z M8.2,17.7
	c-0.2-0.5-0.3-1-0.4-1.5l0.3-0.1c0.7-0.3,1.5-0.5,2.3-0.7l0.3-0.1l0.1,0.3l0.6,2.1l0.1,0.3c-0.4,0.1-0.9,0.3-1.4,0.4
	c-0.5,0.2-0.9,0.3-1.3,0.6C8.5,18.6,8.3,18.1,8.2,17.7z M11.4,16.1l0.6,0.4l-0.3,0.6C11.6,16.8,11.5,16.5,11.4,16.1z M10.8,18.9
	c-0.1,0.2-0.2,0.4-0.2,0.6l-0.7-0.3C10.2,19.1,10.5,19,10.8,18.9z M6.5,20l0.7,0.2c-0.3,0.2-0.6,0.4-0.9,0.6L6.5,20z M5.9,24v-0.8
	c0.2,0.3,0.5,0.6,0.7,0.9L5.9,24z M6.7,23.2c-0.3-0.4-0.6-0.8-0.9-1.3l0.3-0.2c0.6-0.5,1.3-0.9,1.9-1.3l0.3-0.2l0.2,0.3
	c0.4,0.7,0.8,1.2,1.2,1.8l0.2,0.2c-0.4,0.3-0.8,0.5-1.2,0.8c-0.4,0.3-0.7,0.6-1.1,0.9C7.4,24,7.1,23.6,6.7,23.2z M9.3,20.8L10,21
	l-0.2,0.7C9.7,21.3,9.5,21.1,9.3,20.8z M9.6,23.5v0.7H8.8C9.1,24,9.3,23.7,9.6,23.5z M5.9,26l0.7-0.1c-0.2,0.3-0.5,0.6-0.7,0.9V26z
	 M6.5,30l-0.2-0.8c0.3,0.2,0.6,0.4,0.9,0.6L6.5,30z M5.9,28l0.2-0.3c0.2-0.3,0.4-0.7,0.7-1s0.5-0.6,0.8-0.9l0.2-0.2L8,25.9
	c0.3,0.3,0.6,0.5,0.8,0.7c0.3,0.2,0.6,0.4,0.9,0.6l0.3,0.2c-0.7,0.7-1.2,1.5-1.6,2.3C7.6,29.2,6.7,28.7,5.9,28z M8.8,25.8h0.8v0.7
	C9.3,26.3,9.1,26,8.8,25.8z M10.1,29l-0.7,0.2c0.2-0.3,0.4-0.6,0.6-0.8L10.1,29z M7.4,32.6c-0.1-0.3-0.2-0.5-0.3-0.8l0.7-0.3
	C7.7,31.9,7.5,32.3,7.4,32.6z M9,35.5l-0.4-0.7C9,34.9,9.3,35,9.7,35.1L9,35.5z M10.9,33.2c0,0.5-0.2,1-0.3,1.5
	c-0.5-0.1-0.9-0.2-1.4-0.4c-0.5-0.1-1-0.3-1.5-0.5l0.1-0.3C8,32.7,8.3,32,8.6,31.3L8.7,31L9,31.1c0.7,0.3,1.4,0.5,2.1,0.7l0.3,0.1
	C11.2,32.3,11.1,32.8,10.9,33.2z M9.8,30.8l0.7-0.3c0.1,0.2,0.1,0.4,0.2,0.6C10.5,31,10.2,30.9,9.8,30.8z M11.7,32.9l0.3,0.6
	l-0.6,0.4C11.5,33.5,11.6,33.2,11.7,32.9z M13,39.9c-0.2-0.2-0.4-0.4-0.6-0.5h1.1L13,39.9z M11.2,38.7v-0.4c0-0.8,0-1.6,0.1-2.3
	v-0.3h0.3c0.7,0.1,1.5,0.1,2.2,0.1h0.3v1.4c0,0.5,0,1,0.1,1.5H11.2z M12.4,35.2l0.6-0.5c0.1,0.2,0.3,0.3,0.4,0.5H12.4z M14.5,41
	l0.4-0.6c0.1,0.3,0.2,0.7,0.3,1.1L14.5,41z M14.8,37.6v-1c0.2,0.2,0.3,0.3,0.5,0.4L14.8,37.6z M18.2,42.9c-0.3-0.1-0.5-0.2-0.8-0.3
	c0.3-0.1,0.7-0.3,1-0.4L18.2,42.9z M17.7,41.8c-0.5,0.2-1,0.3-1.5,0.4l-0.1-0.3c-0.3-0.7-0.5-1.5-0.7-2.3l-0.1-0.3l0.3-0.1l2.1-0.6
	l0.3-0.1c0.1,0.4,0.3,0.9,0.4,1.4c0.2,0.5,0.4,0.9,0.6,1.3C18.6,41.5,18.1,41.7,17.7,41.8z M16.1,38.6l0.4-0.6l0.6,0.3
	C16.8,38.4,16.5,38.5,16.1,38.6z M19.2,40.2c-0.1-0.3-0.3-0.6-0.4-0.9c0.2,0.1,0.4,0.2,0.6,0.2L19.2,40.2z M20,43.5l0.2-0.7
	c0.2,0.3,0.4,0.6,0.6,0.9L20,43.5z M24,44.1h-0.8c0.3-0.2,0.6-0.5,0.9-0.7L24,44.1z M23.2,43.3c-0.4,0.3-0.8,0.6-1.3,0.9l-0.2-0.3
	c-0.5-0.6-0.9-1.3-1.3-1.9l-0.2-0.3l0.3-0.2c0.7-0.4,1.2-0.8,1.8-1.2l0.3-0.2c0.2,0.4,0.5,0.8,0.8,1.2c0.3,0.4,0.6,0.7,0.9,1.1
	C24,42.6,23.6,42.9,23.2,43.3z M20.8,40.7L21,40l0.7,0.2C21.3,40.3,21.1,40.5,20.8,40.7z M23.5,40.4h0.7v0.8
	C24,40.9,23.8,40.7,23.5,40.4z M26,44.1v-0.7c0.3,0.2,0.6,0.5,0.9,0.7H26z M28,44.1L27.7,44c-0.3-0.2-0.6-0.4-1-0.7
	c-0.3-0.3-0.6-0.5-0.9-0.8l-0.2-0.2l0.2-0.2c0.2-0.3,0.5-0.6,0.7-0.8c0.2-0.3,0.4-0.6,0.6-0.9l0.2-0.3c0.7,0.6,1.5,1.1,2.4,1.6
	C29.3,42.5,28.7,43.4,28,44.1z M25.8,40.4h0.7c-0.2,0.3-0.4,0.5-0.6,0.8L25.8,40.4z M28.4,40.1l0.7-0.2l0.2,0.7
	C28.9,40.5,28.7,40.3,28.4,40.1z M29.2,43.7c0.2-0.3,0.4-0.6,0.6-0.9l0.2,0.7L29.2,43.7z M30.5,39.4c0.2-0.1,0.4-0.1,0.6-0.2
	c-0.1,0.3-0.2,0.6-0.4,0.9L30.5,39.4z M31.8,42.9l-0.3-0.7c0.3,0.1,0.7,0.3,1,0.4C32.4,42.7,32.1,42.8,31.8,42.9z M34.3,40.8
	c-0.1,0.5-0.3,1-0.5,1.5l-0.3-0.1c-0.8-0.2-1.5-0.5-2.2-0.8L31,41.3l0.1-0.3c0.3-0.7,0.5-1.4,0.7-2.1l0.1-0.3
	c0.4,0.2,0.9,0.3,1.3,0.5c0.5,0.1,0.9,0.2,1.4,0.4C34.6,39.8,34.4,40.3,34.3,40.8z M32.9,38.3l0.6-0.3l0.4,0.6
	C33.5,38.5,33.2,38.4,32.9,38.3z M35.5,41l-0.7,0.4c0.1-0.4,0.2-0.7,0.3-1.1L35.5,41z M35.2,37.6L34.7,37c0.2-0.1,0.3-0.3,0.5-0.4
	V37.6z M37,39.9l-0.5-0.6h1.1C37.4,39.5,37.3,39.8,37,39.9z M38.7,38.7h-0.4c-0.8,0-1.6,0-2.3-0.1h-0.3v-0.3
	c0.1-0.7,0.1-1.5,0.1-2.2v-0.3h1.4c0.5,0,1,0,1.5-0.1c0.1,0.5,0.1,1,0.1,1.5C38.7,37.7,38.7,38.2,38.7,38.7z M36.6,35.2
	c0.1-0.2,0.3-0.3,0.4-0.5l0.6,0.5H36.6z M38.7,35.1C38.7,35.1,38.7,35.1,38.7,35.1h-0.2l-1.2-0.9c-0.2-0.2-0.5-0.1-0.6,0
	c-0.2,0.4-0.6,0.6-0.8,1h-0.2c-0.1,0-0.2,0-0.3,0.1c-0.1,0.1-0.1,0.2-0.1,0.3v0.2c-0.3,0.3-0.6,0.6-1,0.8c-0.2,0.1-0.2,0.4,0,0.6
	l0.9,1.2v0.2c0,0.1,0,0.1,0,0.2c0,0-0.1,0-0.2-0.1h-0.2l-0.9-1.2c-0.2-0.2-0.4-0.3-0.6-0.1l-1.1,0.7C32.1,38,32,38,31.9,38h-0.3
	c-0.1,0-0.2,0.1-0.2,0.2l-0.1,0.2l-0.6,0.3l-0.6,0.2C30,39,29.9,39.3,30,39.5l0.5,1.4l-0.1,0.2c0,0.1,0,0.1,0,0.2l-0.1-0.1
	c-0.1,0-0.1-0.1-0.2-0.1l-0.4-1.4c-0.1-0.2-0.3-0.4-0.5-0.3c-0.4,0.1-0.8,0.2-1.3,0.3l-0.2-0.1c-0.1-0.1-0.2-0.1-0.3-0.1
	c-0.1,0-0.2,0.1-0.3,0.2L27,39.9C26.6,40,26.1,40,25.7,40c-0.2,0-0.4,0.2-0.4,0.5V42h-0.2c0,0.1-0.1,0.1-0.1,0.2
	c0-0.1-0.1-0.1-0.1-0.2l-0.2-0.2v-1.5c0-0.3-0.2-0.5-0.4-0.5c-0.4,0-0.9,0-1.3-0.1v-0.1c-0.1-0.1-0.2-0.2-0.3-0.2
	c-0.1,0-0.2,0-0.3,0.1l-0.2,0.1c-0.4-0.1-0.8-0.2-1.3-0.3c-0.2-0.1-0.4,0.1-0.5,0.3L20,41.1c-0.1,0-0.1,0.1-0.2,0.1
	c-0.1,0-0.1,0.1-0.1,0.1c0-0.1,0-0.1,0-0.2l-0.1-0.2l0.5-1.4c0.1-0.2,0-0.5-0.2-0.6l-0.6-0.2l-0.6-0.3l-0.1-0.2
	c0-0.1-0.1-0.2-0.2-0.2h-0.3c-0.1,0-0.1,0.1-0.2,0.1l-1.1-0.7c-0.2-0.1-0.4-0.1-0.6,0.1l-0.9,1.2h-0.2c-0.1,0-0.1,0-0.2,0.1
	c0-0.1,0-0.1,0-0.2v-0.2l0.9-1.2c0.2-0.2,0.1-0.5,0-0.6c-0.4-0.2-0.6-0.6-1-0.8v-0.2c0-0.1,0-0.2-0.1-0.3c-0.1-0.1-0.2-0.1-0.3-0.1
	h-0.2c-0.3-0.3-0.6-0.6-0.8-1c-0.1-0.2-0.4-0.2-0.6,0l-1.2,0.9h-0.2c-0.1,0-0.1,0-0.2,0c0-0.1,0.1-0.1,0.1-0.2v-0.2l1.2-0.9
	c0.2-0.1,0.3-0.4,0.1-0.6l-0.7-1.1c0-0.1,0-0.1,0.1-0.2v-0.3c0-0.1-0.1-0.2-0.2-0.2l-0.2-0.1l-0.3-0.6l-0.2-0.6
	C11,30,10.7,29.9,10.5,30l-1.4,0.5l-0.2-0.1c-0.1,0-0.1,0-0.2,0l0.1-0.1c0-0.1,0.1-0.1,0.1-0.2l1.4-0.4c0.2-0.1,0.4-0.3,0.3-0.5
	c-0.1-0.4-0.2-0.8-0.3-1.3l0.1-0.2c0.1-0.1,0.1-0.2,0.1-0.3c0-0.1-0.1-0.2-0.2-0.3L10.1,27C10,26.6,10,26.1,10,25.7
	c0-0.2-0.2-0.4-0.5-0.4H8v-0.2c0,0-0.1-0.1-0.2-0.1C7.9,25,8,24.9,8,24.9l0.2-0.2h1.5c0.3,0,0.5-0.2,0.5-0.4c0-0.4,0-0.9,0.1-1.3
	l0.2-0.1c0.1-0.1,0.2-0.2,0.2-0.3c0-0.1,0-0.2-0.1-0.3l-0.1-0.2c0.1-0.4,0.2-0.8,0.3-1.3c0.1-0.2-0.1-0.4-0.3-0.5L8.9,20
	c0-0.1-0.1-0.1-0.1-0.2c0-0.1-0.1-0.1-0.1-0.1c0.1,0,0.1,0,0.2,0l0.2-0.1l1.4,0.5c0.2,0.1,0.5,0,0.6-0.2l0.2-0.6l0.3-0.6l0.2-0.1
	c0.1,0,0.2-0.1,0.2-0.2v-0.3c0-0.1-0.1-0.1-0.1-0.2l0.7-1.1c0.1-0.2,0.1-0.4-0.1-0.6l-1.2-0.9v-0.2c0-0.1,0-0.1-0.1-0.2
	c0.1,0,0.1,0,0.2,0h0.2l1.2,0.9c0.2,0.2,0.5,0.1,0.6,0c0.2-0.4,0.6-0.6,0.8-1h0.2c0.1,0,0.2,0,0.3-0.1c0.1-0.1,0.1-0.2,0.1-0.3v-0.2
	c0.3-0.3,0.6-0.6,1-0.8c0.2-0.1,0.2-0.4,0-0.6l-0.9-1.2v-0.2c0-0.1,0-0.1,0-0.2c0,0,0.1,0,0.2,0.1h0.2l0.9,1.2
	c0.2,0.2,0.4,0.3,0.6,0.1l1.1-0.7c0.1,0,0.1,0.1,0.2,0.1c0.1,0,0.2,0.1,0.3,0c0.1,0,0.2-0.1,0.2-0.2l0.1-0.2l0.6-0.3l0.6-0.2
	c0.2-0.1,0.3-0.3,0.2-0.6l-0.5-1.4l0.1-0.2c0-0.1,0-0.1,0-0.2l0.1,0.1c0.1,0,0.1,0.1,0.2,0.1l0.4,1.4c0.1,0.2,0.3,0.4,0.5,0.3
	c0.4-0.1,0.8-0.2,1.3-0.3l0.2,0.1c0.1,0.1,0.2,0.1,0.3,0.1c0.1,0,0.2-0.1,0.3-0.2l0.1-0.2C23.5,10,24,10,24.4,10
	c0.2,0,0.4-0.2,0.4-0.5V8h0.1L25,7.9l0.3,0.3v1.5c0,0.3,0.2,0.5,0.4,0.5c0.4,0,0.9,0,1.3,0.1l0.1,0.2c0.1,0.1,0.2,0.2,0.3,0.2
	c0.1,0,0.2,0,0.3-0.1l0.2-0.1c0.4,0.1,0.8,0.2,1.3,0.3c0.2,0.1,0.4-0.1,0.5-0.3L30,8.9c0.1,0,0.1-0.1,0.2-0.1c0.1,0,0.1-0.1,0.1-0.1
	c0,0.1,0,0.1,0,0.2l0.1,0.2L30,10.5c-0.1,0.2,0,0.5,0.2,0.6l0.6,0.2l0.6,0.3l0.1,0.2c0,0.1,0.1,0.2,0.2,0.2H32
	c0.1,0,0.1-0.1,0.2-0.1l1.1,0.7c0.2,0.1,0.4,0.1,0.6-0.1l0.9-1.2H35c0.1,0,0.1,0,0.2-0.1c0,0.1,0,0.1,0,0.2v0.2l-0.9,1.2
	c-0.2,0.2-0.1,0.5,0,0.6c0.4,0.2,0.6,0.6,1,0.8v0.2c0,0.1,0,0.2,0.1,0.3c0.1,0.1,0.2,0.1,0.3,0.1h0.2c0.3,0.3,0.6,0.6,0.8,1
	c0.1,0.2,0.4,0.2,0.6,0l1.2-0.9h0.2c0.1,0,0.1,0,0.2,0c0,0.1,0,0.1-0.1,0.2v0.2l-1.2,0.9c-0.2,0.1-0.3,0.4-0.2,0.6l0.7,1.1
	c0,0.1-0.1,0.1-0.1,0.2v0.3c0,0.1,0.1,0.2,0.2,0.2l0.2,0.1l0.3,0.6l0.2,0.6c0.1,0.2,0.3,0.3,0.6,0.2l1.4-0.5l0.2,0.1
	c0.1,0,0.1,0,0.2,0l-0.1,0.1c0,0.1-0.1,0.1-0.1,0.2l-1.4,0.4c-0.2,0.1-0.4,0.3-0.3,0.5c0.1,0.4,0.2,0.8,0.3,1.3l-0.1,0.2
	c-0.1,0.1-0.1,0.2-0.1,0.3c0,0.1,0.1,0.2,0.2,0.3l0.2,0.1C40,23.5,40,24,40,24.4c0,0.2,0.2,0.4,0.5,0.4H42l0.2,0.2c0,0,0,0,0,0
	c0,0-0.2,0.1-0.2,0.1v0.2h-1.5c-0.3,0-0.5,0.2-0.5,0.4c0,0.4,0,0.9-0.1,1.3l-0.1,0l-0.1,0c-0.1,0.1-0.2,0.2-0.2,0.3c0,0,0,0.1,0,0.1
	c0,0,0,0,0,0s0,0,0,0l0,0.1l0.1,0.1c0,0.4-0.2,0.8-0.3,1.3c0,0.1,0,0.2,0,0.3c0.1,0.1,0.2,0.1,0.2,0.2L41,30c0,0,0,0.1,0,0.1h0
	c0,0,0,0,0,0c0,0,0,0,0,0c0,0,0,0,0,0l0,0c0,0,0.1,0,0.1,0.1h0v0H41l-0.2,0.1L39.5,30c0,0-0.1,0-0.1,0c0,0-0.1,0-0.1,0h0
	c-0.2,0-0.3,0.1-0.4,0.1l-0.2,0.6l-0.3,0.6l-0.2,0.1c-0.1,0-0.2,0.1-0.2,0.2v0.3l0,0V32c0,0.1,0,0.1,0.1,0.1l-0.7,1.1
	c-0.2,0.2-0.1,0.5,0.1,0.6l0.1,0.1l1.1,0.8l0.1,0.1L38.7,35.1c0.1,0,0.1,0,0.1,0C38.8,35.1,38.7,35.1,38.7,35.1z M35.2,12.4v1
	c-0.2-0.2-0.3-0.3-0.5-0.4L35.2,12.4z M41.2,25.8c-0.1,0-0.1,0.1-0.2,0.1C41,26,40.9,26,40.9,26c-0.2,0.1-0.3,0.2-0.5,0.4v-0.7
	L41.2,25.8L41.2,25.8z M39.9,29l0.2-0.5l0-0.1c0.2,0.3,0.4,0.6,0.6,0.8l-0.2,0L39.9,29z M40.2,30.8c-0.1,0-0.1,0-0.2,0.1
	c-0.3,0.1-0.5,0.2-0.7,0.2c0,0,0-0.1,0.1-0.1c0,0,0,0,0,0c0-0.1,0-0.1,0.1-0.2c0,0,0-0.1,0-0.1c0,0,0-0.1,0-0.1L40.2,30.8z
	 M38.6,33.9L38.6,33.9L38,33.4l0,0l0.3-0.6C38.4,33.2,38.5,33.5,38.6,33.9z M41.3,34.8L41,35.5l0,0l-0.7-0.4
	C40.7,35,41,34.9,41.3,34.8L41.3,34.8z M42.8,31.8L42.8,31.8c0,0.3-0.1,0.5-0.2,0.8c-0.1-0.3-0.3-0.7-0.4-1L42.8,31.8z M42.1,33.2
	c0,0.2,0.1,0.4,0.1,0.6l-0.3,0.1c-0.4,0.1-0.7,0.3-1.1,0.4c0,0,0,0,0,0s0,0,0,0l-1.3,0.4c0,0,0,0-0.1,0l-0.1-0.3
	c0-0.2-0.1-0.3-0.1-0.5c0,0,0,0,0,0c-0.2-0.5-0.3-1.1-0.5-1.6L38.6,32c0,0,0-0.1,0-0.1l0.3-0.1c0.7-0.2,1.4-0.4,2.1-0.7l0.3-0.1l0,0
	l0.1,0.3C41.6,31.9,41.9,32.5,42.1,33.2z M43.7,29.2L43.5,30v0l-0.7-0.2C43.1,29.6,43.4,29.4,43.7,29.2L43.7,29.2z M41.6,29.7
	l-0.1-0.2c-0.2-0.3-0.4-0.6-0.6-0.9c-0.1-0.2-0.2-0.3-0.3-0.5c-0.2-0.3-0.4-0.5-0.6-0.7l1.2-0.8c0.2-0.2,0.5-0.4,0.8-0.7l0.2-0.3
	l0.1,0.1l0.1,0.1l0.2,0.2c0,0,0,0,0,0c0.2,0.2,0.4,0.5,0.6,0.7c0.3,0.3,0.5,0.7,0.7,1l0.2,0.3C43.3,28.7,42.4,29.2,41.6,29.7z
	 M44.1,26.8c-0.2-0.3-0.5-0.6-0.7-0.9l0,0l0.7,0.1V26.8z">
				<animateTransform attributeName="transform"
					attributeType="XML"
					type="rotate"
					from="0 25 25"
					to="-360 25 25"
					dur="40s"
					repeatCount="indefinite" />
	 </path>
<path class="st3" d="M25,12.9L25,12.9c6.6,0,12.1,5.4,12.1,12.1l0,0c0,6.6-5.4,12.1-12.1,12.1l0,0c-6.6,0-12.1-5.4-12.1-12.1l0,0
	C13,18.3,18.4,12.9,25,12.9z"/>
<g class="st4">
	<path class="st5" d="M31.9,24.5l-5.7-5.7c-1.1-1.1-3.3-0.5-4.9,1.1s-2.1,3.8-1.1,4.9l5.7,5.7c1.1,1,3.2,0.5,4.9-1.1
		S33,25.6,31.9,24.5z M22.8,21.7c-0.5,0-0.7-0.4-0.7-0.7c0-0.5,0.4-0.7,0.7-0.7s0.7,0.4,0.7,0.7S23.2,21.7,22.8,21.7z M24.5,23
		L24.5,23c-0.2-0.1-0.2-0.2-0.3-0.3c0-0.1-0.1-0.1,0-0.2c0,0,0-0.1,0.1,0l0.1,0.1l0.1,0.1c0,0,0.1,0.1,0.2,0.2l0,0V23
		C24.6,23,24.6,23.1,24.5,23z M26.2,24.5c0,0-0.1,0-0.2,0c0,0-0.1,0-0.1-0.1c-0.1-0.1-0.1-0.2-0.2-0.2c-0.1-0.1-0.2-0.2-0.3-0.3
		c-0.1-0.1-0.1-0.2-0.2-0.2c-0.1-0.1-0.1-0.1-0.2-0.2c0,0,0,0-0.1-0.1v-0.1c0-0.1,0.1-0.1,0.2-0.1s0.2,0.1,0.2,0.2
		c0,0,0,0.1,0.1,0.2c0,0,0,0.1,0.1,0.1c0,0,0.1,0,0.2,0.1l0.1,0.1c0.1,0.1,0.2,0.2,0.4,0.4C26.2,24.4,26.2,24.4,26.2,24.5
		C26.3,24.5,26.3,24.5,26.2,24.5z M28.1,26.4L28.1,26.4c-0.1,0-0.2,0-0.2-0.1c-0.1-0.1-0.2-0.2-0.3-0.3c-0.1-0.1-0.2-0.2-0.3-0.2
		c-0.1-0.1-0.1-0.1-0.2-0.2s-0.1-0.1-0.2-0.2s-0.2-0.3-0.4-0.4v-0.1c0-0.1,0.1-0.1,0.2-0.1c0,0,0.1,0,0.1,0.1
		c0.1,0.1,0.1,0.1,0.2,0.2s0.1,0.2,0.2,0.3c0,0.1,0.1,0.2,0.2,0.2s0.2,0.1,0.2,0.2C27.8,26.1,27.9,26.2,28.1,26.4L28.1,26.4
		L28.1,26.4z M29.4,27.9L29.4,27.9c-0.2-0.1-0.2-0.2-0.3-0.3l0,0c-0.1-0.1-0.2-0.2-0.2-0.3c-0.1,0-0.1-0.1-0.1-0.2L28.7,27
		c-0.1-0.1-0.2-0.1-0.2-0.2s0-0.1,0-0.2h0.1c0.1,0.1,0.2,0.2,0.2,0.2C29,27,29,27,29,27.1c0.2,0.2,0.3,0.3,0.5,0.5
		C29.5,27.7,29.5,27.7,29.4,27.9C29.5,27.9,29.5,27.9,29.4,27.9z"/>
	<circle class="st5" cx="20.4" cy="18.9" r="0.7"/>
	<circle class="st5" cx="17.9" cy="19.5" r="0.7"/>
	<circle class="st5" cx="16.5" cy="21.7" r="0.7"/>
	<circle class="st5" cx="16.4" cy="24.5" r="0.7"/>
	<circle class="st5" cx="17.9" cy="26.5" r="0.7"/>
	<circle class="st5" cx="20.5" cy="27.4" r="0.7"/>
</g>
<linearGradient id="SVGID_00000101068897567498822280000001425482048616504998_" gradientUnits="userSpaceOnUse" x1="-22.1655" y1="8.35" x2="-18.6655" y2="8.35">
	<stop  offset="0" style="stop-color:#BA8D42"/>
	<stop  offset="0.5279" style="stop-color:#F7BB5D"/>
	<stop  offset="1" style="stop-color:#9F672F"/>
</linearGradient>
<rect x="-22.2" y="6.6" style="opacity:0.65;fill:url(#SVGID_00000101068897567498822280000001425482048616504998_);enable-background:new    ;" width="3.5" height="3.5"/>
</svg>
