<?xml version="1.0" encoding="utf-8"?>
<!-- Generator: Adobe Illustrator 27.1.1, SVG Export Plug-In . SVG Version: 6.00 Build 0)  -->
<svg version="1.1" id="Layer_1" xmlns="http://www.w3.org/2000/svg" xmlns:xlink="http://www.w3.org/1999/xlink" x="0px" y="0px"
	 viewBox="0 0 50 50" style="enable-background:new 0 0 50 50;" xml:space="preserve">
<style type="text/css">
	.st0{opacity:7.000000e-02;fill:#55558E;enable-background:new    ;}
	.st1{opacity:0.8;fill:#FFFFFF;enable-background:new    ;}
	.st2{opacity:0.15;fill:#333363;enable-background:new    ;}
</style>
<path class="st0" d="M25,4.9L25,4.9c11,0,20,8.9,20,20l0,0c0,11-8.9,20-20,20l0,0C14,45,5,36,5,25l0,0C5,13.9,14,4.9,25,4.9z"/>
<path class="st1" d="M25,11.1L25,11.1c7.6,0,13.9,6.2,13.9,13.9l0,0c0,7.6-6.2,13.9-13.9,13.9l0,0c-7.6,0-13.9-6.2-13.9-13.9l0,0
	C11.2,17.3,17.4,11.1,25,11.1z"/>
<g>
	<path class="st2" d="M31.9,24.5l-5.7-5.7c-1.1-1.1-3.3-0.5-4.9,1.1s-2.1,3.8-1.1,4.9l5.7,5.7c1.1,1,3.2,0.5,4.9-1.1
		S33,25.6,31.9,24.5z M22.8,21.7c-0.5,0-0.7-0.4-0.7-0.7c0-0.5,0.4-0.7,0.7-0.7s0.7,0.4,0.7,0.7S23.2,21.7,22.8,21.7z M24.5,23
		L24.5,23c-0.2-0.1-0.2-0.2-0.3-0.3c0-0.1-0.1-0.1,0-0.2c0,0,0-0.1,0.1,0l0.1,0.1l0.1,0.1c0,0,0.1,0.1,0.2,0.2l0,0V23
		C24.6,23,24.6,23.1,24.5,23z M26.2,24.5c0,0-0.1,0-0.2,0c0,0-0.1,0-0.1-0.1c-0.1-0.1-0.1-0.2-0.2-0.2c-0.1-0.1-0.2-0.2-0.3-0.3
		c-0.1-0.1-0.1-0.2-0.2-0.2c-0.1-0.1-0.1-0.1-0.2-0.2c0,0,0,0-0.1-0.1v-0.1c0-0.1,0.1-0.1,0.2-0.1s0.2,0.1,0.2,0.2
		c0,0,0,0.1,0.1,0.2c0,0,0,0.1,0.1,0.1c0,0,0.1,0,0.2,0.1l0.1,0.1c0.1,0.1,0.2,0.2,0.4,0.4C26.2,24.4,26.2,24.4,26.2,24.5
		C26.3,24.5,26.3,24.5,26.2,24.5z M28.1,26.4L28.1,26.4c-0.1,0-0.2,0-0.2-0.1c-0.1-0.1-0.2-0.2-0.3-0.3c-0.1-0.1-0.2-0.2-0.3-0.2
		c-0.1-0.1-0.1-0.1-0.2-0.2s-0.1-0.1-0.2-0.2s-0.2-0.3-0.4-0.4v-0.1c0-0.1,0.1-0.1,0.2-0.1c0,0,0.1,0,0.1,0.1
		c0.1,0.1,0.1,0.1,0.2,0.2s0.1,0.2,0.2,0.3c0,0.1,0.1,0.2,0.2,0.2s0.2,0.1,0.2,0.2C27.8,26.1,27.9,26.2,28.1,26.4L28.1,26.4
		L28.1,26.4z M29.4,27.9L29.4,27.9c-0.2-0.1-0.2-0.2-0.3-0.3l0,0c-0.1-0.1-0.2-0.2-0.2-0.3c-0.1,0-0.1-0.1-0.1-0.2L28.7,27
		c-0.1-0.1-0.2-0.1-0.2-0.2s0-0.1,0-0.2h0.1c0.1,0.1,0.2,0.2,0.2,0.2C29,27,29,27,29,27.1c0.2,0.2,0.3,0.3,0.5,0.5
		C29.5,27.7,29.5,27.7,29.4,27.9C29.5,27.9,29.5,27.9,29.4,27.9z"/>
	<circle class="st2" cx="20.4" cy="18.9" r="0.7"/>
	<circle class="st2" cx="17.9" cy="19.5" r="0.7"/>
	<circle class="st2" cx="16.5" cy="21.7" r="0.7"/>
	<circle class="st2" cx="16.4" cy="24.5" r="0.7"/>
	<circle class="st2" cx="17.9" cy="26.5" r="0.7"/>
	<circle class="st2" cx="20.5" cy="27.4" r="0.7"/>
</g>
</svg>
