<?xml version="1.0" encoding="utf-8"?>
<!-- Generator: Adobe Illustrator 24.1.1, SVG Export Plug-In . SVG Version: 6.00 Build 0)  -->
<svg version="1.1" id="Layer_1" xmlns="http://www.w3.org/2000/svg" xmlns:xlink="http://www.w3.org/1999/xlink" x="0px" y="0px"
	 viewBox="0 0 109.3 40.8" style="enable-background:new 0 0 109.3 40.8;" xml:space="preserve">
<style type="text/css">
	.st0{fill-rule:evenodd;clip-rule:evenodd;fill:#A3A3A3;}
	.st1{fill-rule:evenodd;clip-rule:evenodd;fill:#FFFFFF;}
	.st2{fill:none;stroke:#FFFFFF;stroke-width:0.2;stroke-miterlimit:10;}
	.st3{fill:#7F7F7F;}
	.st4{fill:#A3A3A3;}
</style>
<path class="st0" d="M98.9,40.8H78.7c-5.8,0-10.4-4.7-10.4-10.4v-20C68.3,4.7,72.9,0,78.7,0h20.2c5.8,0,10.4,4.7,10.4,10.4v20
	C109.3,36.1,104.6,40.8,98.9,40.8z"/>
<path class="st1" d="M106.4,11.5c-0.1-0.1-0.1-0.4-0.1-0.5c0.1-0.2,0.4-0.2,0.5-0.1c0.2,0.2,0.3,0.4,0.1,0.6
	C106.8,11.6,106.6,11.6,106.4,11.5z M106.2,10.5c-0.2-0.1-0.2-0.4-0.1-0.5c0.1-0.2,0.4-0.2,0.5-0.1c0.2,0.1,0.2,0.4,0.1,0.5
	C106.5,10.5,106.3,10.6,106.2,10.5z M105.6,9.7c-0.2-0.1-0.2-0.4-0.1-0.5c0.1-0.2,0.4-0.2,0.5-0.1c0.2,0.1,0.2,0.4,0.1,0.5
	S105.8,9.8,105.6,9.7z M104.9,10.8c-0.2-0.1-0.2-0.4-0.1-0.5c0.2-0.2,0.4-0.2,0.6-0.1c0.2,0.1,0.2,0.4,0.1,0.5
	C105.2,10.9,105.1,10.9,104.9,10.8z M104.9,9.1c-0.2-0.1-0.2-0.4-0.1-0.5c0.1-0.2,0.4-0.2,0.5-0.1c0.1,0.1,0.1,0.4,0,0.5
	C105.2,9.2,105.1,9.2,104.9,9.1z M104.8,10c-0.1,0.2-0.3,0.2-0.5,0.1c-0.2-0.1-0.2-0.4-0.1-0.5c0.1-0.2,0.4-0.2,0.5-0.1
	C104.9,9.6,105,9.8,104.8,10z M104.3,8.3c0,0-0.1,0.1-0.2,0.1c0,0.1-0.1,0.2-0.1,0.2c-0.1,0-0.1-0.2-0.1-0.5c0-0.2,0.5-0.3,0.5-0.2
	s0,0.1-0.1,0.2C104.3,8.2,104.3,8.3,104.3,8.3z M104.1,9.3c-0.1,0.2-0.4,0.2-0.5,0.1c-0.2-0.1-0.2-0.4-0.1-0.5
	c0.1-0.2,0.4-0.2,0.5-0.1C104.2,9,104.2,9.2,104.1,9.3z M103.3,8.3c0.1,0.1,0.1,0.3,0,0.4c-0.1,0.2-0.4,0.2-0.5,0.1
	c-0.1-0.1-0.2-0.3-0.1-0.5c0.1-0.1,0.1-0.1,0.2-0.1c-0.1-0.1-0.1-0.3,0-0.4c0.1-0.2,0.4-0.2,0.5-0.1c0.2,0.1,0.2,0.4,0.1,0.5
	C103.5,8.3,103.4,8.3,103.3,8.3z M103,17c0.2,0.1,0.2,0.4,0.1,0.5c-0.1,0.2-0.4,0.2-0.5,0.1c-0.2-0.1-0.2-0.4-0.1-0.5
	C102.7,16.9,102.8,16.9,103,17z M102.5,8.1c0,0.1,0,0.1-0.1,0.2c-0.1,0.2-0.4,0.2-0.5,0.1c-0.2-0.1-0.2-0.4-0.1-0.4l0,0
	c0-0.1,0-0.1,0.1-0.2c0.1-0.2,0.4-0.2,0.5-0.1C102.6,7.8,102.7,8,102.5,8.1L102.5,8.1z M102.4,16.5c0.2,0.1,0.2,0.4,0.1,0.5
	c-0.1,0.2-0.4,0.2-0.5,0.1c-0.2-0.1-0.2-0.4-0.1-0.5C102,16.4,102.2,16.4,102.4,16.5z M102.2,17.5c0.2,0.1,0.2,0.4,0.1,0.5
	c-0.1,0.2-0.4,0.2-0.5,0.1c-0.2-0.1-0.2-0.4-0.1-0.5S102,17.4,102.2,17.5z M101.1,8.2C101,8.1,100.9,8,100.9,8
	c-0.1-0.1-0.1-0.3,0-0.4c0.1-0.2,0.4-0.2,0.5-0.1c0.1,0,0.2,0.2,0.2,0.3c0.1,0.1,0.1,0.3,0,0.4C101.5,8.3,101.2,8.3,101.1,8.2z
	 M100.4,7.8L100.4,7.8c0.2,0.1,0.2,0.4,0.1,0.5c-0.1,0.2-0.4,0.2-0.5,0.1c-0.2-0.1-0.2-0.4-0.1-0.5l0.1-0.1l0,0
	c-0.2-0.1-0.2-0.4-0.1-0.5c0.1-0.2,0.4-0.2,0.5-0.1C100.6,7.3,100.6,7.6,100.4,7.8C100.5,7.8,100.4,7.8,100.4,7.8z M99.1,7.6
	c-0.2-0.1-0.2-0.4-0.1-0.5c0.1-0.2,0.4-0.2,0.5-0.1c0.2,0.1,0.2,0.3,0.1,0.5S99.2,7.7,99.1,7.6z M99.5,8c0.2,0.1,0.2,0.4,0.1,0.5
	c-0.1,0.2-0.4,0.2-0.5,0.1c-0.2-0.1-0.2-0.4-0.1-0.5C99.1,7.9,99.3,7.9,99.5,8z M101.1,17.4c-0.2-0.1-0.2-0.4-0.1-0.5
	c0.1-0.2,0.4-0.2,0.5-0.1c0.2,0.1,0.2,0.4,0.1,0.5C101.5,17.5,101.2,17.6,101.1,17.4z M99.7,17.9c0.2,0.1,0.2,0.4,0.1,0.5
	c-0.1,0.2-0.4,0.2-0.5,0.1c-0.2-0.1-0.2-0.4-0.1-0.5C99.3,17.8,99.5,17.8,99.7,17.9z M96.6,21.1c-0.4-0.3-0.5-0.8-0.2-1.3
	c0.3-0.4,0.8-0.5,1.3-0.2c0.4,0.3,0.5,0.8,0.2,1.3C97.5,21.3,96.9,21.4,96.6,21.1z M97.5,19.8c-0.3-0.2-0.7-0.2-1,0.2
	c-0.2,0.3-0.2,0.7,0.2,1c0.3,0.2,0.7,0.2,1-0.2C97.8,20.4,97.8,20.1,97.5,19.8z M98.9,18.5c0.2,0.1,0.2,0.4,0.1,0.5
	c-0.1,0.2-0.4,0.2-0.5,0.1c-0.2-0.1-0.2-0.4-0.1-0.5S98.8,18.4,98.9,18.5z M97.8,19.8c-0.2-0.1-0.2-0.4-0.1-0.5
	c0.1-0.2,0.4-0.2,0.5-0.1c0.2,0.1,0.2,0.4,0.1,0.5S98,19.9,97.8,19.8z M101.8,18.2c0.8,0.7,1.4,1.3,1.9,2.6c0.4,0.8,0.9,1.1,0.7,3.2
	c-0.1,1.2-1.7,2.4-2.2,3c-0.6,0.6-1.6,2-2.5,3c-0.3,0.4-1.7,1.8-2.2,2.1c-0.7,0.4-0.7,0.8-1.3,1.5c-0.5,0.6-1,0.6-1,0.6
	s1.1-1.4,1.3-1.7c0.2-0.4,0.4-0.8,1.3-1.7s1.6-2,1.8-2.2c0.2-0.2,0.5-0.3,0.6-0.5c0.1-0.1,0.3-0.5,0.5-0.7s0.6-0.5,0.7-0.6
	c0.2-0.2-0.1-0.4,0.1-0.5c0.1-0.1,0.4-0.1,0.6-0.3c0.2-0.2,0-0.5,0.1-0.8s0.7-0.5,0.7-0.8c-0.1-0.5,0.2-0.6,0.3-1
	c0.2-0.5,0.1-1.2,0.1-1.2s-0.4-0.3-0.6-0.7c-0.4-0.5-0.9-2.2-2.7-3.8c-3.4-3-6.1-3.5-7-3c-0.6,0.5-1.1,1-1.6,1.5
	c0.1,0.3,0.2,0.6,0.2,0.9c0.2,0.7,0.1,0.9,0.4,1.8c0.1,0.3,0.3,0.5,0.3,0.6c0,0.2-0.2,0.6-0.2,0.8c0.1,0.6,0,0.8,0,0.9
	s0.3,0.4,0.3,0.5c0.2,0.9,0.1,1,0.2,2.1c0,0.1,0.2,0.5,0.2,0.6c0.2,2,0.3,4.9,0.2,5.2c-0.1,0.3-0.2,2-0.2,2.5c0,0.4-0.2,0.6-0.3,0.9
	c-0.1,0.2-0.3,0.3-0.3,0.8s-0.4,0.6-0.4,0.6c0.2-0.6,0.3-1.1,0.4-1.7c0.2-1.8,0.4-6.2-0.6-11.3c-0.6-3.1-1.8-5.3-2.2-5.2
	c-0.4,0.1-1.5,3.1-1.5,3.5s1.7,5.2,2,7.7c0.2,1.3,0.5,3.3,0.6,5.3c0.1,0.6,0.1,1.2,0.2,1.8c0,0-0.3-0.1-0.3-0.5
	c0-0.3-0.3-0.4-0.2-0.7s-0.4-1.3-0.4-1.8s0-0.6,0-0.8c-0.2-0.7-0.3-1.2-0.3-1.6c0-0.7-0.3-1.4-0.9-1.3c-0.3,0-0.4,0.1-0.4,0.1
	s-0.5-0.6,0.2-2c0.1-0.2,0.1-0.8-0.1-0.9s-0.4-0.3-0.4-1.3c0-0.4-0.1-0.7-0.2-1c-0.5,0-1.2-0.1-1.9-0.5c-0.4,0.4-0.6,0.7-0.8,0.8
	c-0.6,0.6-4.7,5-5.1,5.9s0.2,2,0.4,2.3c0.2,0.4,0.4,1.1,0.5,1.4s0.5,0.6,0.7,1c0.3,0.5,0.3,0.7,0.3,0.7s-1.6-1.9-1.9-2.6
	c-0.4-0.6-0.7-1-0.8-2.7c0-1,0.6-1.8,1.2-2.5c0.6-0.6,2.1-2.3,2.7-2.9c0.3-0.3,1.1-1.2,1.9-2.1c-1-0.3-2,0.3-2.6,0.8
	c0,0,0-0.4,0.5-0.8c-1,0.2-0.8,0.3-1.5,0.5c-0.6,0.3-2.6,0.2-2.7,0.1c-0.3,0-0.4-0.2-0.6-0.1s-1,0.4-1,0.1c0-0.2,0.7-0.6-0.7-0.5
	c0,0,0.6-0.5,2.9-0.3c0,0-1.9-0.7-4-0.3c-3.2,0.6-5.9-1.8-5.9-1.8s1.6,0.6,4.3-0.3c2.7-0.9,3-2.7,4.9-1.9c1.8,0.7,3.2,0.3,3.4,0.3
	c0.1,0,1.2-0.6,1.5-0.6h-0.1c0,0,0,0-0.1,0c-0.1-0.1-0.5-0.2-0.6-0.2c0.2-0.1,1.4-0.4,2.2-0.1c0.4,0.1,0.8,0.3,1.2,0.3
	c-0.1-0.1-0.1-0.2-0.2-0.2c-0.3-0.3-0.4-0.4-0.3-0.6c0.1-0.3,0.2-0.3,0-0.6C85.3,15,85,14.7,85,13.9c0,0,0.7,0.2,1.3-1
	c0.4-0.7,0.2-2.1,1.1-2.3c0.5,0,1.2,0.3,2,1.5c0.3,0.5,0.6,1.2,0.8,2.1c0.1,0.3,0.2,0.6,0.4,0.8c0.6-0.6,1.1-1,1.5-1.2
	c1.4-0.6,3-0.1,4.1,0.4c2,0.8,3,1.8,3.7,2.4C100.5,16.9,101.2,17.7,101.8,18.2z M82.7,16.5C82.6,16.5,82.6,16.5,82.7,16.5
	C82.6,16.5,82.6,16.5,82.7,16.5z M98.5,8.2c0.2,0.1,0.2,0.4,0.1,0.5c-0.1,0.2-0.4,0.2-0.5,0.1c-0.2-0.1-0.2-0.4-0.1-0.5
	C98.1,8.1,98.3,8.1,98.5,8.2z M98.1,7.4C97.9,7.3,97.9,7,98,6.9c0.1-0.2,0.4-0.2,0.5-0.1c0.2,0.1,0.2,0.4,0.1,0.5S98.3,7.5,98.1,7.4
	z M97.6,8.4c0.2,0.1,0.2,0.4,0.1,0.5c-0.1,0.2-0.4,0.2-0.5,0.1c-0.3-0.1-0.3-0.3-0.2-0.5C97.2,8.4,97.4,8.3,97.6,8.4z M97.2,7.2
	C97,7.1,97,6.8,97.1,6.7c0.1-0.2,0.4-0.2,0.5-0.1c0.2,0.1,0.2,0.4,0.1,0.5C97.5,7.3,97.3,7.4,97.2,7.2z M96.6,8.6
	c0.2,0.1,0.2,0.4,0.1,0.5c-0.2,0.2-0.4,0.2-0.5,0.1C96,9.1,96,8.8,96.1,8.7C96.2,8.5,96.4,8.5,96.6,8.6z M96.2,7.1
	C96,7,96,6.8,96.1,6.6c0.1-0.2,0.4-0.2,0.5-0.1c0.2,0.1,0.2,0.4,0.1,0.5C96.6,7.2,96.4,7.2,96.2,7.1z M95.5,8.7
	c0.2,0.1,0.2,0.4,0.1,0.5s-0.4,0.2-0.5,0.1c-0.2-0.1-0.2-0.4-0.1-0.5C95.2,8.6,95.4,8.5,95.5,8.7z M95.2,7.1C95,7,95,6.7,95.1,6.6
	c0.2-0.2,0.4-0.2,0.6-0.1s0.2,0.4,0.1,0.5C95.5,7.2,95.4,7.2,95.2,7.1z M94.2,7.1C94,7,94,6.7,94.1,6.6c0.1-0.2,0.3-0.2,0.5-0.1
	s0.2,0.4,0.1,0.5C94.5,7.2,94.3,7.2,94.2,7.1z M94.5,8.6c0.2,0.1,0.2,0.4,0.1,0.5c-0.1,0.2-0.4,0.2-0.5,0.1
	c-0.2-0.1-0.2-0.4-0.1-0.5C94.2,8.5,94.3,8.5,94.5,8.6z M93.2,7.1C93,7,93,6.7,93.1,6.6c0.1-0.2,0.4-0.2,0.5-0.1s0.2,0.4,0.1,0.5
	C93.6,7.2,93.4,7.2,93.2,7.1z M93.5,8.8c0.2,0.1,0.2,0.4,0.1,0.5s-0.4,0.2-0.5,0c-0.2-0.1-0.2-0.4-0.1-0.5S93.4,8.6,93.5,8.8z
	 M92.2,7.1C92,7,92,6.7,92.1,6.6c0.2-0.2,0.4-0.2,0.6-0.1s0.2,0.4,0.1,0.5C92.6,7.2,92.4,7.2,92.2,7.1z M92.6,8.9
	c0.2,0.1,0.2,0.4,0.1,0.5c-0.1,0.2-0.4,0.2-0.5,0.1C92,9.4,92,9.1,92.1,9S92.4,8.8,92.6,8.9z M91.2,9.2C91,9.1,91,8.8,91.1,8.7
	c0.1-0.2,0.4-0.2,0.5-0.1c0.2,0.1,0.2,0.4,0.1,0.5S91.3,9.3,91.2,9.2z M91.2,7.2C91,7.1,91,6.8,91.1,6.7c0.1-0.2,0.3-0.3,0.5-0.1
	c0.2,0.1,0.2,0.4,0.1,0.5S91.3,7.3,91.2,7.2z M90.2,9.1C90,9,90,8.7,90.1,8.6c0.1-0.2,0.4-0.2,0.5-0.1c0.2,0.1,0.2,0.4,0.1,0.5
	C90.5,9.2,90.3,9.2,90.2,9.1z M90.1,7.2c-0.2-0.1-0.2-0.4-0.1-0.5c0.1-0.2,0.4-0.2,0.5-0.1c0.2,0.1,0.2,0.4,0.1,0.5
	S90.3,7.3,90.1,7.2z M89.5,8.4c0.2,0.1,0.2,0.4,0.1,0.5c-0.1,0.2-0.3,0.2-0.4,0.1C89,8.9,89,8.6,89.1,8.5
	C89.2,8.3,89.4,8.2,89.5,8.4z M89.2,7.3C89,7.2,89,6.9,89.1,6.8c0.1-0.2,0.4-0.2,0.5-0.1c0.2,0.1,0.2,0.4,0.1,0.5
	C89.5,7.3,89.3,7.4,89.2,7.3z M88.2,7.5C88,7.4,88,7.1,88.1,7c0.1-0.2,0.4-0.2,0.5-0.1c0.2,0.1,0.2,0.4,0.1,0.5
	C88.6,7.6,88.4,7.7,88.2,7.5z M88.5,8.2c0.2,0.1,0.2,0.3,0.1,0.5s-0.4,0.2-0.5,0.1c-0.2-0.1-0.2-0.4-0.1-0.5
	C88.1,8.1,88.4,8,88.5,8.2z M87.4,7.7c-0.2-0.1-0.2-0.4-0.1-0.5C87.4,7,87.7,7,87.8,7.1C88,7.2,88,7.5,87.9,7.6
	C87.8,7.8,87.5,7.9,87.4,7.7z M87.6,8c0.2,0.1,0.2,0.4,0.1,0.5c-0.1,0.2-0.4,0.2-0.5,0.1C87,8.5,87,8.2,87.1,8.1
	C87.2,8,87.4,8,87.6,8z M86.8,8c0,0.1,0,0.2-0.1,0.3c-0.1,0.2-0.4,0.2-0.5,0.1C86,8.3,86,8,86.1,8c0-0.1,0.1-0.1,0.2-0.1
	c0-0.1,0-0.2,0.1-0.3c0.1-0.2,0.3-0.3,0.4-0.2C87,7.5,87,7.8,86.8,8L86.8,8z M85.7,8.2h-0.4C85.1,8.2,85,8,85,7.9
	c0-0.2,0.2-0.3,0.3-0.3h0.4c0.2,0,0.3,0.2,0.3,0.3C86,8.1,85.9,8.2,85.7,8.2z M84.9,8c0.2,0.1,0.2,0.4,0.1,0.5
	c-0.1,0.2-0.4,0.2-0.5,0.1c-0.2-0.1-0.2-0.4-0.1-0.5l0,0c-0.1,0-0.2,0-0.3-0.1c-0.2-0.1-0.2-0.4-0.1-0.5c0.2-0.2,0.4-0.2,0.6-0.1
	s0.2,0.4,0.1,0.5l0,0C84.7,8,84.8,8,84.9,8z M84.1,9c-0.1,0.2-0.4,0.2-0.5,0.1c-0.2-0.1-0.2-0.4-0.1-0.5c0.2-0.3,0.4-0.3,0.6-0.2
	C84.2,8.6,84.3,8.8,84.1,9z M83.2,7.9C83,7.7,83,7.5,83.1,7.4c0.1-0.2,0.4-0.2,0.5-0.1c0.2,0.1,0.2,0.4,0.1,0.5
	C83.6,8,83.3,8,83.2,7.9z M83.2,9.3c-0.1,0.2-0.4,0.2-0.5,0.1c-0.2-0.1-0.2-0.4-0.1-0.5c0.1-0.2,0.4-0.2,0.5-0.1
	C83.2,9,83.3,9.2,83.2,9.3z M82.2,7.6C82,7.5,82,7.2,82.1,7.1c0.1-0.2,0.4-0.2,0.5-0.1c0.2,0.1,0.2,0.4,0.1,0.5
	C82.6,7.7,82.4,7.7,82.2,7.6z M82.3,9.8c-0.1,0.2-0.4,0.2-0.5,0.1c-0.2-0.1-0.2-0.4-0.1-0.5c0.1-0.2,0.4-0.3,0.5-0.1
	C82.4,9.4,82.4,9.6,82.3,9.8z M81.3,7.3c-0.2-0.1-0.2-0.4-0.1-0.5c0.1-0.2,0.4-0.2,0.5-0.1c0.2,0.1,0.2,0.4,0.1,0.5
	C81.7,7.4,81.4,7.5,81.3,7.3z M81.4,9.7c0.2,0.1,0.2,0.4,0.1,0.5c-0.1,0.2-0.4,0.2-0.5,0.1c-0.2-0.1-0.2-0.4-0.1-0.5
	S81.2,9.6,81.4,9.7z M80.3,7.1c-0.2-0.1-0.2-0.4-0.1-0.5c0.1-0.2,0.4-0.2,0.5-0.1c0.2,0.1,0.2,0.4,0.1,0.5S80.5,7.2,80.3,7.1z
	 M80.5,10.3c0.2,0.1,0.2,0.4,0.1,0.5c-0.1,0.2-0.4,0.2-0.5,0.1c-0.2-0.1-0.2-0.4-0.1-0.5C80.1,10.2,80.3,10.1,80.5,10.3z M79.4,6.8
	c-0.2-0.1-0.2-0.4-0.1-0.5c0.1-0.2,0.4-0.2,0.5-0.1C80,6.3,80,6.6,79.9,6.7C79.7,6.9,79.5,6.9,79.4,6.8z M79.6,10.7
	c0.2,0.1,0.2,0.4,0.1,0.5c-0.1,0.2-0.4,0.2-0.5,0.1c-0.2-0.1-0.2-0.4-0.1-0.5C79.3,10.6,79.5,10.6,79.6,10.7z M78.3,11.7
	c-0.1-0.1-0.2-0.3,0-0.5c0.1-0.2,0.3-0.2,0.5-0.1c0.2,0.1,0.2,0.4,0.1,0.5C78.7,11.8,78.5,11.8,78.3,11.7z M77.6,12.3
	c-0.2-0.2-0.2-0.4-0.1-0.6c0.1-0.2,0.4-0.2,0.5-0.1c0.2,0.2,0.2,0.4,0.1,0.6C78,12.3,77.7,12.4,77.6,12.3z M76.8,12.8
	c-0.2-0.2-0.2-0.4-0.1-0.6c0.1-0.2,0.4-0.2,0.5-0.1c0.1,0.2,0.1,0.5,0,0.6C77.1,12.9,76.9,12.9,76.8,12.8z M75.9,13.4
	c-0.1-0.1-0.2-0.4,0-0.5c0.1-0.2,0.4-0.2,0.5-0.1c0.1,0.1,0.2,0.3,0.1,0.5C76.2,13.5,76,13.5,75.9,13.4z M75.1,14
	c-0.1-0.2-0.2-0.4-0.1-0.5c0.1-0.2,0.4-0.2,0.5-0.1c0.2,0.1,0.3,0.3,0.1,0.5C75.5,14.1,75.3,14.1,75.1,14z M74.4,14.5
	c-0.2-0.1-0.2-0.4-0.1-0.5c0.1-0.2,0.3-0.2,0.5-0.1c0.2,0.1,0.2,0.4,0.1,0.5C74.7,14.6,74.5,14.6,74.4,14.5z M103.9,16.8
	c-0.1,0.2-0.4,0.2-0.5,0.1s-0.1-0.2-0.2-0.3c-0.1,0.1-0.3,0.1-0.4,0c-0.2-0.1-0.2-0.4-0.1-0.5c0.1-0.2,0.4-0.2,0.5-0.1
	c0.1,0.1,0.1,0.2,0.2,0.3c0.1-0.1,0.3-0.1,0.4,0C103.9,16.5,103.9,16.6,103.9,16.8z M104.1,16.4c-0.2,0.1-0.4,0-0.4-0.2
	c-0.1-0.2,0-0.4,0.2-0.4l0.4-0.1c0.2-0.1,0.4,0,0.4,0.2c0.1,0.2,0,0.4-0.2,0.4L104.1,16.4z M104.7,15.4c-0.2-0.1-0.2-0.4-0.1-0.5
	c0.1-0.2,0.4-0.2,0.5-0.1c0.2,0.1,0.2,0.4,0.1,0.5l0,0c0.1,0.1,0,0.5-0.1,0.5l-0.1-0.1c-0.1,0-0.2,0-0.2,0
	C104.8,15.6,104.8,15.5,104.7,15.4C104.8,15.4,104.8,15.4,104.7,15.4z M105.1,14.1c0.1-0.2,0.4-0.2,0.5-0.1c0.2,0.1,0.2,0.4,0.1,0.5
	l0,0c0.1,0,0.2,0,0.3,0.1c0.2,0.1,0.1,0.6,0,0.5l-0.1-0.1c-0.1,0-0.2,0-0.2,0s-0.1-0.1,0-0.2c-0.1,0-0.1-0.1-0.1-0.1
	c-0.1,0-0.2,0-0.3-0.1C105.1,14.5,105,14.3,105.1,14.1z M105.9,12.6c-0.1,0.2-0.4,0.2-0.5,0.1c-0.2-0.1-0.2-0.3-0.1-0.5
	c0.2-0.2,0.4-0.2,0.6-0.1C106,12.2,106.1,12.5,105.9,12.6z M105.8,13.1c0.2,0.1,0.2,0.4,0.1,0.5c-0.1,0.2-0.4,0.2-0.5,0.1
	c-0.2-0.1-0.2-0.3-0.1-0.5C105.4,13,105.7,13,105.8,13.1z M105.2,11.3c0.1-0.2,0.3-0.2,0.5-0.1c0.2,0.1,0.2,0.4,0.1,0.5
	c-0.1,0.2-0.4,0.2-0.5,0.1C105.1,11.6,105.1,11.4,105.2,11.3z M106,14c0.1-0.2,0.4-0.2,0.5-0.1c0.2,0.1,0.2,0.4,0.1,0.5
	c-0.1,0.2-0.4,0.2-0.5,0.1C105.9,14.3,105.9,14.1,106,14z M106.3,13c0.1-0.2,0.4-0.2,0.5-0.1c0.2,0.1,0.2,0.4,0.1,0.5
	c-0.1,0.2-0.4,0.2-0.5,0.1C106.3,13.3,106.3,13.1,106.3,13z M106.5,12.5c-0.2-0.1-0.2-0.4-0.1-0.5s0.4-0.2,0.5-0.1
	c0.2,0.1,0.3,0.4,0.1,0.5C106.9,12.6,106.7,12.6,106.5,12.5z"/>
<path class="st2" d="M101.4,18.1c0,0,1.1-0.5,2.2-1.6c0.3-0.3,0.6-0.4,0.7-0.6c1-1.1,1.8-2.7,1.1-4.5c-0.1-0.3-0.2-0.6-0.4-0.9
	c-1-1.5-2.4-2.3-4.3-2.9s-4.5-0.8-8.2-0.8c-7.4,0-14,4.5-18,7.4"/>
<path class="st2" d="M78.8,6.3c0,0,1.4,0.6,5.7,1.5c0.2,0.1,1.5,0.4,2.9,0.6c1.7,0.3,3.1,0.4,4.1,0.6c0.3,0.1,0.6,0.3,0.9,0.3
	c0.4,0,1.4-0.5,2-0.5c0.6,0.1,1.3,0.2,2,0.1c1.2-0.2,4.3-1,4.8-1c0.6,0,2.5-0.1,3.9,0.9s1.8,2.9,1.6,3.5c-0.2,0.6-0.1,1.8-1,2.6
	c-0.6,0.6-0.4,0.7-1.8,1.2c-0.8,0.3-2.2,0.7-2.8,1.1c-0.6,0.5-2.2,1.5-3.1,2.3l-0.8,0.7"/>
<g>
	<path class="st3" d="M12.8,10.5c-1-0.3-1.6-0.5-1.7-0.8c-0.3-0.4-0.4-0.9-0.4-1.3c0-0.3,0.1-0.7,0.3-1c0.4-0.8,1.5-1.7,3.3-2.7
		C16,3.5,17.1,3,17.6,3c0.3,0,0.5,0.1,0.6,0.3c0.1,0.1,0.1,0.2,0.1,0.3c0,0.4-0.6,1-1.8,1.9c-0.3,0.3-0.7,0.5-1.2,0.8
		c-1,0.6-2,1.3-3.1,2.3c1.2,0.1,2.2,0.2,2.9,0.4c1.7,0.6,2.6,1.6,2.7,3.1c0,0.5,0,1.1-0.2,1.6c-0.1,0.5-0.4,1-0.9,1.5
		c-0.4,0.3-0.8,0.6-1.4,0.7c-1.5,0.4-3.2,0.6-5,0.6l0,0c-2.3,0-4-0.3-4.9-1C4.6,14.9,4.1,13.7,4,12v-0.6c0-0.9,0.3-1.3,1-1.3
		s1,0.4,1,1.3v0.3c0,2,1.4,3,4.3,3c3.7-0.3,5.6-0.8,5.8-1.8v-0.1C16,11.8,15,11.1,12.8,10.5L12.8,10.5z"/>
	<path class="st3" d="M20.5,16.5c-0.8,0-1.1-0.4-1.1-1.1l0,0c0-0.5,0.3-0.8,0.9-0.8l0,0h2.9c1.5,0,2.2-0.9,2.2-2.5V5.5
		c0-1.1,0.4-1.7,1-1.7l0,0c0.7,0,1,0.6,1.1,1.8v6.6v0.4c0,1.3,0.4,1.9,1.2,1.9h0.2v1.9h-0.3c-0.7,0-1.2-0.5-1.6-1.6
		c-0.4,0.5-0.6,0.7-0.7,0.8c-0.5,0.5-1.3,0.8-2.3,0.8h-3.5V16.5z M20.1,5.6c0-1.2,0.4-1.8,1.1-1.8l0,0c0.7,0,1,0.6,1,1.7v5.8
		c0,1.1-0.4,1.7-1,1.7l0,0c-0.7,0-1-0.6-1.1-1.8V5.6z"/>
	<path class="st3" d="M28.6,14.6H29c2.3,0,3.5-1,3.5-2.9v-1.1c0-0.8,0.3-1.3,1-1.3c0.6,0,0.9,0.4,0.9,1.3v1.2c0,1.7-0.5,2.9-1.4,3.6
		c-1,0.7-2.3,1.1-3.9,1.1h-0.6v-1.9H28.6z M29.7,18.3c0.6,0,0.9,0.3,0.9,0.9s-0.3,0.9-0.9,0.9s-0.9-0.3-0.9-0.9
		C28.7,18.6,29,18.3,29.7,18.3z M31.2,20.7c0.6,0,0.9,0.3,0.9,0.9s-0.3,0.9-0.9,0.9s-0.9-0.3-0.9-0.9C30.2,21,30.5,20.7,31.2,20.7z
		 M32.6,18.3c0.6,0,0.9,0.3,0.9,0.9s-0.3,0.9-0.9,0.9c-0.6,0-0.9-0.3-0.9-0.9C31.6,18.6,32,18.3,32.6,18.3z"/>
	<path class="st4" d="M48.5,10.5c-1-0.3-1.6-0.5-1.7-0.8c-0.3-0.4-0.4-0.9-0.4-1.3c0-0.3,0.1-0.7,0.3-1c0.4-0.8,1.5-1.7,3.3-2.7
		C51.6,3.5,52.8,3,53.3,3c0.3,0,0.5,0.1,0.6,0.3c0,0.1,0.1,0.2,0.1,0.3c0,0.4-0.6,1-1.8,1.9C51.8,5.7,51.5,6,51,6.2
		c-1,0.6-2,1.3-3.1,2.3c1.2,0.1,2.2,0.2,2.9,0.4c1.7,0.6,2.6,1.6,2.7,3.1c0,0.5,0,1,0.1,1.5s0.4,0.9,1.1,1H55v1.9h-0.3
		c-1-0.2-1.7-0.7-1.9-1.6c-0.6,0.5-1.1,0.8-1.7,1c-1.5,0.4-3.2,0.6-5,0.6l0,0c-2.3,0-4-0.3-4.9-1c-0.9-0.6-1.4-1.8-1.5-3.5v-0.6
		c0-0.9,0.3-1.3,1-1.3s1,0.4,1,1.3v0.3c0,2,1.4,3,4.3,3c3.7-0.3,5.6-0.8,5.8-1.8v-0.1C51.7,11.8,50.6,11.1,48.5,10.5L48.5,10.5z"/>
	<path class="st4" d="M55.7,18.3c0.6,0,0.9,0.3,0.9,0.9s-0.3,0.9-0.9,0.9c-0.6,0-0.9-0.3-0.9-0.9C54.8,18.6,55.1,18.3,55.7,18.3z
		 M54.8,14.6h0.5c2.3,0,3.5-1,3.5-2.9v-1.1c0-0.8,0.3-1.3,1-1.3c0.6,0,0.9,0.4,0.9,1.3v1.2c0,1.7-0.5,2.9-1.4,3.6
		c-1,0.7-2.3,1.1-3.9,1.1h-0.6V14.6z M58.7,18.3c0.6,0,0.9,0.3,0.9,0.9s-0.3,0.9-0.9,0.9c-0.6,0-0.9-0.3-0.9-0.9
		C57.7,18.6,58,18.3,58.7,18.3z"/>
</g>
<g>
	<path class="st4" d="M7.3,36v-3.6l-2.7-4.9h1.3l1.2,2.4C7.4,30.4,7.7,31,8,31.5l0,0c0.2-0.6,0.5-1.1,0.9-1.8l1.2-2.4h1.3l-2.9,4.9
		V36H7.3z"/>
	<path class="st4" d="M16.7,32h-3.3v3h3.7v1h-4.8v-8.5h4.6v0.9h-3.5v2.7h3.3C16.7,31.1,16.7,32,16.7,32z"/>
	<path class="st4" d="M18.5,27.4h1.1v4.1l0,0c0.2-0.3,0.5-0.6,0.7-0.9l2.6-3.2h1.4L21.2,31l3.3,4.9h-1.3l-2.8-4.2l-0.8,0.9V36h-1.1
		C18.5,36,18.5,27.4,18.5,27.4z"/>
	<path class="st4" d="M28.1,27.5c0.5-0.1,1.2-0.2,2.1-0.2c1.1,0,1.9,0.3,2.4,0.7c0.5,0.4,0.7,1,0.7,1.8s-0.2,1.4-0.7,1.8
		c-0.6,0.6-1.5,0.9-2.6,0.9c-0.3,0-0.6,0-0.9-0.1V36H28L28.1,27.5L28.1,27.5z M29.2,31.6c0.2,0.1,0.5,0.1,0.9,0.1
		c1.3,0,2.1-0.6,2.1-1.8c0-1.1-0.8-1.7-2-1.7c-0.5,0-0.8,0-1,0.1V31.6z"/>
	<path class="st4" d="M39.2,32h-3.3v3h3.7v1h-4.8v-8.5h4.6v0.9h-3.5v2.7h3.3V32z"/>
	<path class="st4" d="M41,27.4h1.1V35h3.6v1H41V27.4z"/>
	<path class="st4" d="M48.4,33.3L47.5,36h-1.1l2.9-8.5h1.3l2.9,8.5h-1.2l-0.9-2.7H48.4z M51.2,32.4L50.4,30
		c-0.2-0.6-0.3-1.1-0.4-1.6l0,0c-0.1,0.5-0.3,1-0.4,1.5l-0.8,2.5H51.2z"/>
	<path class="st4" d="M54.8,27.4h1.1v4.1l0,0c0.2-0.3,0.5-0.6,0.7-0.9l2.6-3.2h1.4L57.5,31l3.3,4.9h-1.3l-2.8-4.2l-0.8,0.9V36h-1.1
		C54.8,36,54.8,27.4,54.8,27.4z"/>
</g>
</svg>
